solid OpenSCAD_Model
  facet normal 0 0 -1
    outer loop
      vertex -3.41841 90.2599 0
      vertex -2 92.9792 0
      vertex -2 90.0877 0
    endloop
  endfacet
  facet normal 0 0 -1
    outer loop
      vertex -4.99403 91.3475 0
      vertex -2.97081 93.2947 0
      vertex -3.41841 90.2599 0
    endloop
  endfacet
  facet normal -0 0 -1
    outer loop
      vertex -2 92.9792 0
      vertex -3.41841 90.2599 0
      vertex -2.97081 93.2947 0
    endloop
  endfacet
  facet normal 0 0 -1
    outer loop
      vertex -3.41841 1.74005 0
      vertex -2 -0.979222 0
      vertex -2.97081 -1.29466 0
    endloop
  endfacet
  facet normal 0 0 -1
    outer loop
      vertex -2 -0.979222 0
      vertex -3.41841 1.74005 0
      vertex -2 1.91228 0
    endloop
  endfacet
  facet normal 0 0 -1
    outer loop
      vertex -5.88376 -2.95726 0
      vertex -2.97081 -2.70534 0
      vertex -4.99403 -4.65248 0
    endloop
  endfacet
  facet normal -0 0 -1
    outer loop
      vertex -2.97081 -2.70534 0
      vertex -5.88376 -2.95726 0
      vertex -2.97081 -1.29466 0
    endloop
  endfacet
  facet normal 0 0 -1
    outer loop
      vertex -2.97081 -1.29466 0
      vertex -4.99403 0.652481 0
      vertex -3.41841 1.74005 0
    endloop
  endfacet
  facet normal 0 0 -1
    outer loop
      vertex -5.88376 -1.04274 0
      vertex -2.97081 -1.29466 0
      vertex -5.88376 -2.95726 0
    endloop
  endfacet
  facet normal 0 0 -1
    outer loop
      vertex -2.97081 -1.29466 0
      vertex -5.88376 -1.04274 0
      vertex -4.99403 0.652481 0
    endloop
  endfacet
  facet normal 0 0 -1
    outer loop
      vertex -2 -0.979222 0
      vertex -0.800003 -2 0
      vertex -2 -2 0
    endloop
  endfacet
  facet normal 0 0 -1
    outer loop
      vertex -2 1.91228 0
      vertex -0.800003 -2 0
      vertex -2 -0.979222 0
    endloop
  endfacet
  facet normal 0 0 -1
    outer loop
      vertex -0.800003 -2 0
      vertex -2 1.91228 0
      vertex -0.800003 94 0
    endloop
  endfacet
  facet normal 0 0 -1
    outer loop
      vertex -2 90.0877 0
      vertex -0.800003 94 0
      vertex -2 1.91228 0
    endloop
  endfacet
  facet normal 0 0 -1
    outer loop
      vertex -2 92.9792 0
      vertex -0.800003 94 0
      vertex -2 90.0877 0
    endloop
  endfacet
  facet normal -0 0 -1
    outer loop
      vertex -0.800003 94 0
      vertex -2 92.9792 0
      vertex -2 94 0
    endloop
  endfacet
  facet normal 0 0 -1
    outer loop
      vertex 2 94 0
      vertex 74 90.0877 0
      vertex 2 -2 0
    endloop
  endfacet
  facet normal 0 0 -1
    outer loop
      vertex 74 90.0877 0
      vertex 2 94 0
      vertex 70.1162 94 0
    endloop
  endfacet
  facet normal 0 0 -1
    outer loop
      vertex -0.800003 -2 0
      vertex 2 -2 0
      vertex 1.54181 -3.85889 0
    endloop
  endfacet
  facet normal 0 0 -1
    outer loop
      vertex 2 -2 0
      vertex -0.800003 -2 0
      vertex 2 94 0
    endloop
  endfacet
  facet normal 0 0 -1
    outer loop
      vertex -1.62918 -3.14127 0
      vertex 1.54181 -3.85889 0
      vertex 0.272247 -5.29193 0
    endloop
  endfacet
  facet normal 0 0 -1
    outer loop
      vertex -0.800003 94 0
      vertex 2 94 0
      vertex -0.800003 -2 0
    endloop
  endfacet
  facet normal 0 0 -1
    outer loop
      vertex 2 94 0
      vertex -0.800003 94 0
      vertex 1.54181 95.8589 0
    endloop
  endfacet
  facet normal 0 0 -1
    outer loop
      vertex -1.62918 -3.14127 0
      vertex 0.272247 -5.29193 0
      vertex -1.51787 -5.97083 0
    endloop
  endfacet
  facet normal 0 0 -1
    outer loop
      vertex 1.54181 -3.85889 0
      vertex -1.62918 -3.14127 0
      vertex -0.800003 -2 0
    endloop
  endfacet
  facet normal 0 0 -1
    outer loop
      vertex -3.41841 -5.74005 0
      vertex -1.62918 -3.14127 0
      vertex -1.51787 -5.97083 0
    endloop
  endfacet
  facet normal 0 0 -1
    outer loop
      vertex -4.99403 -4.65248 0
      vertex -2.97081 -2.70534 0
      vertex -3.41841 -5.74005 0
    endloop
  endfacet
  facet normal -0 0 -1
    outer loop
      vertex -1.62918 -3.14127 0
      vertex -3.41841 -5.74005 0
      vertex -2.97081 -2.70534 0
    endloop
  endfacet
  facet normal 0 0 -1
    outer loop
      vertex -1.62918 95.1413 0
      vertex 1.54181 95.8589 0
      vertex -0.800003 94 0
    endloop
  endfacet
  facet normal -0 0 -1
    outer loop
      vertex 1.54181 95.8589 0
      vertex -1.62918 95.1413 0
      vertex 0.272247 97.2919 0
    endloop
  endfacet
  facet normal -0 0 -1
    outer loop
      vertex 0.272247 97.2919 0
      vertex -1.62918 95.1413 0
      vertex -1.51787 97.9708 0
    endloop
  endfacet
  facet normal 0 0 -1
    outer loop
      vertex -3.41841 97.7401 0
      vertex -1.62918 95.1413 0
      vertex -2.97081 94.7053 0
    endloop
  endfacet
  facet normal 0 0 -1
    outer loop
      vertex -1.62918 95.1413 0
      vertex -3.41841 97.7401 0
      vertex -1.51787 97.9708 0
    endloop
  endfacet
  facet normal 0 0 -1
    outer loop
      vertex -5.88376 93.0427 0
      vertex -2.97081 93.2947 0
      vertex -4.99403 91.3475 0
    endloop
  endfacet
  facet normal -0 0 -1
    outer loop
      vertex -2.97081 93.2947 0
      vertex -5.88376 93.0427 0
      vertex -2.97081 94.7053 0
    endloop
  endfacet
  facet normal 0 0 -1
    outer loop
      vertex -2.97081 94.7053 0
      vertex -4.99403 96.6525 0
      vertex -3.41841 97.7401 0
    endloop
  endfacet
  facet normal 0 0 -1
    outer loop
      vertex -5.88376 94.9573 0
      vertex -2.97081 94.7053 0
      vertex -5.88376 93.0427 0
    endloop
  endfacet
  facet normal 0 0 -1
    outer loop
      vertex -2.97081 94.7053 0
      vertex -5.88376 94.9573 0
      vertex -4.99403 96.6525 0
    endloop
  endfacet
  facet normal 0 0 -1
    outer loop
      vertex 73.0292 -2 0
      vertex 74 -0.979222 0
      vertex 74 -2 0
    endloop
  endfacet
  facet normal 0 0 -1
    outer loop
      vertex 70.1162 -2 0
      vertex 74 -0.979222 0
      vertex 73.0292 -2 0
    endloop
  endfacet
  facet normal -0 0 -1
    outer loop
      vertex 74 -0.979222 0
      vertex 70.1162 -2 0
      vertex 74 1.91228 0
    endloop
  endfacet
  facet normal 0 0 -1
    outer loop
      vertex 2 -2 0
      vertex 74 1.91228 0
      vertex 70.1162 -2 0
    endloop
  endfacet
  facet normal -0 0 -1
    outer loop
      vertex 74 1.91228 0
      vertex 2 -2 0
      vertex 74 90.0877 0
    endloop
  endfacet
  facet normal 0 0 -1
    outer loop
      vertex 74 92.9792 0
      vertex 73.0292 94 0
      vertex 74 94 0
    endloop
  endfacet
  facet normal 0 0 -1
    outer loop
      vertex 75.2 -2 0
      vertex 78 -2 0
      vertex 77.5418 -3.85889 0
    endloop
  endfacet
  facet normal 0 0 -1
    outer loop
      vertex 74.3708 -3.14127 0
      vertex 77.5418 -3.85889 0
      vertex 76.2722 -5.29193 0
    endloop
  endfacet
  facet normal 0 0 -1
    outer loop
      vertex 78 -2 0
      vertex 75.2 -2 0
      vertex 77.5418 -0.141113 0
    endloop
  endfacet
  facet normal 0 0 -1
    outer loop
      vertex 74.3708 -0.858734 0
      vertex 77.5418 -0.141113 0
      vertex 75.2 -2 0
    endloop
  endfacet
  facet normal 0 0 -1
    outer loop
      vertex 74.3708 -3.14127 0
      vertex 76.2722 -5.29193 0
      vertex 74.4821 -5.97083 0
    endloop
  endfacet
  facet normal 0 0 -1
    outer loop
      vertex 77.5418 -3.85889 0
      vertex 74.3708 -3.14127 0
      vertex 75.2 -2 0
    endloop
  endfacet
  facet normal 0 0 -1
    outer loop
      vertex 72.5816 -5.74005 0
      vertex 74.3708 -3.14127 0
      vertex 74.4821 -5.97083 0
    endloop
  endfacet
  facet normal 0 0 -1
    outer loop
      vertex 70.1162 -2 0
      vertex 73.0292 -2 0
      vertex 73.0292 -2.70534 0
    endloop
  endfacet
  facet normal 0 0 -1
    outer loop
      vertex 74 90.0877 0
      vertex 70.1162 94 0
      vertex 74 92.9792 0
    endloop
  endfacet
  facet normal 0 0 -1
    outer loop
      vertex 71.006 -4.65248 0
      vertex 73.0292 -2.70534 0
      vertex 72.5816 -5.74005 0
    endloop
  endfacet
  facet normal -0 0 -1
    outer loop
      vertex 74.3708 -3.14127 0
      vertex 72.5816 -5.74005 0
      vertex 73.0292 -2.70534 0
    endloop
  endfacet
  facet normal -0 0 -1
    outer loop
      vertex 77.5418 -0.141113 0
      vertex 74.3708 -0.858734 0
      vertex 76.2722 1.29193 0
    endloop
  endfacet
  facet normal -0 0 -1
    outer loop
      vertex 76.2722 1.29193 0
      vertex 74.3708 -0.858734 0
      vertex 74.4821 1.97083 0
    endloop
  endfacet
  facet normal 0 0 -1
    outer loop
      vertex 74 1.91228 0
      vertex 74.3708 -0.858734 0
      vertex 74 -0.979222 0
    endloop
  endfacet
  facet normal 0 0 -1
    outer loop
      vertex 74.3708 -0.858734 0
      vertex 74 1.91228 0
      vertex 74.4821 1.97083 0
    endloop
  endfacet
  facet normal 0 0 -1
    outer loop
      vertex 75.2 94 0
      vertex 78 94 0
      vertex 77.5418 92.1411 0
    endloop
  endfacet
  facet normal 0 0 -1
    outer loop
      vertex 74.3708 92.8587 0
      vertex 77.5418 92.1411 0
      vertex 76.2722 90.7081 0
    endloop
  endfacet
  facet normal 0 0 -1
    outer loop
      vertex 78 94 0
      vertex 75.2 94 0
      vertex 77.5418 95.8589 0
    endloop
  endfacet
  facet normal 0 0 -1
    outer loop
      vertex 74.3708 95.1413 0
      vertex 77.5418 95.8589 0
      vertex 75.2 94 0
    endloop
  endfacet
  facet normal 0 0 -1
    outer loop
      vertex 74.3708 92.8587 0
      vertex 76.2722 90.7081 0
      vertex 74.4821 90.0292 0
    endloop
  endfacet
  facet normal 0 0 -1
    outer loop
      vertex 77.5418 92.1411 0
      vertex 74.3708 92.8587 0
      vertex 75.2 94 0
    endloop
  endfacet
  facet normal 0 0 -1
    outer loop
      vertex 74 90.0877 0
      vertex 74.3708 92.8587 0
      vertex 74.4821 90.0292 0
    endloop
  endfacet
  facet normal -0 0 -1
    outer loop
      vertex 74.3708 92.8587 0
      vertex 74 90.0877 0
      vertex 74 92.9792 0
    endloop
  endfacet
  facet normal -0 0 -1
    outer loop
      vertex 77.5418 95.8589 0
      vertex 74.3708 95.1413 0
      vertex 76.2722 97.2919 0
    endloop
  endfacet
  facet normal -0 0 -1
    outer loop
      vertex 76.2722 97.2919 0
      vertex 74.3708 95.1413 0
      vertex 74.4821 97.9708 0
    endloop
  endfacet
  facet normal 0 0 -1
    outer loop
      vertex 72.5816 97.7401 0
      vertex 74.3708 95.1413 0
      vertex 73.0292 94.7053 0
    endloop
  endfacet
  facet normal 0 0 -1
    outer loop
      vertex 74.3708 95.1413 0
      vertex 72.5816 97.7401 0
      vertex 74.4821 97.9708 0
    endloop
  endfacet
  facet normal 0 0 -1
    outer loop
      vertex 74 92.9792 0
      vertex 70.1162 94 0
      vertex 73.0292 94 0
    endloop
  endfacet
  facet normal 0 0 -1
    outer loop
      vertex 70.1162 -2.95726 0
      vertex 73.0292 -2.70534 0
      vertex 71.006 -4.65248 0
    endloop
  endfacet
  facet normal 0 0 -1
    outer loop
      vertex 73.0292 94 0
      vertex 70.1162 94 0
      vertex 73.0292 94.7053 0
    endloop
  endfacet
  facet normal -0 0 -1
    outer loop
      vertex 73.0292 -2.70534 0
      vertex 70.1162 -2.95726 0
      vertex 70.1162 -2 0
    endloop
  endfacet
  facet normal 0 0 -1
    outer loop
      vertex 70.1162 94.9573 0
      vertex 73.0292 94.7053 0
      vertex 70.1162 94 0
    endloop
  endfacet
  facet normal 0 0 -1
    outer loop
      vertex 73.0292 94.7053 0
      vertex 71.006 96.6525 0
      vertex 72.5816 97.7401 0
    endloop
  endfacet
  facet normal 0 0 -1
    outer loop
      vertex 73.0292 94.7053 0
      vertex 70.1162 94.9573 0
      vertex 71.006 96.6525 0
    endloop
  endfacet
  facet normal 0 0 1
    outer loop
      vertex 5.2 4 5
      vertex 8 4 5
      vertex 7.54181 5.85889 5
    endloop
  endfacet
  facet normal 0 0 1
    outer loop
      vertex 4.37082 5.14127 5
      vertex 7.54181 5.85889 5
      vertex 6.27225 7.29193 5
    endloop
  endfacet
  facet normal 0 0 1
    outer loop
      vertex 8 4 5
      vertex 5.2 4 5
      vertex 7.54181 2.14111 5
    endloop
  endfacet
  facet normal -0 0 1
    outer loop
      vertex 4.37082 2.85873 5
      vertex 7.54181 2.14111 5
      vertex 5.2 4 5
    endloop
  endfacet
  facet normal 0 0 1
    outer loop
      vertex 4.37082 5.14127 5
      vertex 6.27225 7.29193 5
      vertex 4.48213 7.97083 5
    endloop
  endfacet
  facet normal 0 0 1
    outer loop
      vertex 7.54181 5.85889 5
      vertex 4.37082 5.14127 5
      vertex 5.2 4 5
    endloop
  endfacet
  facet normal -0 0 1
    outer loop
      vertex 2.58159 7.74005 5
      vertex 4.37082 5.14127 5
      vertex 4.48213 7.97083 5
    endloop
  endfacet
  facet normal -0 0 1
    outer loop
      vertex 1.00597 6.65248 5
      vertex 3.02919 4.70534 5
      vertex 2.58159 7.74005 5
    endloop
  endfacet
  facet normal 0 0 1
    outer loop
      vertex 4.37082 5.14127 5
      vertex 2.58159 7.74005 5
      vertex 3.02919 4.70534 5
    endloop
  endfacet
  facet normal 0 0 1
    outer loop
      vertex 7.54181 2.14111 5
      vertex 4.37082 2.85873 5
      vertex 6.27225 0.708069 5
    endloop
  endfacet
  facet normal 0 0 1
    outer loop
      vertex 6.27225 0.708069 5
      vertex 4.37082 2.85873 5
      vertex 4.48213 0.0291748 5
    endloop
  endfacet
  facet normal 0 0 1
    outer loop
      vertex 2.58159 0.259949 5
      vertex 4.37082 2.85873 5
      vertex 3.02919 3.29466 5
    endloop
  endfacet
  facet normal 0 0 1
    outer loop
      vertex 4.37082 2.85873 5
      vertex 2.58159 0.259949 5
      vertex 4.48213 0.0291748 5
    endloop
  endfacet
  facet normal -0 0 1
    outer loop
      vertex 0.116241 4.95726 5
      vertex 3.02919 4.70534 5
      vertex 1.00597 6.65248 5
    endloop
  endfacet
  facet normal 0 0 1
    outer loop
      vertex 3.02919 4.70534 5
      vertex 0.116241 4.95726 5
      vertex 3.02919 3.29466 5
    endloop
  endfacet
  facet normal 0 0 1
    outer loop
      vertex 3.02919 3.29466 5
      vertex 1.00597 1.34752 5
      vertex 2.58159 0.259949 5
    endloop
  endfacet
  facet normal 0 0 1
    outer loop
      vertex 0.116241 3.04274 5
      vertex 3.02919 3.29466 5
      vertex 0.116241 4.95726 5
    endloop
  endfacet
  facet normal 0 0 1
    outer loop
      vertex 3.02919 3.29466 5
      vertex 0.116241 3.04274 5
      vertex 1.00597 1.34752 5
    endloop
  endfacet
  facet normal 0.748512 -0.663122 0
    outer loop
      vertex 6.27225 0.708069 5
      vertex 7.54181 2.14111 2
      vertex 7.54181 2.14111 5
    endloop
  endfacet
  facet normal 0.748512 -0.663122 0
    outer loop
      vertex 7.54181 2.14111 2
      vertex 6.27225 0.708069 5
      vertex 6.27225 0.708069 2
    endloop
  endfacet
  facet normal 0.97094 -0.239323 0
    outer loop
      vertex 7.54181 2.14111 5
      vertex 8 4 2
      vertex 8 4 5
    endloop
  endfacet
  facet normal 0.97094 -0.239323 0
    outer loop
      vertex 8 4 2
      vertex 7.54181 2.14111 5
      vertex 7.54181 2.14111 2
    endloop
  endfacet
  facet normal 0.97094 0.239323 0
    outer loop
      vertex 8 4 5
      vertex 7.54181 5.85889 2
      vertex 7.54181 5.85889 5
    endloop
  endfacet
  facet normal 0.97094 0.239323 0
    outer loop
      vertex 7.54181 5.85889 2
      vertex 8 4 5
      vertex 8 4 2
    endloop
  endfacet
  facet normal 0.748511 0.663122 0
    outer loop
      vertex 7.54181 5.85889 5
      vertex 6.27225 7.29193 2
      vertex 6.27225 7.29193 5
    endloop
  endfacet
  facet normal 0.748511 0.663122 0
    outer loop
      vertex 6.27225 7.29193 2
      vertex 7.54181 5.85889 5
      vertex 7.54181 5.85889 2
    endloop
  endfacet
  facet normal 0.354604 0.935017 -0
    outer loop
      vertex 6.27225 7.29193 2
      vertex 4.48213 7.97083 5
      vertex 6.27225 7.29193 5
    endloop
  endfacet
  facet normal 0.354604 0.935017 0
    outer loop
      vertex 4.48213 7.97083 5
      vertex 6.27225 7.29193 2
      vertex 4.48213 7.97083 2
    endloop
  endfacet
  facet normal -0.120543 0.992708 0
    outer loop
      vertex 4.48213 7.97083 2
      vertex 2.58159 7.74005 5
      vertex 4.48213 7.97083 5
    endloop
  endfacet
  facet normal -0.120543 0.992708 0
    outer loop
      vertex 2.58159 7.74005 5
      vertex 4.48213 7.97083 2
      vertex 2.58159 7.74005 2
    endloop
  endfacet
  facet normal -0.568064 0.822984 0
    outer loop
      vertex 2.58159 7.74005 2
      vertex 1.00597 6.65248 5
      vertex 2.58159 7.74005 5
    endloop
  endfacet
  facet normal -0.568064 0.822984 0
    outer loop
      vertex 1.00597 6.65248 5
      vertex 2.58159 7.74005 2
      vertex 1.00597 6.65248 2
    endloop
  endfacet
  facet normal -0.885454 0.464727 0
    outer loop
      vertex 0.116241 4.95726 2
      vertex 1.00597 6.65248 5
      vertex 1.00597 6.65248 2
    endloop
  endfacet
  facet normal -0.885454 0.464727 0
    outer loop
      vertex 1.00597 6.65248 5
      vertex 0.116241 4.95726 2
      vertex 0.116241 4.95726 5
    endloop
  endfacet
  facet normal -1 0 0
    outer loop
      vertex 0.116241 3.04274 2
      vertex 0.116241 4.95726 5
      vertex 0.116241 4.95726 2
    endloop
  endfacet
  facet normal -1 -0 0
    outer loop
      vertex 0.116241 4.95726 5
      vertex 0.116241 3.04274 2
      vertex 0.116241 3.04274 5
    endloop
  endfacet
  facet normal -0.885454 -0.464727 0
    outer loop
      vertex 1.00597 1.34752 2
      vertex 0.116241 3.04274 5
      vertex 0.116241 3.04274 2
    endloop
  endfacet
  facet normal -0.885454 -0.464727 0
    outer loop
      vertex 0.116241 3.04274 5
      vertex 1.00597 1.34752 2
      vertex 1.00597 1.34752 5
    endloop
  endfacet
  facet normal -0.568064 -0.822984 0
    outer loop
      vertex 1.00597 1.34752 2
      vertex 2.58159 0.259949 5
      vertex 1.00597 1.34752 5
    endloop
  endfacet
  facet normal -0.568064 -0.822984 -0
    outer loop
      vertex 2.58159 0.259949 5
      vertex 1.00597 1.34752 2
      vertex 2.58159 0.259949 2
    endloop
  endfacet
  facet normal -0.12054 -0.992708 0
    outer loop
      vertex 2.58159 0.259949 2
      vertex 4.48213 0.0291748 5
      vertex 2.58159 0.259949 5
    endloop
  endfacet
  facet normal -0.12054 -0.992708 -0
    outer loop
      vertex 4.48213 0.0291748 5
      vertex 2.58159 0.259949 2
      vertex 4.48213 0.0291748 2
    endloop
  endfacet
  facet normal 0.354601 -0.935018 0
    outer loop
      vertex 4.48213 0.0291748 2
      vertex 6.27225 0.708069 5
      vertex 4.48213 0.0291748 5
    endloop
  endfacet
  facet normal 0.354601 -0.935018 0
    outer loop
      vertex 6.27225 0.708069 5
      vertex 4.48213 0.0291748 2
      vertex 6.27225 0.708069 2
    endloop
  endfacet
  facet normal 1 -0 0
    outer loop
      vertex 3.02919 3.29466 5
      vertex 3.02919 4.70534 2
      vertex 3.02919 4.70534 5
    endloop
  endfacet
  facet normal 1 0 0
    outer loop
      vertex 3.02919 4.70534 2
      vertex 3.02919 3.29466 5
      vertex 3.02919 3.29466 2
    endloop
  endfacet
  facet normal 0.309022 -0.951055 0
    outer loop
      vertex 3.02919 4.70534 2
      vertex 4.37082 5.14127 5
      vertex 3.02919 4.70534 5
    endloop
  endfacet
  facet normal 0.309022 -0.951055 0
    outer loop
      vertex 4.37082 5.14127 5
      vertex 3.02919 4.70534 2
      vertex 4.37082 5.14127 2
    endloop
  endfacet
  facet normal -0.809017 -0.587785 0
    outer loop
      vertex 5.2 4 2
      vertex 4.37082 5.14127 5
      vertex 4.37082 5.14127 2
    endloop
  endfacet
  facet normal -0.809017 -0.587785 0
    outer loop
      vertex 4.37082 5.14127 5
      vertex 5.2 4 2
      vertex 5.2 4 5
    endloop
  endfacet
  facet normal -0.809017 0.587785 0
    outer loop
      vertex 4.37082 2.85873 2
      vertex 5.2 4 5
      vertex 5.2 4 2
    endloop
  endfacet
  facet normal -0.809017 0.587785 0
    outer loop
      vertex 5.2 4 5
      vertex 4.37082 2.85873 2
      vertex 4.37082 2.85873 5
    endloop
  endfacet
  facet normal 0.309022 0.951055 -0
    outer loop
      vertex 4.37082 2.85873 2
      vertex 3.02919 3.29466 5
      vertex 4.37082 2.85873 5
    endloop
  endfacet
  facet normal 0.309022 0.951055 0
    outer loop
      vertex 3.02919 3.29466 5
      vertex 4.37082 2.85873 2
      vertex 3.02919 3.29466 2
    endloop
  endfacet
  facet normal 0 0 1
    outer loop
      vertex 5.2 88 5
      vertex 8 88 5
      vertex 7.54181 89.8589 5
    endloop
  endfacet
  facet normal 0 0 1
    outer loop
      vertex 4.37082 89.1413 5
      vertex 7.54181 89.8589 5
      vertex 6.27225 91.2919 5
    endloop
  endfacet
  facet normal 0 0 1
    outer loop
      vertex 8 88 5
      vertex 5.2 88 5
      vertex 7.54181 86.1411 5
    endloop
  endfacet
  facet normal -0 0 1
    outer loop
      vertex 4.37082 86.8587 5
      vertex 7.54181 86.1411 5
      vertex 5.2 88 5
    endloop
  endfacet
  facet normal 0 0 1
    outer loop
      vertex 4.37082 89.1413 5
      vertex 6.27225 91.2919 5
      vertex 4.48213 91.9708 5
    endloop
  endfacet
  facet normal 0 0 1
    outer loop
      vertex 7.54181 89.8589 5
      vertex 4.37082 89.1413 5
      vertex 5.2 88 5
    endloop
  endfacet
  facet normal -0 0 1
    outer loop
      vertex 2.58159 91.7401 5
      vertex 4.37082 89.1413 5
      vertex 4.48213 91.9708 5
    endloop
  endfacet
  facet normal -0 0 1
    outer loop
      vertex 1.00597 90.6525 5
      vertex 3.02919 88.7053 5
      vertex 2.58159 91.7401 5
    endloop
  endfacet
  facet normal 0 0 1
    outer loop
      vertex 4.37082 89.1413 5
      vertex 2.58159 91.7401 5
      vertex 3.02919 88.7053 5
    endloop
  endfacet
  facet normal 0 0 1
    outer loop
      vertex 7.54181 86.1411 5
      vertex 4.37082 86.8587 5
      vertex 6.27225 84.7081 5
    endloop
  endfacet
  facet normal 0 0 1
    outer loop
      vertex 6.27225 84.7081 5
      vertex 4.37082 86.8587 5
      vertex 4.48213 84.0292 5
    endloop
  endfacet
  facet normal 0 0 1
    outer loop
      vertex 2.58159 84.2599 5
      vertex 4.37082 86.8587 5
      vertex 3.02919 87.2947 5
    endloop
  endfacet
  facet normal 0 0 1
    outer loop
      vertex 4.37082 86.8587 5
      vertex 2.58159 84.2599 5
      vertex 4.48213 84.0292 5
    endloop
  endfacet
  facet normal -0 0 1
    outer loop
      vertex 0.116241 88.9573 5
      vertex 3.02919 88.7053 5
      vertex 1.00597 90.6525 5
    endloop
  endfacet
  facet normal 0 0 1
    outer loop
      vertex 3.02919 88.7053 5
      vertex 0.116241 88.9573 5
      vertex 3.02919 87.2947 5
    endloop
  endfacet
  facet normal 0 0 1
    outer loop
      vertex 3.02919 87.2947 5
      vertex 1.00597 85.3475 5
      vertex 2.58159 84.2599 5
    endloop
  endfacet
  facet normal 0 0 1
    outer loop
      vertex 0.116241 87.0427 5
      vertex 3.02919 87.2947 5
      vertex 0.116241 88.9573 5
    endloop
  endfacet
  facet normal 0 0 1
    outer loop
      vertex 3.02919 87.2947 5
      vertex 0.116241 87.0427 5
      vertex 1.00597 85.3475 5
    endloop
  endfacet
  facet normal 0.748502 -0.663132 0
    outer loop
      vertex 6.27225 84.7081 5
      vertex 7.54181 86.1411 2
      vertex 7.54181 86.1411 5
    endloop
  endfacet
  facet normal 0.748502 -0.663132 0
    outer loop
      vertex 7.54181 86.1411 2
      vertex 6.27225 84.7081 5
      vertex 6.27225 84.7081 2
    endloop
  endfacet
  facet normal 0.97094 -0.239322 0
    outer loop
      vertex 7.54181 86.1411 5
      vertex 8 88 2
      vertex 8 88 5
    endloop
  endfacet
  facet normal 0.97094 -0.239322 0
    outer loop
      vertex 8 88 2
      vertex 7.54181 86.1411 5
      vertex 7.54181 86.1411 2
    endloop
  endfacet
  facet normal 0.97094 0.239322 0
    outer loop
      vertex 8 88 5
      vertex 7.54181 89.8589 2
      vertex 7.54181 89.8589 5
    endloop
  endfacet
  facet normal 0.97094 0.239322 0
    outer loop
      vertex 7.54181 89.8589 2
      vertex 8 88 5
      vertex 8 88 2
    endloop
  endfacet
  facet normal 0.748502 0.663132 0
    outer loop
      vertex 7.54181 89.8589 5
      vertex 6.27225 91.2919 2
      vertex 6.27225 91.2919 5
    endloop
  endfacet
  facet normal 0.748502 0.663132 0
    outer loop
      vertex 6.27225 91.2919 2
      vertex 7.54181 89.8589 5
      vertex 7.54181 89.8589 2
    endloop
  endfacet
  facet normal 0.354604 0.935017 -0
    outer loop
      vertex 6.27225 91.2919 2
      vertex 4.48213 91.9708 5
      vertex 6.27225 91.2919 5
    endloop
  endfacet
  facet normal 0.354604 0.935017 0
    outer loop
      vertex 4.48213 91.9708 5
      vertex 6.27225 91.2919 2
      vertex 4.48213 91.9708 2
    endloop
  endfacet
  facet normal -0.120502 0.992713 0
    outer loop
      vertex 4.48213 91.9708 2
      vertex 2.58159 91.7401 5
      vertex 4.48213 91.9708 5
    endloop
  endfacet
  facet normal -0.120502 0.992713 0
    outer loop
      vertex 2.58159 91.7401 5
      vertex 4.48213 91.9708 2
      vertex 2.58159 91.7401 2
    endloop
  endfacet
  facet normal -0.568075 0.822977 0
    outer loop
      vertex 2.58159 91.7401 2
      vertex 1.00597 90.6525 5
      vertex 2.58159 91.7401 5
    endloop
  endfacet
  facet normal -0.568075 0.822977 0
    outer loop
      vertex 1.00597 90.6525 5
      vertex 2.58159 91.7401 2
      vertex 1.00597 90.6525 2
    endloop
  endfacet
  facet normal -0.885452 0.464731 0
    outer loop
      vertex 0.116241 88.9573 2
      vertex 1.00597 90.6525 5
      vertex 1.00597 90.6525 2
    endloop
  endfacet
  facet normal -0.885452 0.464731 0
    outer loop
      vertex 1.00597 90.6525 5
      vertex 0.116241 88.9573 2
      vertex 0.116241 88.9573 5
    endloop
  endfacet
  facet normal -1 0 0
    outer loop
      vertex 0.116241 87.0427 2
      vertex 0.116241 88.9573 5
      vertex 0.116241 88.9573 2
    endloop
  endfacet
  facet normal -1 -0 0
    outer loop
      vertex 0.116241 88.9573 5
      vertex 0.116241 87.0427 2
      vertex 0.116241 87.0427 5
    endloop
  endfacet
  facet normal -0.885452 -0.464731 0
    outer loop
      vertex 1.00597 85.3475 2
      vertex 0.116241 87.0427 5
      vertex 0.116241 87.0427 2
    endloop
  endfacet
  facet normal -0.885452 -0.464731 0
    outer loop
      vertex 0.116241 87.0427 5
      vertex 1.00597 85.3475 2
      vertex 1.00597 85.3475 5
    endloop
  endfacet
  facet normal -0.568075 -0.822977 0
    outer loop
      vertex 1.00597 85.3475 2
      vertex 2.58159 84.2599 5
      vertex 1.00597 85.3475 5
    endloop
  endfacet
  facet normal -0.568075 -0.822977 -0
    outer loop
      vertex 2.58159 84.2599 5
      vertex 1.00597 85.3475 2
      vertex 2.58159 84.2599 2
    endloop
  endfacet
  facet normal -0.120502 -0.992713 0
    outer loop
      vertex 2.58159 84.2599 2
      vertex 4.48213 84.0292 5
      vertex 2.58159 84.2599 5
    endloop
  endfacet
  facet normal -0.120502 -0.992713 -0
    outer loop
      vertex 4.48213 84.0292 5
      vertex 2.58159 84.2599 2
      vertex 4.48213 84.0292 2
    endloop
  endfacet
  facet normal 0.354604 -0.935017 0
    outer loop
      vertex 4.48213 84.0292 2
      vertex 6.27225 84.7081 5
      vertex 4.48213 84.0292 5
    endloop
  endfacet
  facet normal 0.354604 -0.935017 0
    outer loop
      vertex 6.27225 84.7081 5
      vertex 4.48213 84.0292 2
      vertex 6.27225 84.7081 2
    endloop
  endfacet
  facet normal 1 -0 0
    outer loop
      vertex 3.02919 87.2947 5
      vertex 3.02919 88.7053 2
      vertex 3.02919 88.7053 5
    endloop
  endfacet
  facet normal 1 0 0
    outer loop
      vertex 3.02919 88.7053 2
      vertex 3.02919 87.2947 5
      vertex 3.02919 87.2947 2
    endloop
  endfacet
  facet normal 0.309067 -0.95104 0
    outer loop
      vertex 3.02919 88.7053 2
      vertex 4.37082 89.1413 5
      vertex 3.02919 88.7053 5
    endloop
  endfacet
  facet normal 0.309067 -0.95104 0
    outer loop
      vertex 4.37082 89.1413 5
      vertex 3.02919 88.7053 2
      vertex 4.37082 89.1413 2
    endloop
  endfacet
  facet normal -0.809025 -0.587775 0
    outer loop
      vertex 5.2 88 2
      vertex 4.37082 89.1413 5
      vertex 4.37082 89.1413 2
    endloop
  endfacet
  facet normal -0.809025 -0.587775 0
    outer loop
      vertex 4.37082 89.1413 5
      vertex 5.2 88 2
      vertex 5.2 88 5
    endloop
  endfacet
  facet normal -0.809025 0.587775 0
    outer loop
      vertex 4.37082 86.8587 2
      vertex 5.2 88 5
      vertex 5.2 88 2
    endloop
  endfacet
  facet normal -0.809025 0.587775 0
    outer loop
      vertex 5.2 88 5
      vertex 4.37082 86.8587 2
      vertex 4.37082 86.8587 5
    endloop
  endfacet
  facet normal 0.309067 0.95104 -0
    outer loop
      vertex 4.37082 86.8587 2
      vertex 3.02919 87.2947 5
      vertex 4.37082 86.8587 5
    endloop
  endfacet
  facet normal 0.309067 0.95104 0
    outer loop
      vertex 3.02919 87.2947 5
      vertex 4.37082 86.8587 2
      vertex 3.02919 87.2947 2
    endloop
  endfacet
  facet normal 0 0 1
    outer loop
      vertex 69.2 4 5
      vertex 72 4 5
      vertex 71.5418 5.85889 5
    endloop
  endfacet
  facet normal 0 0 1
    outer loop
      vertex 68.3708 5.14127 5
      vertex 71.5418 5.85889 5
      vertex 70.2722 7.29193 5
    endloop
  endfacet
  facet normal 0 0 1
    outer loop
      vertex 72 4 5
      vertex 69.2 4 5
      vertex 71.5418 2.14111 5
    endloop
  endfacet
  facet normal -0 0 1
    outer loop
      vertex 68.3708 2.85873 5
      vertex 71.5418 2.14111 5
      vertex 69.2 4 5
    endloop
  endfacet
  facet normal 0 0 1
    outer loop
      vertex 68.3708 5.14127 5
      vertex 70.2722 7.29193 5
      vertex 68.4821 7.97083 5
    endloop
  endfacet
  facet normal 0 0 1
    outer loop
      vertex 71.5418 5.85889 5
      vertex 68.3708 5.14127 5
      vertex 69.2 4 5
    endloop
  endfacet
  facet normal -0 0 1
    outer loop
      vertex 66.5816 7.74005 5
      vertex 68.3708 5.14127 5
      vertex 68.4821 7.97083 5
    endloop
  endfacet
  facet normal -0 0 1
    outer loop
      vertex 65.006 6.65248 5
      vertex 67.0292 4.70534 5
      vertex 66.5816 7.74005 5
    endloop
  endfacet
  facet normal 0 0 1
    outer loop
      vertex 68.3708 5.14127 5
      vertex 66.5816 7.74005 5
      vertex 67.0292 4.70534 5
    endloop
  endfacet
  facet normal 0 0 1
    outer loop
      vertex 71.5418 2.14111 5
      vertex 68.3708 2.85873 5
      vertex 70.2722 0.708069 5
    endloop
  endfacet
  facet normal 0 0 1
    outer loop
      vertex 70.2722 0.708069 5
      vertex 68.3708 2.85873 5
      vertex 68.4821 0.0291748 5
    endloop
  endfacet
  facet normal 0 0 1
    outer loop
      vertex 66.5816 0.259949 5
      vertex 68.3708 2.85873 5
      vertex 67.0292 3.29466 5
    endloop
  endfacet
  facet normal 0 0 1
    outer loop
      vertex 68.3708 2.85873 5
      vertex 66.5816 0.259949 5
      vertex 68.4821 0.0291748 5
    endloop
  endfacet
  facet normal -0 0 1
    outer loop
      vertex 64.1162 4.95726 5
      vertex 67.0292 4.70534 5
      vertex 65.006 6.65248 5
    endloop
  endfacet
  facet normal 0 0 1
    outer loop
      vertex 67.0292 4.70534 5
      vertex 64.1162 4.95726 5
      vertex 67.0292 3.29466 5
    endloop
  endfacet
  facet normal 0 0 1
    outer loop
      vertex 67.0292 3.29466 5
      vertex 65.006 1.34752 5
      vertex 66.5816 0.259949 5
    endloop
  endfacet
  facet normal 0 0 1
    outer loop
      vertex 64.1162 3.04274 5
      vertex 67.0292 3.29466 5
      vertex 64.1162 4.95726 5
    endloop
  endfacet
  facet normal 0 0 1
    outer loop
      vertex 67.0292 3.29466 5
      vertex 64.1162 3.04274 5
      vertex 65.006 1.34752 5
    endloop
  endfacet
  facet normal 0.748501 -0.663133 0
    outer loop
      vertex 70.2722 0.708069 5
      vertex 71.5418 2.14111 2
      vertex 71.5418 2.14111 5
    endloop
  endfacet
  facet normal 0.748501 -0.663133 0
    outer loop
      vertex 71.5418 2.14111 2
      vertex 70.2722 0.708069 5
      vertex 70.2722 0.708069 2
    endloop
  endfacet
  facet normal 0.970939 -0.239328 0
    outer loop
      vertex 71.5418 2.14111 5
      vertex 72 4 2
      vertex 72 4 5
    endloop
  endfacet
  facet normal 0.970939 -0.239328 0
    outer loop
      vertex 72 4 2
      vertex 71.5418 2.14111 5
      vertex 71.5418 2.14111 2
    endloop
  endfacet
  facet normal 0.970939 0.239328 0
    outer loop
      vertex 72 4 5
      vertex 71.5418 5.85889 2
      vertex 71.5418 5.85889 5
    endloop
  endfacet
  facet normal 0.970939 0.239328 0
    outer loop
      vertex 71.5418 5.85889 2
      vertex 72 4 5
      vertex 72 4 2
    endloop
  endfacet
  facet normal 0.748501 0.663134 0
    outer loop
      vertex 71.5418 5.85889 5
      vertex 70.2722 7.29193 2
      vertex 70.2722 7.29193 5
    endloop
  endfacet
  facet normal 0.748501 0.663134 0
    outer loop
      vertex 70.2722 7.29193 2
      vertex 71.5418 5.85889 5
      vertex 71.5418 5.85889 2
    endloop
  endfacet
  facet normal 0.354607 0.935015 -0
    outer loop
      vertex 70.2722 7.29193 2
      vertex 68.4821 7.97083 5
      vertex 70.2722 7.29193 5
    endloop
  endfacet
  facet normal 0.354607 0.935015 0
    outer loop
      vertex 68.4821 7.97083 5
      vertex 70.2722 7.29193 2
      vertex 68.4821 7.97083 2
    endloop
  endfacet
  facet normal -0.120546 0.992708 0
    outer loop
      vertex 68.4821 7.97083 2
      vertex 66.5816 7.74005 5
      vertex 68.4821 7.97083 5
    endloop
  endfacet
  facet normal -0.120546 0.992708 0
    outer loop
      vertex 66.5816 7.74005 5
      vertex 68.4821 7.97083 2
      vertex 66.5816 7.74005 2
    endloop
  endfacet
  facet normal -0.568069 0.822981 0
    outer loop
      vertex 66.5816 7.74005 2
      vertex 65.006 6.65248 5
      vertex 66.5816 7.74005 5
    endloop
  endfacet
  facet normal -0.568069 0.822981 0
    outer loop
      vertex 65.006 6.65248 5
      vertex 66.5816 7.74005 2
      vertex 65.006 6.65248 2
    endloop
  endfacet
  facet normal -0.885439 0.464756 0
    outer loop
      vertex 64.1162 4.95726 2
      vertex 65.006 6.65248 5
      vertex 65.006 6.65248 2
    endloop
  endfacet
  facet normal -0.885439 0.464756 0
    outer loop
      vertex 65.006 6.65248 5
      vertex 64.1162 4.95726 2
      vertex 64.1162 4.95726 5
    endloop
  endfacet
  facet normal -1 0 0
    outer loop
      vertex 64.1162 3.04274 2
      vertex 64.1162 4.95726 5
      vertex 64.1162 4.95726 2
    endloop
  endfacet
  facet normal -1 -0 0
    outer loop
      vertex 64.1162 4.95726 5
      vertex 64.1162 3.04274 2
      vertex 64.1162 3.04274 5
    endloop
  endfacet
  facet normal -0.885439 -0.464756 0
    outer loop
      vertex 65.006 1.34752 2
      vertex 64.1162 3.04274 5
      vertex 64.1162 3.04274 2
    endloop
  endfacet
  facet normal -0.885439 -0.464756 0
    outer loop
      vertex 64.1162 3.04274 5
      vertex 65.006 1.34752 2
      vertex 65.006 1.34752 5
    endloop
  endfacet
  facet normal -0.568069 -0.822981 0
    outer loop
      vertex 65.006 1.34752 2
      vertex 66.5816 0.259949 5
      vertex 65.006 1.34752 5
    endloop
  endfacet
  facet normal -0.568069 -0.822981 -0
    outer loop
      vertex 66.5816 0.259949 5
      vertex 65.006 1.34752 2
      vertex 66.5816 0.259949 2
    endloop
  endfacet
  facet normal -0.120543 -0.992708 0
    outer loop
      vertex 66.5816 0.259949 2
      vertex 68.4821 0.0291748 5
      vertex 66.5816 0.259949 5
    endloop
  endfacet
  facet normal -0.120543 -0.992708 -0
    outer loop
      vertex 68.4821 0.0291748 5
      vertex 66.5816 0.259949 2
      vertex 68.4821 0.0291748 2
    endloop
  endfacet
  facet normal 0.354604 -0.935016 0
    outer loop
      vertex 68.4821 0.0291748 2
      vertex 70.2722 0.708069 5
      vertex 68.4821 0.0291748 5
    endloop
  endfacet
  facet normal 0.354604 -0.935016 0
    outer loop
      vertex 70.2722 0.708069 5
      vertex 68.4821 0.0291748 2
      vertex 70.2722 0.708069 2
    endloop
  endfacet
  facet normal 1 -0 0
    outer loop
      vertex 67.0292 3.29466 5
      vertex 67.0292 4.70534 2
      vertex 67.0292 4.70534 5
    endloop
  endfacet
  facet normal 1 0 0
    outer loop
      vertex 67.0292 4.70534 2
      vertex 67.0292 3.29466 5
      vertex 67.0292 3.29466 2
    endloop
  endfacet
  facet normal 0.309028 -0.951053 0
    outer loop
      vertex 67.0292 4.70534 2
      vertex 68.3708 5.14127 5
      vertex 67.0292 4.70534 5
    endloop
  endfacet
  facet normal 0.309028 -0.951053 0
    outer loop
      vertex 68.3708 5.14127 5
      vertex 67.0292 4.70534 2
      vertex 68.3708 5.14127 2
    endloop
  endfacet
  facet normal -0.809011 -0.587794 0
    outer loop
      vertex 69.2 4 2
      vertex 68.3708 5.14127 5
      vertex 68.3708 5.14127 2
    endloop
  endfacet
  facet normal -0.809011 -0.587794 0
    outer loop
      vertex 68.3708 5.14127 5
      vertex 69.2 4 2
      vertex 69.2 4 5
    endloop
  endfacet
  facet normal -0.809011 0.587794 0
    outer loop
      vertex 68.3708 2.85873 2
      vertex 69.2 4 5
      vertex 69.2 4 2
    endloop
  endfacet
  facet normal -0.809011 0.587794 0
    outer loop
      vertex 69.2 4 5
      vertex 68.3708 2.85873 2
      vertex 68.3708 2.85873 5
    endloop
  endfacet
  facet normal 0.309028 0.951053 -0
    outer loop
      vertex 68.3708 2.85873 2
      vertex 67.0292 3.29466 5
      vertex 68.3708 2.85873 5
    endloop
  endfacet
  facet normal 0.309028 0.951053 0
    outer loop
      vertex 67.0292 3.29466 5
      vertex 68.3708 2.85873 2
      vertex 67.0292 3.29466 2
    endloop
  endfacet
  facet normal 0 0 1
    outer loop
      vertex 69.2 88 5
      vertex 72 88 5
      vertex 71.5418 89.8589 5
    endloop
  endfacet
  facet normal 0 0 1
    outer loop
      vertex 68.3708 89.1413 5
      vertex 71.5418 89.8589 5
      vertex 70.2722 91.2919 5
    endloop
  endfacet
  facet normal 0 0 1
    outer loop
      vertex 72 88 5
      vertex 69.2 88 5
      vertex 71.5418 86.1411 5
    endloop
  endfacet
  facet normal -0 0 1
    outer loop
      vertex 68.3708 86.8587 5
      vertex 71.5418 86.1411 5
      vertex 69.2 88 5
    endloop
  endfacet
  facet normal 0 0 1
    outer loop
      vertex 68.3708 89.1413 5
      vertex 70.2722 91.2919 5
      vertex 68.4821 91.9708 5
    endloop
  endfacet
  facet normal 0 0 1
    outer loop
      vertex 71.5418 89.8589 5
      vertex 68.3708 89.1413 5
      vertex 69.2 88 5
    endloop
  endfacet
  facet normal -0 0 1
    outer loop
      vertex 66.5816 91.7401 5
      vertex 68.3708 89.1413 5
      vertex 68.4821 91.9708 5
    endloop
  endfacet
  facet normal -0 0 1
    outer loop
      vertex 65.006 90.6525 5
      vertex 67.0292 88.7053 5
      vertex 66.5816 91.7401 5
    endloop
  endfacet
  facet normal 0 0 1
    outer loop
      vertex 68.3708 89.1413 5
      vertex 66.5816 91.7401 5
      vertex 67.0292 88.7053 5
    endloop
  endfacet
  facet normal 0 0 1
    outer loop
      vertex 71.5418 86.1411 5
      vertex 68.3708 86.8587 5
      vertex 70.2722 84.7081 5
    endloop
  endfacet
  facet normal 0 0 1
    outer loop
      vertex 70.2722 84.7081 5
      vertex 68.3708 86.8587 5
      vertex 68.4821 84.0292 5
    endloop
  endfacet
  facet normal 0 0 1
    outer loop
      vertex 66.5816 84.2599 5
      vertex 68.3708 86.8587 5
      vertex 67.0292 87.2947 5
    endloop
  endfacet
  facet normal 0 0 1
    outer loop
      vertex 68.3708 86.8587 5
      vertex 66.5816 84.2599 5
      vertex 68.4821 84.0292 5
    endloop
  endfacet
  facet normal -0 0 1
    outer loop
      vertex 64.1162 88.9573 5
      vertex 67.0292 88.7053 5
      vertex 65.006 90.6525 5
    endloop
  endfacet
  facet normal 0 0 1
    outer loop
      vertex 67.0292 88.7053 5
      vertex 64.1162 88.9573 5
      vertex 67.0292 87.2947 5
    endloop
  endfacet
  facet normal 0 0 1
    outer loop
      vertex 67.0292 87.2947 5
      vertex 65.006 85.3475 5
      vertex 66.5816 84.2599 5
    endloop
  endfacet
  facet normal 0 0 1
    outer loop
      vertex 64.1162 87.0427 5
      vertex 67.0292 87.2947 5
      vertex 64.1162 88.9573 5
    endloop
  endfacet
  facet normal 0 0 1
    outer loop
      vertex 67.0292 87.2947 5
      vertex 64.1162 87.0427 5
      vertex 65.006 85.3475 5
    endloop
  endfacet
  facet normal 0.748492 -0.663144 0
    outer loop
      vertex 70.2722 84.7081 5
      vertex 71.5418 86.1411 2
      vertex 71.5418 86.1411 5
    endloop
  endfacet
  facet normal 0.748492 -0.663144 0
    outer loop
      vertex 71.5418 86.1411 2
      vertex 70.2722 84.7081 5
      vertex 70.2722 84.7081 2
    endloop
  endfacet
  facet normal 0.970939 -0.239327 0
    outer loop
      vertex 71.5418 86.1411 5
      vertex 72 88 2
      vertex 72 88 5
    endloop
  endfacet
  facet normal 0.970939 -0.239327 0
    outer loop
      vertex 72 88 2
      vertex 71.5418 86.1411 5
      vertex 71.5418 86.1411 2
    endloop
  endfacet
  facet normal 0.970939 0.239327 0
    outer loop
      vertex 72 88 5
      vertex 71.5418 89.8589 2
      vertex 71.5418 89.8589 5
    endloop
  endfacet
  facet normal 0.970939 0.239327 0
    outer loop
      vertex 71.5418 89.8589 2
      vertex 72 88 5
      vertex 72 88 2
    endloop
  endfacet
  facet normal 0.748492 0.663144 0
    outer loop
      vertex 71.5418 89.8589 5
      vertex 70.2722 91.2919 2
      vertex 70.2722 91.2919 5
    endloop
  endfacet
  facet normal 0.748492 0.663144 0
    outer loop
      vertex 70.2722 91.2919 2
      vertex 71.5418 89.8589 5
      vertex 71.5418 89.8589 2
    endloop
  endfacet
  facet normal 0.354607 0.935015 -0
    outer loop
      vertex 70.2722 91.2919 2
      vertex 68.4821 91.9708 5
      vertex 70.2722 91.2919 5
    endloop
  endfacet
  facet normal 0.354607 0.935015 0
    outer loop
      vertex 68.4821 91.9708 5
      vertex 70.2722 91.2919 2
      vertex 68.4821 91.9708 2
    endloop
  endfacet
  facet normal -0.120505 0.992713 0
    outer loop
      vertex 68.4821 91.9708 2
      vertex 66.5816 91.7401 5
      vertex 68.4821 91.9708 5
    endloop
  endfacet
  facet normal -0.120505 0.992713 0
    outer loop
      vertex 66.5816 91.7401 5
      vertex 68.4821 91.9708 2
      vertex 66.5816 91.7401 2
    endloop
  endfacet
  facet normal -0.56808 0.822974 0
    outer loop
      vertex 66.5816 91.7401 2
      vertex 65.006 90.6525 5
      vertex 66.5816 91.7401 5
    endloop
  endfacet
  facet normal -0.56808 0.822974 0
    outer loop
      vertex 65.006 90.6525 5
      vertex 66.5816 91.7401 2
      vertex 65.006 90.6525 2
    endloop
  endfacet
  facet normal -0.885437 0.46476 0
    outer loop
      vertex 64.1162 88.9573 2
      vertex 65.006 90.6525 5
      vertex 65.006 90.6525 2
    endloop
  endfacet
  facet normal -0.885437 0.46476 0
    outer loop
      vertex 65.006 90.6525 5
      vertex 64.1162 88.9573 2
      vertex 64.1162 88.9573 5
    endloop
  endfacet
  facet normal -1 0 0
    outer loop
      vertex 64.1162 87.0427 2
      vertex 64.1162 88.9573 5
      vertex 64.1162 88.9573 2
    endloop
  endfacet
  facet normal -1 -0 0
    outer loop
      vertex 64.1162 88.9573 5
      vertex 64.1162 87.0427 2
      vertex 64.1162 87.0427 5
    endloop
  endfacet
  facet normal -0.885437 -0.46476 0
    outer loop
      vertex 65.006 85.3475 2
      vertex 64.1162 87.0427 5
      vertex 64.1162 87.0427 2
    endloop
  endfacet
  facet normal -0.885437 -0.46476 0
    outer loop
      vertex 64.1162 87.0427 5
      vertex 65.006 85.3475 2
      vertex 65.006 85.3475 5
    endloop
  endfacet
  facet normal -0.56808 -0.822974 0
    outer loop
      vertex 65.006 85.3475 2
      vertex 66.5816 84.2599 5
      vertex 65.006 85.3475 5
    endloop
  endfacet
  facet normal -0.56808 -0.822974 -0
    outer loop
      vertex 66.5816 84.2599 5
      vertex 65.006 85.3475 2
      vertex 66.5816 84.2599 2
    endloop
  endfacet
  facet normal -0.120505 -0.992713 0
    outer loop
      vertex 66.5816 84.2599 2
      vertex 68.4821 84.0292 5
      vertex 66.5816 84.2599 5
    endloop
  endfacet
  facet normal -0.120505 -0.992713 -0
    outer loop
      vertex 68.4821 84.0292 5
      vertex 66.5816 84.2599 2
      vertex 68.4821 84.0292 2
    endloop
  endfacet
  facet normal 0.354607 -0.935015 0
    outer loop
      vertex 68.4821 84.0292 2
      vertex 70.2722 84.7081 5
      vertex 68.4821 84.0292 5
    endloop
  endfacet
  facet normal 0.354607 -0.935015 0
    outer loop
      vertex 70.2722 84.7081 5
      vertex 68.4821 84.0292 2
      vertex 70.2722 84.7081 2
    endloop
  endfacet
  facet normal 1 -0 0
    outer loop
      vertex 67.0292 87.2947 5
      vertex 67.0292 88.7053 2
      vertex 67.0292 88.7053 5
    endloop
  endfacet
  facet normal 1 0 0
    outer loop
      vertex 67.0292 88.7053 2
      vertex 67.0292 87.2947 5
      vertex 67.0292 87.2947 2
    endloop
  endfacet
  facet normal 0.309073 -0.951038 0
    outer loop
      vertex 67.0292 88.7053 2
      vertex 68.3708 89.1413 5
      vertex 67.0292 88.7053 5
    endloop
  endfacet
  facet normal 0.309073 -0.951038 0
    outer loop
      vertex 68.3708 89.1413 5
      vertex 67.0292 88.7053 2
      vertex 68.3708 89.1413 2
    endloop
  endfacet
  facet normal -0.809018 -0.587784 0
    outer loop
      vertex 69.2 88 2
      vertex 68.3708 89.1413 5
      vertex 68.3708 89.1413 2
    endloop
  endfacet
  facet normal -0.809018 -0.587784 0
    outer loop
      vertex 68.3708 89.1413 5
      vertex 69.2 88 2
      vertex 69.2 88 5
    endloop
  endfacet
  facet normal -0.809018 0.587784 0
    outer loop
      vertex 68.3708 86.8587 2
      vertex 69.2 88 5
      vertex 69.2 88 2
    endloop
  endfacet
  facet normal -0.809018 0.587784 0
    outer loop
      vertex 69.2 88 5
      vertex 68.3708 86.8587 2
      vertex 68.3708 86.8587 5
    endloop
  endfacet
  facet normal 0.309073 0.951038 -0
    outer loop
      vertex 68.3708 86.8587 2
      vertex 67.0292 87.2947 5
      vertex 68.3708 86.8587 5
    endloop
  endfacet
  facet normal 0.309073 0.951038 0
    outer loop
      vertex 67.0292 87.2947 5
      vertex 68.3708 86.8587 2
      vertex 67.0292 87.2947 2
    endloop
  endfacet
  facet normal -0 0 1
    outer loop
      vertex -3.41841 1.74005 18
      vertex -2 -0.979222 18
      vertex -2 1.91228 18
    endloop
  endfacet
  facet normal -0 0 1
    outer loop
      vertex -4.99403 0.652481 18
      vertex -2.97081 -1.29466 18
      vertex -3.41841 1.74005 18
    endloop
  endfacet
  facet normal 0 0 1
    outer loop
      vertex -2 -0.979222 18
      vertex -3.41841 1.74005 18
      vertex -2.97081 -1.29466 18
    endloop
  endfacet
  facet normal 0 0 1
    outer loop
      vertex -3.41841 90.2599 18
      vertex -2 92.9792 18
      vertex -2.97081 93.2947 18
    endloop
  endfacet
  facet normal 0 0 1
    outer loop
      vertex -2 92.9792 18
      vertex -3.41841 90.2599 18
      vertex -2 90.0877 18
    endloop
  endfacet
  facet normal -0 0 1
    outer loop
      vertex -5.88376 94.9573 18
      vertex -2.97081 94.7053 18
      vertex -4.99403 96.6525 18
    endloop
  endfacet
  facet normal 0 0 1
    outer loop
      vertex -2.97081 94.7053 18
      vertex -5.88376 94.9573 18
      vertex -2.97081 93.2947 18
    endloop
  endfacet
  facet normal 0 0 1
    outer loop
      vertex -2.97081 93.2947 18
      vertex -4.99403 91.3475 18
      vertex -3.41841 90.2599 18
    endloop
  endfacet
  facet normal 0 0 1
    outer loop
      vertex -5.88376 93.0427 18
      vertex -2.97081 93.2947 18
      vertex -5.88376 94.9573 18
    endloop
  endfacet
  facet normal 0 0 1
    outer loop
      vertex -2.97081 93.2947 18
      vertex -5.88376 93.0427 18
      vertex -4.99403 91.3475 18
    endloop
  endfacet
  facet normal 0 0 1
    outer loop
      vertex -2 90.0877 18
      vertex 0 90.6048 18
      vertex -2 92.9792 18
    endloop
  endfacet
  facet normal 0 0 1
    outer loop
      vertex 0 90.6048 18
      vertex -2 90.0877 18
      vertex 0 1.39518 18
    endloop
  endfacet
  facet normal -0 0 1
    outer loop
      vertex -2 1.91228 18
      vertex 0 1.39518 18
      vertex -2 90.0877 18
    endloop
  endfacet
  facet normal 0 0 1
    outer loop
      vertex -2 -0.979222 18
      vertex 0 1.39518 18
      vertex -2 1.91228 18
    endloop
  endfacet
  facet normal 0 0 1
    outer loop
      vertex 0 1.39518 18
      vertex -2 -0.979222 18
      vertex -0.800003 -2 18
    endloop
  endfacet
  facet normal 0 0 1
    outer loop
      vertex -0.800003 -2 18
      vertex -2 -0.979222 18
      vertex -2 -2 18
    endloop
  endfacet
  facet normal 0 0 1
    outer loop
      vertex 70.6635 0 18
      vertex 2 -2 18
      vertex 70.1162 -2 18
    endloop
  endfacet
  facet normal -0 0 1
    outer loop
      vertex 1.41679 0 18
      vertex 2 -2 18
      vertex 70.6635 0 18
    endloop
  endfacet
  facet normal 0 0 1
    outer loop
      vertex -0.800003 -2 18
      vertex 2 -2 18
      vertex 1.41679 0 18
    endloop
  endfacet
  facet normal 0 0 1
    outer loop
      vertex -0.800003 -2 18
      vertex 1.41679 0 18
      vertex 0.272247 1.29193 18
    endloop
  endfacet
  facet normal 0 0 1
    outer loop
      vertex 2 -2 18
      vertex -0.800003 -2 18
      vertex 1.54181 -3.85889 18
    endloop
  endfacet
  facet normal 0 0 1
    outer loop
      vertex -0.800003 -2 18
      vertex 0.272247 1.29193 18
      vertex 0 1.39518 18
    endloop
  endfacet
  facet normal 0 0 1
    outer loop
      vertex 0.272247 90.7081 18
      vertex -2 92.9792 18
      vertex 0 90.6048 18
    endloop
  endfacet
  facet normal -0 0 1
    outer loop
      vertex -1.62918 -3.14127 18
      vertex 1.54181 -3.85889 18
      vertex -0.800003 -2 18
    endloop
  endfacet
  facet normal 0 0 1
    outer loop
      vertex 1.54181 -3.85889 18
      vertex -1.62918 -3.14127 18
      vertex 0.272247 -5.29193 18
    endloop
  endfacet
  facet normal 0 0 1
    outer loop
      vertex 0.272247 -5.29193 18
      vertex -1.62918 -3.14127 18
      vertex -1.51787 -5.97083 18
    endloop
  endfacet
  facet normal 0 0 1
    outer loop
      vertex -3.41841 -5.74005 18
      vertex -1.62918 -3.14127 18
      vertex -2.97081 -2.70534 18
    endloop
  endfacet
  facet normal 0 0 1
    outer loop
      vertex -1.62918 -3.14127 18
      vertex -3.41841 -5.74005 18
      vertex -1.51787 -5.97083 18
    endloop
  endfacet
  facet normal -0 0 1
    outer loop
      vertex -5.88376 -1.04274 18
      vertex -2.97081 -1.29466 18
      vertex -4.99403 0.652481 18
    endloop
  endfacet
  facet normal 0 0 1
    outer loop
      vertex -2.97081 -1.29466 18
      vertex -5.88376 -1.04274 18
      vertex -2.97081 -2.70534 18
    endloop
  endfacet
  facet normal 0 0 1
    outer loop
      vertex -2.97081 -2.70534 18
      vertex -4.99403 -4.65248 18
      vertex -3.41841 -5.74005 18
    endloop
  endfacet
  facet normal 0 0 1
    outer loop
      vertex -5.88376 -2.95726 18
      vertex -2.97081 -2.70534 18
      vertex -5.88376 -1.04274 18
    endloop
  endfacet
  facet normal 0 0 1
    outer loop
      vertex -2.97081 -2.70534 18
      vertex -5.88376 -2.95726 18
      vertex -4.99403 -4.65248 18
    endloop
  endfacet
  facet normal 0 0 1
    outer loop
      vertex 70.1162 -2 18
      vertex 73.0292 -2 18
      vertex 70.6635 0 18
    endloop
  endfacet
  facet normal 0 0 1
    outer loop
      vertex 70.6635 0 18
      vertex 72 1.33861 18
      vertex 71.006 0.652481 18
    endloop
  endfacet
  facet normal 0 0 1
    outer loop
      vertex 73.0292 -2 18
      vertex 70.1162 -2 18
      vertex 73.0292 -2.70534 18
    endloop
  endfacet
  facet normal 0 0 1
    outer loop
      vertex 70.1162 -2.95726 18
      vertex 73.0292 -2.70534 18
      vertex 70.1162 -2 18
    endloop
  endfacet
  facet normal 0 0 1
    outer loop
      vertex 73.0292 -2.70534 18
      vertex 71.006 -4.65248 18
      vertex 72.5816 -5.74005 18
    endloop
  endfacet
  facet normal 0 0 1
    outer loop
      vertex 73.0292 -2.70534 18
      vertex 70.1162 -2.95726 18
      vertex 71.006 -4.65248 18
    endloop
  endfacet
  facet normal -0 0 1
    outer loop
      vertex 73.0292 94 18
      vertex 74 92.9792 18
      vertex 74 94 18
    endloop
  endfacet
  facet normal 0 0 1
    outer loop
      vertex 71.006 91.3475 18
      vertex 74 92.9792 18
      vertex 73.0292 94 18
    endloop
  endfacet
  facet normal 0 0 1
    outer loop
      vertex 74 90.0877 18
      vertex 72 90.6614 18
      vertex 74 1.91228 18
    endloop
  endfacet
  facet normal 0 0 1
    outer loop
      vertex 72 1.33861 18
      vertex 74 1.91228 18
      vertex 72 90.6614 18
    endloop
  endfacet
  facet normal 0 0 1
    outer loop
      vertex 74 92.9792 18
      vertex 72 90.6614 18
      vertex 74 90.0877 18
    endloop
  endfacet
  facet normal -0 0 1
    outer loop
      vertex 72 1.33861 18
      vertex 74 -0.979222 18
      vertex 74 1.91228 18
    endloop
  endfacet
  facet normal 0 0 1
    outer loop
      vertex 75.2 94 18
      vertex 78 94 18
      vertex 77.5418 95.8589 18
    endloop
  endfacet
  facet normal 0 0 1
    outer loop
      vertex 74.3708 95.1413 18
      vertex 77.5418 95.8589 18
      vertex 76.2722 97.2919 18
    endloop
  endfacet
  facet normal 0 0 1
    outer loop
      vertex 78 94 18
      vertex 75.2 94 18
      vertex 77.5418 92.1411 18
    endloop
  endfacet
  facet normal -0 0 1
    outer loop
      vertex 74.3708 92.8587 18
      vertex 77.5418 92.1411 18
      vertex 75.2 94 18
    endloop
  endfacet
  facet normal 0 0 1
    outer loop
      vertex 74.3708 95.1413 18
      vertex 76.2722 97.2919 18
      vertex 74.4821 97.9708 18
    endloop
  endfacet
  facet normal 0 0 1
    outer loop
      vertex 77.5418 95.8589 18
      vertex 74.3708 95.1413 18
      vertex 75.2 94 18
    endloop
  endfacet
  facet normal -0 0 1
    outer loop
      vertex 72.5816 97.7401 18
      vertex 74.3708 95.1413 18
      vertex 74.4821 97.9708 18
    endloop
  endfacet
  facet normal 0 0 1
    outer loop
      vertex 70.1162 94 18
      vertex 73.0292 94 18
      vertex 73.0292 94.7053 18
    endloop
  endfacet
  facet normal 0 0 1
    outer loop
      vertex 74 -0.979222 18
      vertex 73.0292 -2 18
      vertex 74 -2 18
    endloop
  endfacet
  facet normal -0 0 1
    outer loop
      vertex 71.006 96.6525 18
      vertex 73.0292 94.7053 18
      vertex 72.5816 97.7401 18
    endloop
  endfacet
  facet normal 0 0 1
    outer loop
      vertex 74.3708 95.1413 18
      vertex 72.5816 97.7401 18
      vertex 73.0292 94.7053 18
    endloop
  endfacet
  facet normal 0 0 1
    outer loop
      vertex 77.5418 92.1411 18
      vertex 74.3708 92.8587 18
      vertex 76.2722 90.7081 18
    endloop
  endfacet
  facet normal 0 0 1
    outer loop
      vertex 76.2722 90.7081 18
      vertex 74.3708 92.8587 18
      vertex 74.4821 90.0292 18
    endloop
  endfacet
  facet normal 0 0 1
    outer loop
      vertex 74 90.0877 18
      vertex 74.3708 92.8587 18
      vertex 74 92.9792 18
    endloop
  endfacet
  facet normal 0 0 1
    outer loop
      vertex 74.3708 92.8587 18
      vertex 74 90.0877 18
      vertex 74.4821 90.0292 18
    endloop
  endfacet
  facet normal 0 0 1
    outer loop
      vertex 75.2 -2 18
      vertex 78 -2 18
      vertex 77.5418 -0.141113 18
    endloop
  endfacet
  facet normal 0 0 1
    outer loop
      vertex 74.3708 -0.858734 18
      vertex 77.5418 -0.141113 18
      vertex 76.2722 1.29193 18
    endloop
  endfacet
  facet normal 0 0 1
    outer loop
      vertex 78 -2 18
      vertex 75.2 -2 18
      vertex 77.5418 -3.85889 18
    endloop
  endfacet
  facet normal -0 0 1
    outer loop
      vertex 74.3708 -3.14127 18
      vertex 77.5418 -3.85889 18
      vertex 75.2 -2 18
    endloop
  endfacet
  facet normal 0 0 1
    outer loop
      vertex 74.3708 -0.858734 18
      vertex 76.2722 1.29193 18
      vertex 74.4821 1.97083 18
    endloop
  endfacet
  facet normal 0 0 1
    outer loop
      vertex 77.5418 -0.141113 18
      vertex 74.3708 -0.858734 18
      vertex 75.2 -2 18
    endloop
  endfacet
  facet normal -0 0 1
    outer loop
      vertex 74 1.91228 18
      vertex 74.3708 -0.858734 18
      vertex 74.4821 1.97083 18
    endloop
  endfacet
  facet normal 0 0 1
    outer loop
      vertex 74.3708 -0.858734 18
      vertex 74 1.91228 18
      vertex 74 -0.979222 18
    endloop
  endfacet
  facet normal 0 0 1
    outer loop
      vertex 77.5418 -3.85889 18
      vertex 74.3708 -3.14127 18
      vertex 76.2722 -5.29193 18
    endloop
  endfacet
  facet normal 0 0 1
    outer loop
      vertex 76.2722 -5.29193 18
      vertex 74.3708 -3.14127 18
      vertex 74.4821 -5.97083 18
    endloop
  endfacet
  facet normal 0 0 1
    outer loop
      vertex 72.5816 -5.74005 18
      vertex 74.3708 -3.14127 18
      vertex 73.0292 -2.70534 18
    endloop
  endfacet
  facet normal 0 0 1
    outer loop
      vertex 74.3708 -3.14127 18
      vertex 72.5816 -5.74005 18
      vertex 74.4821 -5.97083 18
    endloop
  endfacet
  facet normal -0 0 1
    outer loop
      vertex 70.6635 0 18
      vertex 74 -0.979222 18
      vertex 72 1.33861 18
    endloop
  endfacet
  facet normal 0 0 1
    outer loop
      vertex 74 -0.979222 18
      vertex 70.6635 0 18
      vertex 73.0292 -2 18
    endloop
  endfacet
  facet normal -0 0 1
    outer loop
      vertex 70.1162 94.9573 18
      vertex 73.0292 94.7053 18
      vertex 71.006 96.6525 18
    endloop
  endfacet
  facet normal 0 0 1
    outer loop
      vertex 73.0292 94 18
      vertex 70.1162 94 18
      vertex 70.6635 92 18
    endloop
  endfacet
  facet normal 0 0 1
    outer loop
      vertex 74 92.9792 18
      vertex 71.006 91.3475 18
      vertex 72 90.6614 18
    endloop
  endfacet
  facet normal 0 0 1
    outer loop
      vertex 73.0292 94.7053 18
      vertex 70.1162 94.9573 18
      vertex 70.1162 94 18
    endloop
  endfacet
  facet normal 0 -0 1
    outer loop
      vertex 71.006 91.3475 18
      vertex 73.0292 94 18
      vertex 70.6635 92 18
    endloop
  endfacet
  facet normal -0 0 1
    outer loop
      vertex 2 94 18
      vertex 70.6635 92 18
      vertex 70.1162 94 18
    endloop
  endfacet
  facet normal 0 0 1
    outer loop
      vertex 2 94 18
      vertex 1.41679 92 18
      vertex 70.6635 92 18
    endloop
  endfacet
  facet normal 0 0 1
    outer loop
      vertex -0.800003 94 18
      vertex 2 94 18
      vertex 1.54181 95.8589 18
    endloop
  endfacet
  facet normal 0 0 1
    outer loop
      vertex -1.62918 95.1413 18
      vertex 1.54181 95.8589 18
      vertex 0.272247 97.2919 18
    endloop
  endfacet
  facet normal 0 0 1
    outer loop
      vertex 2 94 18
      vertex -0.800003 94 18
      vertex 1.41679 92 18
    endloop
  endfacet
  facet normal 0 0 1
    outer loop
      vertex 1.41679 92 18
      vertex -0.800003 94 18
      vertex 0.272247 90.7081 18
    endloop
  endfacet
  facet normal 0 0 1
    outer loop
      vertex -2 92.9792 18
      vertex -0.800003 94 18
      vertex -2 94 18
    endloop
  endfacet
  facet normal -0 0 1
    outer loop
      vertex -2 92.9792 18
      vertex 0.272247 90.7081 18
      vertex -0.800003 94 18
    endloop
  endfacet
  facet normal 0 0 1
    outer loop
      vertex -1.62918 95.1413 18
      vertex 0.272247 97.2919 18
      vertex -1.51787 97.9708 18
    endloop
  endfacet
  facet normal 0 0 1
    outer loop
      vertex 1.54181 95.8589 18
      vertex -1.62918 95.1413 18
      vertex -0.800003 94 18
    endloop
  endfacet
  facet normal -0 0 1
    outer loop
      vertex -3.41841 97.7401 18
      vertex -1.62918 95.1413 18
      vertex -1.51787 97.9708 18
    endloop
  endfacet
  facet normal -0 0 1
    outer loop
      vertex -4.99403 96.6525 18
      vertex -2.97081 94.7053 18
      vertex -3.41841 97.7401 18
    endloop
  endfacet
  facet normal 0 0 1
    outer loop
      vertex -1.62918 95.1413 18
      vertex -3.41841 97.7401 18
      vertex -2.97081 94.7053 18
    endloop
  endfacet
  facet normal 0.748511 -0.663123 0
    outer loop
      vertex 0.272247 -5.29193 18
      vertex 1.54181 -3.85889 0
      vertex 1.54181 -3.85889 18
    endloop
  endfacet
  facet normal 0.748511 -0.663123 0
    outer loop
      vertex 1.54181 -3.85889 0
      vertex 0.272247 -5.29193 18
      vertex 0.272247 -5.29193 0
    endloop
  endfacet
  facet normal 0.97094 -0.239323 0
    outer loop
      vertex 1.54181 -3.85889 18
      vertex 2 -2 0
      vertex 2 -2 18
    endloop
  endfacet
  facet normal 0.97094 -0.239323 0
    outer loop
      vertex 2 -2 0
      vertex 1.54181 -3.85889 18
      vertex 1.54181 -3.85889 0
    endloop
  endfacet
  facet normal 0.748513 0.66312 0
    outer loop
      vertex 1.41679 0 18
      vertex 0.272247 1.29193 2
      vertex 0.272247 1.29193 18
    endloop
  endfacet
  facet normal 0.748513 0.66312 0
    outer loop
      vertex 0.272247 1.29193 2
      vertex 1.41679 0 18
      vertex 1.41679 0 2
    endloop
  endfacet
  facet normal 0.354606 0.935016 -0
    outer loop
      vertex 0.272247 1.29193 2
      vertex 0 1.39518 18
      vertex 0.272247 1.29193 18
    endloop
  endfacet
  facet normal 0.354606 0.935016 0
    outer loop
      vertex 0 1.39518 18
      vertex 0.272247 1.29193 2
      vertex 0 1.39518 2
    endloop
  endfacet
  facet normal -0.120539 0.992709 0
    outer loop
      vertex -2 1.91228 0
      vertex -3.41841 1.74005 18
      vertex -2 1.91228 18
    endloop
  endfacet
  facet normal -0.120539 0.992709 0
    outer loop
      vertex -3.41841 1.74005 18
      vertex -2 1.91228 0
      vertex -3.41841 1.74005 0
    endloop
  endfacet
  facet normal -0.568064 0.822985 0
    outer loop
      vertex -3.41841 1.74005 0
      vertex -4.99403 0.652481 18
      vertex -3.41841 1.74005 18
    endloop
  endfacet
  facet normal -0.568064 0.822985 0
    outer loop
      vertex -4.99403 0.652481 18
      vertex -3.41841 1.74005 0
      vertex -4.99403 0.652481 0
    endloop
  endfacet
  facet normal -0.885454 0.464727 0
    outer loop
      vertex -5.88376 -1.04274 0
      vertex -4.99403 0.652481 18
      vertex -4.99403 0.652481 0
    endloop
  endfacet
  facet normal -0.885454 0.464727 0
    outer loop
      vertex -4.99403 0.652481 18
      vertex -5.88376 -1.04274 0
      vertex -5.88376 -1.04274 18
    endloop
  endfacet
  facet normal -1 0 0
    outer loop
      vertex -5.88376 -2.95726 0
      vertex -5.88376 -1.04274 18
      vertex -5.88376 -1.04274 0
    endloop
  endfacet
  facet normal -1 -0 0
    outer loop
      vertex -5.88376 -1.04274 18
      vertex -5.88376 -2.95726 0
      vertex -5.88376 -2.95726 18
    endloop
  endfacet
  facet normal -0.885454 -0.464727 0
    outer loop
      vertex -4.99403 -4.65248 0
      vertex -5.88376 -2.95726 18
      vertex -5.88376 -2.95726 0
    endloop
  endfacet
  facet normal -0.885454 -0.464727 0
    outer loop
      vertex -5.88376 -2.95726 18
      vertex -4.99403 -4.65248 0
      vertex -4.99403 -4.65248 18
    endloop
  endfacet
  facet normal -0.568064 -0.822984 0
    outer loop
      vertex -4.99403 -4.65248 0
      vertex -3.41841 -5.74005 18
      vertex -4.99403 -4.65248 18
    endloop
  endfacet
  facet normal -0.568064 -0.822984 -0
    outer loop
      vertex -3.41841 -5.74005 18
      vertex -4.99403 -4.65248 0
      vertex -3.41841 -5.74005 0
    endloop
  endfacet
  facet normal -0.120543 -0.992708 0
    outer loop
      vertex -3.41841 -5.74005 0
      vertex -1.51787 -5.97083 18
      vertex -3.41841 -5.74005 18
    endloop
  endfacet
  facet normal -0.120543 -0.992708 -0
    outer loop
      vertex -1.51787 -5.97083 18
      vertex -3.41841 -5.74005 0
      vertex -1.51787 -5.97083 0
    endloop
  endfacet
  facet normal 0.354604 -0.935017 0
    outer loop
      vertex -1.51787 -5.97083 0
      vertex 0.272247 -5.29193 18
      vertex -1.51787 -5.97083 18
    endloop
  endfacet
  facet normal 0.354604 -0.935017 0
    outer loop
      vertex 0.272247 -5.29193 18
      vertex -1.51787 -5.97083 0
      vertex 0.272247 -5.29193 0
    endloop
  endfacet
  facet normal 1 -0 0
    outer loop
      vertex -2.97081 -2.70534 18
      vertex -2.97081 -1.29466 0
      vertex -2.97081 -1.29466 18
    endloop
  endfacet
  facet normal 1 0 0
    outer loop
      vertex -2.97081 -1.29466 0
      vertex -2.97081 -2.70534 18
      vertex -2.97081 -2.70534 0
    endloop
  endfacet
  facet normal 0.309019 -0.951056 0
    outer loop
      vertex -2.97081 -1.29466 0
      vertex -2 -0.979222 18
      vertex -2.97081 -1.29466 18
    endloop
  endfacet
  facet normal 0.309019 -0.951056 0
    outer loop
      vertex -2 -0.979222 18
      vertex -2.97081 -1.29466 0
      vertex -2 -0.979222 0
    endloop
  endfacet
  facet normal -0.809018 0.587783 0
    outer loop
      vertex -1.62918 -3.14127 0
      vertex -0.800003 -2 18
      vertex -0.800003 -2 0
    endloop
  endfacet
  facet normal -0.809018 0.587783 0
    outer loop
      vertex -0.800003 -2 18
      vertex -1.62918 -3.14127 0
      vertex -1.62918 -3.14127 18
    endloop
  endfacet
  facet normal 0.309022 0.951055 -0
    outer loop
      vertex -1.62918 -3.14127 0
      vertex -2.97081 -2.70534 18
      vertex -1.62918 -3.14127 18
    endloop
  endfacet
  facet normal 0.309022 0.951055 0
    outer loop
      vertex -2.97081 -2.70534 18
      vertex -1.62918 -3.14127 0
      vertex -2.97081 -2.70534 0
    endloop
  endfacet
  facet normal 0.748505 -0.663129 0
    outer loop
      vertex 0.272247 90.7081 18
      vertex 1.41679 92 2
      vertex 1.41679 92 18
    endloop
  endfacet
  facet normal 0.748505 -0.663129 0
    outer loop
      vertex 1.41679 92 2
      vertex 0.272247 90.7081 18
      vertex 0.272247 90.7081 2
    endloop
  endfacet
  facet normal 0.97094 0.239322 0
    outer loop
      vertex 2 94 18
      vertex 1.54181 95.8589 0
      vertex 1.54181 95.8589 18
    endloop
  endfacet
  facet normal 0.97094 0.239322 0
    outer loop
      vertex 1.54181 95.8589 0
      vertex 2 94 18
      vertex 2 94 0
    endloop
  endfacet
  facet normal 0.748501 0.663133 0
    outer loop
      vertex 1.54181 95.8589 18
      vertex 0.272247 97.2919 0
      vertex 0.272247 97.2919 18
    endloop
  endfacet
  facet normal 0.748501 0.663133 0
    outer loop
      vertex 0.272247 97.2919 0
      vertex 1.54181 95.8589 18
      vertex 1.54181 95.8589 0
    endloop
  endfacet
  facet normal 0.354604 0.935017 -0
    outer loop
      vertex 0.272247 97.2919 0
      vertex -1.51787 97.9708 18
      vertex 0.272247 97.2919 18
    endloop
  endfacet
  facet normal 0.354604 0.935017 0
    outer loop
      vertex -1.51787 97.9708 18
      vertex 0.272247 97.2919 0
      vertex -1.51787 97.9708 0
    endloop
  endfacet
  facet normal -0.120502 0.992713 0
    outer loop
      vertex -1.51787 97.9708 0
      vertex -3.41841 97.7401 18
      vertex -1.51787 97.9708 18
    endloop
  endfacet
  facet normal -0.120502 0.992713 0
    outer loop
      vertex -3.41841 97.7401 18
      vertex -1.51787 97.9708 0
      vertex -3.41841 97.7401 0
    endloop
  endfacet
  facet normal -0.568075 0.822977 0
    outer loop
      vertex -3.41841 97.7401 0
      vertex -4.99403 96.6525 18
      vertex -3.41841 97.7401 18
    endloop
  endfacet
  facet normal -0.568075 0.822977 0
    outer loop
      vertex -4.99403 96.6525 18
      vertex -3.41841 97.7401 0
      vertex -4.99403 96.6525 0
    endloop
  endfacet
  facet normal -0.885452 0.464732 0
    outer loop
      vertex -5.88376 94.9573 0
      vertex -4.99403 96.6525 18
      vertex -4.99403 96.6525 0
    endloop
  endfacet
  facet normal -0.885452 0.464732 0
    outer loop
      vertex -4.99403 96.6525 18
      vertex -5.88376 94.9573 0
      vertex -5.88376 94.9573 18
    endloop
  endfacet
  facet normal -1 0 0
    outer loop
      vertex -5.88376 93.0427 0
      vertex -5.88376 94.9573 18
      vertex -5.88376 94.9573 0
    endloop
  endfacet
  facet normal -1 -0 0
    outer loop
      vertex -5.88376 94.9573 18
      vertex -5.88376 93.0427 0
      vertex -5.88376 93.0427 18
    endloop
  endfacet
  facet normal -0.885452 -0.464732 0
    outer loop
      vertex -4.99403 91.3475 0
      vertex -5.88376 93.0427 18
      vertex -5.88376 93.0427 0
    endloop
  endfacet
  facet normal -0.885452 -0.464732 0
    outer loop
      vertex -5.88376 93.0427 18
      vertex -4.99403 91.3475 0
      vertex -4.99403 91.3475 18
    endloop
  endfacet
  facet normal -0.568075 -0.822977 0
    outer loop
      vertex -4.99403 91.3475 0
      vertex -3.41841 90.2599 18
      vertex -4.99403 91.3475 18
    endloop
  endfacet
  facet normal -0.568075 -0.822977 -0
    outer loop
      vertex -3.41841 90.2599 18
      vertex -4.99403 91.3475 0
      vertex -3.41841 90.2599 0
    endloop
  endfacet
  facet normal -0.120519 -0.992711 0
    outer loop
      vertex -3.41841 90.2599 0
      vertex -2 90.0877 18
      vertex -3.41841 90.2599 18
    endloop
  endfacet
  facet normal -0.120519 -0.992711 -0
    outer loop
      vertex -2 90.0877 18
      vertex -3.41841 90.2599 0
      vertex -2 90.0877 0
    endloop
  endfacet
  facet normal 0.354756 -0.934959 0
    outer loop
      vertex 0 90.6048 2
      vertex 0.272247 90.7081 18
      vertex 0 90.6048 18
    endloop
  endfacet
  facet normal 0.354756 -0.934959 0
    outer loop
      vertex 0.272247 90.7081 18
      vertex 0 90.6048 2
      vertex 0.272247 90.7081 2
    endloop
  endfacet
  facet normal 1 -0 0
    outer loop
      vertex -2.97081 93.2947 18
      vertex -2.97081 94.7053 0
      vertex -2.97081 94.7053 18
    endloop
  endfacet
  facet normal 1 0 0
    outer loop
      vertex -2.97081 94.7053 0
      vertex -2.97081 93.2947 18
      vertex -2.97081 93.2947 0
    endloop
  endfacet
  facet normal 0.309067 -0.95104 0
    outer loop
      vertex -2.97081 94.7053 0
      vertex -1.62918 95.1413 18
      vertex -2.97081 94.7053 18
    endloop
  endfacet
  facet normal 0.309067 -0.95104 0
    outer loop
      vertex -1.62918 95.1413 18
      vertex -2.97081 94.7053 0
      vertex -1.62918 95.1413 0
    endloop
  endfacet
  facet normal -0.809026 -0.587773 0
    outer loop
      vertex -0.800003 94 0
      vertex -1.62918 95.1413 18
      vertex -1.62918 95.1413 0
    endloop
  endfacet
  facet normal -0.809026 -0.587773 0
    outer loop
      vertex -1.62918 95.1413 18
      vertex -0.800003 94 0
      vertex -0.800003 94 18
    endloop
  endfacet
  facet normal 0.309074 0.951038 -0
    outer loop
      vertex -2 92.9792 0
      vertex -2.97081 93.2947 18
      vertex -2 92.9792 18
    endloop
  endfacet
  facet normal 0.309074 0.951038 0
    outer loop
      vertex -2.97081 93.2947 18
      vertex -2 92.9792 0
      vertex -2.97081 93.2947 0
    endloop
  endfacet
  facet normal 0.748492 -0.663144 0
    outer loop
      vertex 76.2722 90.7081 18
      vertex 77.5418 92.1411 0
      vertex 77.5418 92.1411 18
    endloop
  endfacet
  facet normal 0.748492 -0.663144 0
    outer loop
      vertex 77.5418 92.1411 0
      vertex 76.2722 90.7081 18
      vertex 76.2722 90.7081 0
    endloop
  endfacet
  facet normal 0.970939 -0.239327 0
    outer loop
      vertex 77.5418 92.1411 18
      vertex 78 94 0
      vertex 78 94 18
    endloop
  endfacet
  facet normal 0.970939 -0.239327 0
    outer loop
      vertex 78 94 0
      vertex 77.5418 92.1411 18
      vertex 77.5418 92.1411 0
    endloop
  endfacet
  facet normal 0.970939 0.239327 0
    outer loop
      vertex 78 94 18
      vertex 77.5418 95.8589 0
      vertex 77.5418 95.8589 18
    endloop
  endfacet
  facet normal 0.970939 0.239327 0
    outer loop
      vertex 77.5418 95.8589 0
      vertex 78 94 18
      vertex 78 94 0
    endloop
  endfacet
  facet normal 0.748492 0.663144 0
    outer loop
      vertex 77.5418 95.8589 18
      vertex 76.2722 97.2919 0
      vertex 76.2722 97.2919 18
    endloop
  endfacet
  facet normal 0.748492 0.663144 0
    outer loop
      vertex 76.2722 97.2919 0
      vertex 77.5418 95.8589 18
      vertex 77.5418 95.8589 0
    endloop
  endfacet
  facet normal 0.354607 0.935015 -0
    outer loop
      vertex 76.2722 97.2919 0
      vertex 74.4821 97.9708 18
      vertex 76.2722 97.2919 18
    endloop
  endfacet
  facet normal 0.354607 0.935015 0
    outer loop
      vertex 74.4821 97.9708 18
      vertex 76.2722 97.2919 0
      vertex 74.4821 97.9708 0
    endloop
  endfacet
  facet normal -0.120505 0.992713 0
    outer loop
      vertex 74.4821 97.9708 0
      vertex 72.5816 97.7401 18
      vertex 74.4821 97.9708 18
    endloop
  endfacet
  facet normal -0.120505 0.992713 0
    outer loop
      vertex 72.5816 97.7401 18
      vertex 74.4821 97.9708 0
      vertex 72.5816 97.7401 0
    endloop
  endfacet
  facet normal -0.56808 0.822974 0
    outer loop
      vertex 72.5816 97.7401 0
      vertex 71.006 96.6525 18
      vertex 72.5816 97.7401 18
    endloop
  endfacet
  facet normal -0.56808 0.822974 0
    outer loop
      vertex 71.006 96.6525 18
      vertex 72.5816 97.7401 0
      vertex 71.006 96.6525 0
    endloop
  endfacet
  facet normal -0.885437 0.46476 0
    outer loop
      vertex 70.1162 94.9573 0
      vertex 71.006 96.6525 18
      vertex 71.006 96.6525 0
    endloop
  endfacet
  facet normal -0.885437 0.46476 0
    outer loop
      vertex 71.006 96.6525 18
      vertex 70.1162 94.9573 0
      vertex 70.1162 94.9573 18
    endloop
  endfacet
  facet normal -1 0 0
    outer loop
      vertex 70.1162 94 0
      vertex 70.1162 94.9573 18
      vertex 70.1162 94.9573 0
    endloop
  endfacet
  facet normal -1 -0 0
    outer loop
      vertex 70.1162 94.9573 18
      vertex 70.1162 94 0
      vertex 70.1162 94 18
    endloop
  endfacet
  facet normal -0.885433 -0.464767 0
    outer loop
      vertex 71.006 91.3475 2
      vertex 70.6635 92 18
      vertex 70.6635 92 2
    endloop
  endfacet
  facet normal -0.885433 -0.464767 0
    outer loop
      vertex 70.6635 92 18
      vertex 71.006 91.3475 2
      vertex 71.006 91.3475 18
    endloop
  endfacet
  facet normal -0.56806 -0.822987 0
    outer loop
      vertex 71.006 91.3475 2
      vertex 72 90.6614 18
      vertex 71.006 91.3475 18
    endloop
  endfacet
  facet normal -0.56806 -0.822987 -0
    outer loop
      vertex 72 90.6614 18
      vertex 71.006 91.3475 2
      vertex 72 90.6614 2
    endloop
  endfacet
  facet normal -0.120461 -0.992718 0
    outer loop
      vertex 74 90.0877 0
      vertex 74.4821 90.0292 18
      vertex 74 90.0877 18
    endloop
  endfacet
  facet normal -0.120461 -0.992718 -0
    outer loop
      vertex 74.4821 90.0292 18
      vertex 74 90.0877 0
      vertex 74.4821 90.0292 0
    endloop
  endfacet
  facet normal 0.354607 -0.935015 0
    outer loop
      vertex 74.4821 90.0292 0
      vertex 76.2722 90.7081 18
      vertex 74.4821 90.0292 18
    endloop
  endfacet
  facet normal 0.354607 -0.935015 0
    outer loop
      vertex 76.2722 90.7081 18
      vertex 74.4821 90.0292 0
      vertex 76.2722 90.7081 0
    endloop
  endfacet
  facet normal 1 -0 0
    outer loop
      vertex 73.0292 94 18
      vertex 73.0292 94.7053 0
      vertex 73.0292 94.7053 18
    endloop
  endfacet
  facet normal 1 0 0
    outer loop
      vertex 73.0292 94.7053 0
      vertex 73.0292 94 18
      vertex 73.0292 94 0
    endloop
  endfacet
  facet normal 0.309073 -0.951038 0
    outer loop
      vertex 73.0292 94.7053 0
      vertex 74.3708 95.1413 18
      vertex 73.0292 94.7053 18
    endloop
  endfacet
  facet normal 0.309073 -0.951038 0
    outer loop
      vertex 74.3708 95.1413 18
      vertex 73.0292 94.7053 0
      vertex 74.3708 95.1413 0
    endloop
  endfacet
  facet normal -0.809018 -0.587784 0
    outer loop
      vertex 75.2 94 0
      vertex 74.3708 95.1413 18
      vertex 74.3708 95.1413 0
    endloop
  endfacet
  facet normal -0.809018 -0.587784 0
    outer loop
      vertex 74.3708 95.1413 18
      vertex 75.2 94 0
      vertex 75.2 94 18
    endloop
  endfacet
  facet normal -0.809018 0.587784 0
    outer loop
      vertex 74.3708 92.8587 0
      vertex 75.2 94 18
      vertex 75.2 94 0
    endloop
  endfacet
  facet normal -0.809018 0.587784 0
    outer loop
      vertex 75.2 94 18
      vertex 74.3708 92.8587 0
      vertex 74.3708 92.8587 18
    endloop
  endfacet
  facet normal 0.309063 0.951042 -0
    outer loop
      vertex 74.3708 92.8587 0
      vertex 74 92.9792 18
      vertex 74.3708 92.8587 18
    endloop
  endfacet
  facet normal 0.309063 0.951042 0
    outer loop
      vertex 74 92.9792 18
      vertex 74.3708 92.8587 0
      vertex 74 92.9792 0
    endloop
  endfacet
  facet normal 0.748501 -0.663134 0
    outer loop
      vertex 76.2722 -5.29193 18
      vertex 77.5418 -3.85889 0
      vertex 77.5418 -3.85889 18
    endloop
  endfacet
  facet normal 0.748501 -0.663134 0
    outer loop
      vertex 77.5418 -3.85889 0
      vertex 76.2722 -5.29193 18
      vertex 76.2722 -5.29193 0
    endloop
  endfacet
  facet normal 0.970939 -0.239328 0
    outer loop
      vertex 77.5418 -3.85889 18
      vertex 78 -2 0
      vertex 78 -2 18
    endloop
  endfacet
  facet normal 0.970939 -0.239328 0
    outer loop
      vertex 78 -2 0
      vertex 77.5418 -3.85889 18
      vertex 77.5418 -3.85889 0
    endloop
  endfacet
  facet normal 0.970939 0.239328 0
    outer loop
      vertex 78 -2 18
      vertex 77.5418 -0.141113 0
      vertex 77.5418 -0.141113 18
    endloop
  endfacet
  facet normal 0.970939 0.239328 0
    outer loop
      vertex 77.5418 -0.141113 0
      vertex 78 -2 18
      vertex 78 -2 0
    endloop
  endfacet
  facet normal 0.748502 0.663133 0
    outer loop
      vertex 77.5418 -0.141113 18
      vertex 76.2722 1.29193 0
      vertex 76.2722 1.29193 18
    endloop
  endfacet
  facet normal 0.748502 0.663133 0
    outer loop
      vertex 76.2722 1.29193 0
      vertex 77.5418 -0.141113 18
      vertex 77.5418 -0.141113 0
    endloop
  endfacet
  facet normal 0.354607 0.935015 -0
    outer loop
      vertex 76.2722 1.29193 0
      vertex 74.4821 1.97083 18
      vertex 76.2722 1.29193 18
    endloop
  endfacet
  facet normal 0.354607 0.935015 0
    outer loop
      vertex 74.4821 1.97083 18
      vertex 76.2722 1.29193 0
      vertex 74.4821 1.97083 0
    endloop
  endfacet
  facet normal -0.120562 0.992706 0
    outer loop
      vertex 74.4821 1.97083 0
      vertex 74 1.91228 18
      vertex 74.4821 1.97083 18
    endloop
  endfacet
  facet normal -0.120562 0.992706 0
    outer loop
      vertex 74 1.91228 18
      vertex 74.4821 1.97083 0
      vertex 74 1.91228 0
    endloop
  endfacet
  facet normal -0.568076 0.822976 0
    outer loop
      vertex 72 1.33861 2
      vertex 71.006 0.652481 18
      vertex 72 1.33861 18
    endloop
  endfacet
  facet normal -0.568076 0.822976 0
    outer loop
      vertex 71.006 0.652481 18
      vertex 72 1.33861 2
      vertex 71.006 0.652481 2
    endloop
  endfacet
  facet normal -0.885427 0.464778 0
    outer loop
      vertex 70.6635 0 2
      vertex 71.006 0.652481 18
      vertex 71.006 0.652481 2
    endloop
  endfacet
  facet normal -0.885427 0.464778 0
    outer loop
      vertex 71.006 0.652481 18
      vertex 70.6635 0 2
      vertex 70.6635 0 18
    endloop
  endfacet
  facet normal -1 0 0
    outer loop
      vertex 70.1162 -2.95726 0
      vertex 70.1162 -2 18
      vertex 70.1162 -2 0
    endloop
  endfacet
  facet normal -1 -0 0
    outer loop
      vertex 70.1162 -2 18
      vertex 70.1162 -2.95726 0
      vertex 70.1162 -2.95726 18
    endloop
  endfacet
  facet normal -0.885439 -0.464756 0
    outer loop
      vertex 71.006 -4.65248 0
      vertex 70.1162 -2.95726 18
      vertex 70.1162 -2.95726 0
    endloop
  endfacet
  facet normal -0.885439 -0.464756 0
    outer loop
      vertex 70.1162 -2.95726 18
      vertex 71.006 -4.65248 0
      vertex 71.006 -4.65248 18
    endloop
  endfacet
  facet normal -0.568069 -0.822981 0
    outer loop
      vertex 71.006 -4.65248 0
      vertex 72.5816 -5.74005 18
      vertex 71.006 -4.65248 18
    endloop
  endfacet
  facet normal -0.568069 -0.822981 -0
    outer loop
      vertex 72.5816 -5.74005 18
      vertex 71.006 -4.65248 0
      vertex 72.5816 -5.74005 0
    endloop
  endfacet
  facet normal -0.120546 -0.992708 0
    outer loop
      vertex 72.5816 -5.74005 0
      vertex 74.4821 -5.97083 18
      vertex 72.5816 -5.74005 18
    endloop
  endfacet
  facet normal -0.120546 -0.992708 -0
    outer loop
      vertex 74.4821 -5.97083 18
      vertex 72.5816 -5.74005 0
      vertex 74.4821 -5.97083 0
    endloop
  endfacet
  facet normal 0.354607 -0.935015 0
    outer loop
      vertex 74.4821 -5.97083 0
      vertex 76.2722 -5.29193 18
      vertex 74.4821 -5.97083 18
    endloop
  endfacet
  facet normal 0.354607 -0.935015 0
    outer loop
      vertex 76.2722 -5.29193 18
      vertex 74.4821 -5.97083 0
      vertex 76.2722 -5.29193 0
    endloop
  endfacet
  facet normal 1 -0 0
    outer loop
      vertex 73.0292 -2.70534 18
      vertex 73.0292 -2 0
      vertex 73.0292 -2 18
    endloop
  endfacet
  facet normal 1 0 0
    outer loop
      vertex 73.0292 -2 0
      vertex 73.0292 -2.70534 18
      vertex 73.0292 -2.70534 0
    endloop
  endfacet
  facet normal 0.309035 -0.951051 0
    outer loop
      vertex 74 -0.979222 0
      vertex 74.3708 -0.858734 18
      vertex 74 -0.979222 18
    endloop
  endfacet
  facet normal 0.309035 -0.951051 0
    outer loop
      vertex 74.3708 -0.858734 18
      vertex 74 -0.979222 0
      vertex 74.3708 -0.858734 0
    endloop
  endfacet
  facet normal -0.80901 -0.587795 0
    outer loop
      vertex 75.2 -2 0
      vertex 74.3708 -0.858734 18
      vertex 74.3708 -0.858734 0
    endloop
  endfacet
  facet normal -0.80901 -0.587795 0
    outer loop
      vertex 74.3708 -0.858734 18
      vertex 75.2 -2 0
      vertex 75.2 -2 18
    endloop
  endfacet
  facet normal -0.809011 0.587794 0
    outer loop
      vertex 74.3708 -3.14127 0
      vertex 75.2 -2 18
      vertex 75.2 -2 0
    endloop
  endfacet
  facet normal -0.809011 0.587794 0
    outer loop
      vertex 75.2 -2 18
      vertex 74.3708 -3.14127 0
      vertex 74.3708 -3.14127 18
    endloop
  endfacet
  facet normal 0.309028 0.951053 -0
    outer loop
      vertex 74.3708 -3.14127 0
      vertex 73.0292 -2.70534 18
      vertex 74.3708 -3.14127 18
    endloop
  endfacet
  facet normal 0.309028 0.951053 0
    outer loop
      vertex 73.0292 -2.70534 18
      vertex 74.3708 -3.14127 0
      vertex 73.0292 -2.70534 0
    endloop
  endfacet
  facet normal 0 0 1
    outer loop
      vertex 65.006 6.65248 2
      vertex 8 4 2
      vertex 64.1162 4.95726 2
    endloop
  endfacet
  facet normal 0 0 1
    outer loop
      vertex 65.006 6.65248 2
      vertex 7.54181 5.85889 2
      vertex 8 4 2
    endloop
  endfacet
  facet normal -0 0 1
    outer loop
      vertex 6.27225 7.29193 2
      vertex 65.006 6.65248 2
      vertex 6.27225 84.7081 2
    endloop
  endfacet
  facet normal 0 0 1
    outer loop
      vertex 65.006 6.65248 2
      vertex 6.27225 7.29193 2
      vertex 7.54181 5.85889 2
    endloop
  endfacet
  facet normal -0 0 1
    outer loop
      vertex 4.48213 84.0292 2
      vertex 6.27225 7.29193 2
      vertex 6.27225 84.7081 2
    endloop
  endfacet
  facet normal 0 0 1
    outer loop
      vertex 4.48213 84.0292 2
      vertex 4.48213 7.97083 2
      vertex 6.27225 7.29193 2
    endloop
  endfacet
  facet normal 0 0 1
    outer loop
      vertex 2.58159 84.2599 2
      vertex 4.48213 7.97083 2
      vertex 4.48213 84.0292 2
    endloop
  endfacet
  facet normal 0 0 1
    outer loop
      vertex 2.58159 84.2599 2
      vertex 2.58159 7.74005 2
      vertex 4.48213 7.97083 2
    endloop
  endfacet
  facet normal 0 0 1
    outer loop
      vertex 1.00597 85.3475 2
      vertex 2.58159 7.74005 2
      vertex 2.58159 84.2599 2
    endloop
  endfacet
  facet normal 0 0 1
    outer loop
      vertex 1.00597 85.3475 2
      vertex 1.00597 6.65248 2
      vertex 2.58159 7.74005 2
    endloop
  endfacet
  facet normal 0 0 1
    outer loop
      vertex 0.116241 87.0427 2
      vertex 1.00597 6.65248 2
      vertex 1.00597 85.3475 2
    endloop
  endfacet
  facet normal 0 0 1
    outer loop
      vertex 1.00597 6.65248 2
      vertex 0.116241 87.0427 2
      vertex 0.116241 4.95726 2
    endloop
  endfacet
  facet normal 0 0 1
    outer loop
      vertex 72 90.6614 2
      vertex 71.5418 89.8589 2
      vertex 72 88 2
    endloop
  endfacet
  facet normal 0 0 1
    outer loop
      vertex 71.006 91.3475 2
      vertex 71.5418 89.8589 2
      vertex 72 90.6614 2
    endloop
  endfacet
  facet normal 0 0 1
    outer loop
      vertex 70.2722 91.2919 2
      vertex 71.006 91.3475 2
      vertex 70.6635 92 2
    endloop
  endfacet
  facet normal 0 0 1
    outer loop
      vertex 71.006 91.3475 2
      vertex 70.2722 91.2919 2
      vertex 71.5418 89.8589 2
    endloop
  endfacet
  facet normal 0 0 1
    outer loop
      vertex 70.6635 92 2
      vertex 68.4821 91.9708 2
      vertex 70.2722 91.2919 2
    endloop
  endfacet
  facet normal -0 0 1
    outer loop
      vertex 8 88 2
      vertex 64.1162 87.0427 2
      vertex 64.1162 88.9573 2
    endloop
  endfacet
  facet normal 0 0 1
    outer loop
      vertex 7.54181 86.1411 2
      vertex 64.1162 87.0427 2
      vertex 8 88 2
    endloop
  endfacet
  facet normal 0 0 1
    outer loop
      vertex 65.006 85.3475 2
      vertex 6.27225 84.7081 2
      vertex 65.006 6.65248 2
    endloop
  endfacet
  facet normal -0 0 1
    outer loop
      vertex 7.54181 89.8589 2
      vertex 64.1162 88.9573 2
      vertex 65.006 90.6525 2
    endloop
  endfacet
  facet normal -0 0 1
    outer loop
      vertex 6.27225 91.2919 2
      vertex 65.006 90.6525 2
      vertex 66.5816 91.7401 2
    endloop
  endfacet
  facet normal -0 0 1
    outer loop
      vertex 4.48213 91.9708 2
      vertex 66.5816 91.7401 2
      vertex 68.4821 91.9708 2
    endloop
  endfacet
  facet normal 0 0 1
    outer loop
      vertex 64.1162 88.9573 2
      vertex 7.54181 89.8589 2
      vertex 8 88 2
    endloop
  endfacet
  facet normal 0 0 1
    outer loop
      vertex 65.006 90.6525 2
      vertex 6.27225 91.2919 2
      vertex 7.54181 89.8589 2
    endloop
  endfacet
  facet normal 0 0 1
    outer loop
      vertex 4.48213 91.9708 2
      vertex 68.4821 91.9708 2
      vertex 70.6635 92 2
    endloop
  endfacet
  facet normal 0 0 1
    outer loop
      vertex 66.5816 91.7401 2
      vertex 4.48213 91.9708 2
      vertex 6.27225 91.2919 2
    endloop
  endfacet
  facet normal -0 0 1
    outer loop
      vertex 1.41679 92 2
      vertex 4.48213 91.9708 2
      vertex 70.6635 92 2
    endloop
  endfacet
  facet normal 0 0 1
    outer loop
      vertex 1.41679 92 2
      vertex 2.58159 91.7401 2
      vertex 4.48213 91.9708 2
    endloop
  endfacet
  facet normal 0 0 1
    outer loop
      vertex 1.41679 92 2
      vertex 1.00597 90.6525 2
      vertex 2.58159 91.7401 2
    endloop
  endfacet
  facet normal -0 0 1
    outer loop
      vertex 0.272247 90.7081 2
      vertex 1.00597 90.6525 2
      vertex 1.41679 92 2
    endloop
  endfacet
  facet normal 0 0 1
    outer loop
      vertex 0.272247 90.7081 2
      vertex 0.116241 88.9573 2
      vertex 1.00597 90.6525 2
    endloop
  endfacet
  facet normal 0 0 1
    outer loop
      vertex 0 90.6048 2
      vertex 0.116241 87.0427 2
      vertex 0.116241 88.9573 2
    endloop
  endfacet
  facet normal 0 0 1
    outer loop
      vertex 0.116241 87.0427 2
      vertex 0 90.6048 2
      vertex 0.116241 4.95726 2
    endloop
  endfacet
  facet normal 0 0 1
    outer loop
      vertex 0 1.39518 2
      vertex 0.116241 4.95726 2
      vertex 0 90.6048 2
    endloop
  endfacet
  facet normal -0 0 1
    outer loop
      vertex 0 90.6048 2
      vertex 0.116241 88.9573 2
      vertex 0.272247 90.7081 2
    endloop
  endfacet
  facet normal -0 0 1
    outer loop
      vertex 71.5418 86.1411 2
      vertex 72 4 2
      vertex 72 88 2
    endloop
  endfacet
  facet normal 0 0 1
    outer loop
      vertex 71.5418 86.1411 2
      vertex 71.5418 5.85889 2
      vertex 72 4 2
    endloop
  endfacet
  facet normal -0 0 1
    outer loop
      vertex 70.2722 84.7081 2
      vertex 71.5418 5.85889 2
      vertex 71.5418 86.1411 2
    endloop
  endfacet
  facet normal 0 0 1
    outer loop
      vertex 70.2722 84.7081 2
      vertex 70.2722 7.29193 2
      vertex 71.5418 5.85889 2
    endloop
  endfacet
  facet normal -0 0 1
    outer loop
      vertex 68.4821 84.0292 2
      vertex 70.2722 7.29193 2
      vertex 70.2722 84.7081 2
    endloop
  endfacet
  facet normal 0 0 1
    outer loop
      vertex 68.4821 84.0292 2
      vertex 68.4821 7.97083 2
      vertex 70.2722 7.29193 2
    endloop
  endfacet
  facet normal 0 0 1
    outer loop
      vertex 66.5816 84.2599 2
      vertex 68.4821 7.97083 2
      vertex 68.4821 84.0292 2
    endloop
  endfacet
  facet normal 0 0 1
    outer loop
      vertex 66.5816 84.2599 2
      vertex 66.5816 7.74005 2
      vertex 68.4821 7.97083 2
    endloop
  endfacet
  facet normal 0 0 1
    outer loop
      vertex 65.006 85.3475 2
      vertex 66.5816 7.74005 2
      vertex 66.5816 84.2599 2
    endloop
  endfacet
  facet normal 0 0 1
    outer loop
      vertex 65.006 85.3475 2
      vertex 65.006 6.65248 2
      vertex 66.5816 7.74005 2
    endloop
  endfacet
  facet normal -0 0 1
    outer loop
      vertex 7.54181 86.1411 2
      vertex 65.006 85.3475 2
      vertex 64.1162 87.0427 2
    endloop
  endfacet
  facet normal 0 0 1
    outer loop
      vertex 6.27225 84.7081 2
      vertex 65.006 85.3475 2
      vertex 7.54181 86.1411 2
    endloop
  endfacet
  facet normal -0 0 1
    outer loop
      vertex 71.5418 2.14111 2
      vertex 72 1.33861 2
      vertex 72 4 2
    endloop
  endfacet
  facet normal 0 0 1
    outer loop
      vertex 71.5418 2.14111 2
      vertex 71.006 0.652481 2
      vertex 72 1.33861 2
    endloop
  endfacet
  facet normal -0 0 1
    outer loop
      vertex 70.2722 0.708069 2
      vertex 71.006 0.652481 2
      vertex 71.5418 2.14111 2
    endloop
  endfacet
  facet normal 0 0 1
    outer loop
      vertex 71.006 0.652481 2
      vertex 70.2722 0.708069 2
      vertex 70.6635 0 2
    endloop
  endfacet
  facet normal -0 0 1
    outer loop
      vertex 68.4821 0.0291748 2
      vertex 70.6635 0 2
      vertex 70.2722 0.708069 2
    endloop
  endfacet
  facet normal 0 0 1
    outer loop
      vertex 64.1162 4.95726 2
      vertex 8 4 2
      vertex 64.1162 3.04274 2
    endloop
  endfacet
  facet normal 0 0 1
    outer loop
      vertex 7.54181 2.14111 2
      vertex 64.1162 3.04274 2
      vertex 8 4 2
    endloop
  endfacet
  facet normal 0 0 1
    outer loop
      vertex 64.1162 3.04274 2
      vertex 7.54181 2.14111 2
      vertex 65.006 1.34752 2
    endloop
  endfacet
  facet normal 0 0 1
    outer loop
      vertex 6.27225 0.708069 2
      vertex 65.006 1.34752 2
      vertex 7.54181 2.14111 2
    endloop
  endfacet
  facet normal 0 0 1
    outer loop
      vertex 65.006 1.34752 2
      vertex 6.27225 0.708069 2
      vertex 66.5816 0.259949 2
    endloop
  endfacet
  facet normal 0 0 1
    outer loop
      vertex 4.48213 0.0291748 2
      vertex 66.5816 0.259949 2
      vertex 6.27225 0.708069 2
    endloop
  endfacet
  facet normal 0 0 1
    outer loop
      vertex 66.5816 0.259949 2
      vertex 4.48213 0.0291748 2
      vertex 68.4821 0.0291748 2
    endloop
  endfacet
  facet normal 0 0 1
    outer loop
      vertex 68.4821 0.0291748 2
      vertex 4.48213 0.0291748 2
      vertex 70.6635 0 2
    endloop
  endfacet
  facet normal 0 0 1
    outer loop
      vertex 4.48213 0.0291748 2
      vertex 1.41679 0 2
      vertex 70.6635 0 2
    endloop
  endfacet
  facet normal 0 0 1
    outer loop
      vertex 2.58159 0.259949 2
      vertex 1.41679 0 2
      vertex 4.48213 0.0291748 2
    endloop
  endfacet
  facet normal 0 0 1
    outer loop
      vertex 1.00597 1.34752 2
      vertex 1.41679 0 2
      vertex 2.58159 0.259949 2
    endloop
  endfacet
  facet normal 0 0 1
    outer loop
      vertex 1.00597 1.34752 2
      vertex 0.272247 1.29193 2
      vertex 1.41679 0 2
    endloop
  endfacet
  facet normal 0 0 1
    outer loop
      vertex 0.116241 3.04274 2
      vertex 0.272247 1.29193 2
      vertex 1.00597 1.34752 2
    endloop
  endfacet
  facet normal 0 0 1
    outer loop
      vertex 0.116241 3.04274 2
      vertex 0 1.39518 2
      vertex 0.272247 1.29193 2
    endloop
  endfacet
  facet normal 0 0 1
    outer loop
      vertex 0.116241 4.95726 2
      vertex 0 1.39518 2
      vertex 0.116241 3.04274 2
    endloop
  endfacet
  facet normal 0 0 1
    outer loop
      vertex 4.37082 89.1413 2
      vertex 4.37082 86.8587 2
      vertex 5.2 88 2
    endloop
  endfacet
  facet normal -0 0 1
    outer loop
      vertex 3.02919 88.7053 2
      vertex 4.37082 86.8587 2
      vertex 4.37082 89.1413 2
    endloop
  endfacet
  facet normal 0 0 1
    outer loop
      vertex 4.37082 86.8587 2
      vertex 3.02919 88.7053 2
      vertex 3.02919 87.2947 2
    endloop
  endfacet
  facet normal 0 0 1
    outer loop
      vertex 4.37082 5.14127 2
      vertex 4.37082 2.85873 2
      vertex 5.2 4 2
    endloop
  endfacet
  facet normal -0 0 1
    outer loop
      vertex 3.02919 4.70534 2
      vertex 4.37082 2.85873 2
      vertex 4.37082 5.14127 2
    endloop
  endfacet
  facet normal 0 0 1
    outer loop
      vertex 4.37082 2.85873 2
      vertex 3.02919 4.70534 2
      vertex 3.02919 3.29466 2
    endloop
  endfacet
  facet normal 0 0 1
    outer loop
      vertex 68.3708 89.1413 2
      vertex 68.3708 86.8587 2
      vertex 69.2 88 2
    endloop
  endfacet
  facet normal -0 0 1
    outer loop
      vertex 67.0292 88.7053 2
      vertex 68.3708 86.8587 2
      vertex 68.3708 89.1413 2
    endloop
  endfacet
  facet normal 0 0 1
    outer loop
      vertex 68.3708 86.8587 2
      vertex 67.0292 88.7053 2
      vertex 67.0292 87.2947 2
    endloop
  endfacet
  facet normal 0 0 1
    outer loop
      vertex 68.3708 5.14127 2
      vertex 68.3708 2.85873 2
      vertex 69.2 4 2
    endloop
  endfacet
  facet normal -0 0 1
    outer loop
      vertex 67.0292 4.70534 2
      vertex 68.3708 2.85873 2
      vertex 68.3708 5.14127 2
    endloop
  endfacet
  facet normal 0 0 1
    outer loop
      vertex 68.3708 2.85873 2
      vertex 67.0292 4.70534 2
      vertex 67.0292 3.29466 2
    endloop
  endfacet
  facet normal 0 1 -0
    outer loop
      vertex -0.800003 94 0
      vertex -2 94 18
      vertex -0.800003 94 18
    endloop
  endfacet
  facet normal 0 1 0
    outer loop
      vertex -2 94 18
      vertex -0.800003 94 0
      vertex -2 94 0
    endloop
  endfacet
  facet normal 0 1 -0
    outer loop
      vertex 70.1162 94 0
      vertex 2 94 18
      vertex 70.1162 94 18
    endloop
  endfacet
  facet normal 0 1 0
    outer loop
      vertex 2 94 18
      vertex 70.1162 94 0
      vertex 2 94 0
    endloop
  endfacet
  facet normal 0 1 -0
    outer loop
      vertex 74 94 0
      vertex 73.0292 94 18
      vertex 74 94 18
    endloop
  endfacet
  facet normal 0 1 0
    outer loop
      vertex 73.0292 94 18
      vertex 74 94 0
      vertex 73.0292 94 0
    endloop
  endfacet
  facet normal -1 0 0
    outer loop
      vertex -2 92.9792 0
      vertex -2 94 18
      vertex -2 94 0
    endloop
  endfacet
  facet normal -1 -0 0
    outer loop
      vertex -2 94 18
      vertex -2 92.9792 0
      vertex -2 92.9792 18
    endloop
  endfacet
  facet normal -1 0 0
    outer loop
      vertex -2 -2 0
      vertex -2 -0.979222 18
      vertex -2 -0.979222 0
    endloop
  endfacet
  facet normal -1 -0 0
    outer loop
      vertex -2 -0.979222 18
      vertex -2 -2 0
      vertex -2 -2 18
    endloop
  endfacet
  facet normal -1 0 0
    outer loop
      vertex -2 1.91228 0
      vertex -2 90.0877 18
      vertex -2 90.0877 0
    endloop
  endfacet
  facet normal -1 -0 0
    outer loop
      vertex -2 90.0877 18
      vertex -2 1.91228 0
      vertex -2 1.91228 18
    endloop
  endfacet
  facet normal 0 -1 0
    outer loop
      vertex -2 -2 0
      vertex -0.800003 -2 18
      vertex -2 -2 18
    endloop
  endfacet
  facet normal 0 -1 -0
    outer loop
      vertex -0.800003 -2 18
      vertex -2 -2 0
      vertex -0.800003 -2 0
    endloop
  endfacet
  facet normal 0 -1 0
    outer loop
      vertex 2 -2 0
      vertex 70.1162 -2 18
      vertex 2 -2 18
    endloop
  endfacet
  facet normal 0 -1 -0
    outer loop
      vertex 70.1162 -2 18
      vertex 2 -2 0
      vertex 70.1162 -2 0
    endloop
  endfacet
  facet normal 0 -1 0
    outer loop
      vertex 73.0292 -2 0
      vertex 74 -2 18
      vertex 73.0292 -2 18
    endloop
  endfacet
  facet normal 0 -1 -0
    outer loop
      vertex 74 -2 18
      vertex 73.0292 -2 0
      vertex 74 -2 0
    endloop
  endfacet
  facet normal 1 -0 0
    outer loop
      vertex 74 -2 18
      vertex 74 -0.979222 0
      vertex 74 -0.979222 18
    endloop
  endfacet
  facet normal 1 0 0
    outer loop
      vertex 74 -0.979222 0
      vertex 74 -2 18
      vertex 74 -2 0
    endloop
  endfacet
  facet normal 1 -0 0
    outer loop
      vertex 74 92.9792 18
      vertex 74 94 0
      vertex 74 94 18
    endloop
  endfacet
  facet normal 1 0 0
    outer loop
      vertex 74 94 0
      vertex 74 92.9792 18
      vertex 74 92.9792 0
    endloop
  endfacet
  facet normal 1 -0 0
    outer loop
      vertex 74 1.91228 18
      vertex 74 90.0877 0
      vertex 74 90.0877 18
    endloop
  endfacet
  facet normal 1 0 0
    outer loop
      vertex 74 90.0877 0
      vertex 74 1.91228 18
      vertex 74 1.91228 0
    endloop
  endfacet
  facet normal 1 -0 0
    outer loop
      vertex 0 1.39518 18
      vertex 0 90.6048 2
      vertex 0 90.6048 18
    endloop
  endfacet
  facet normal 1 0 0
    outer loop
      vertex 0 90.6048 2
      vertex 0 1.39518 18
      vertex 0 1.39518 2
    endloop
  endfacet
  facet normal 0 -1 0
    outer loop
      vertex 1.41679 92 2
      vertex 70.6635 92 18
      vertex 1.41679 92 18
    endloop
  endfacet
  facet normal 0 -1 -0
    outer loop
      vertex 70.6635 92 18
      vertex 1.41679 92 2
      vertex 70.6635 92 2
    endloop
  endfacet
  facet normal -1 0 0
    outer loop
      vertex 72 88 2
      vertex 72 90.6614 18
      vertex 72 90.6614 2
    endloop
  endfacet
  facet normal -1 0 0
    outer loop
      vertex 72 4 2
      vertex 72 90.6614 18
      vertex 72 88 2
    endloop
  endfacet
  facet normal -1 0 0
    outer loop
      vertex 72 1.33861 18
      vertex 72 4 2
      vertex 72 1.33861 2
    endloop
  endfacet
  facet normal -1 0 0
    outer loop
      vertex 72 4 2
      vertex 72 1.33861 18
      vertex 72 90.6614 18
    endloop
  endfacet
  facet normal 0 1 -0
    outer loop
      vertex 70.6635 0 2
      vertex 1.41679 0 18
      vertex 70.6635 0 18
    endloop
  endfacet
  facet normal 0 1 0
    outer loop
      vertex 1.41679 0 18
      vertex 70.6635 0 2
      vertex 1.41679 0 2
    endloop
  endfacet
endsolid OpenSCAD_Model
