solid OpenSCAD_Model
  facet normal 0 0 -1
    outer loop
      vertex -5.41841 92.2599 0
      vertex -4 94.9792 0
      vertex -4 92.0877 0
    endloop
  endfacet
  facet normal 0 0 -1
    outer loop
      vertex -6.99403 93.3475 0
      vertex -4.97081 95.2947 0
      vertex -5.41841 92.2599 0
    endloop
  endfacet
  facet normal -0 0 -1
    outer loop
      vertex -4 94.9792 0
      vertex -5.41841 92.2599 0
      vertex -4.97081 95.2947 0
    endloop
  endfacet
  facet normal 0 0 -1
    outer loop
      vertex -5.41841 -0.259949 0
      vertex -4 -2.97922 0
      vertex -4.97081 -3.29466 0
    endloop
  endfacet
  facet normal 0 0 -1
    outer loop
      vertex -4 -2.97922 0
      vertex -5.41841 -0.259949 0
      vertex -4 -0.0877178 0
    endloop
  endfacet
  facet normal 0 0 -1
    outer loop
      vertex -7.88376 -4.95726 0
      vertex -4.97081 -4.70534 0
      vertex -6.99403 -6.65248 0
    endloop
  endfacet
  facet normal -0 0 -1
    outer loop
      vertex -4.97081 -4.70534 0
      vertex -7.88376 -4.95726 0
      vertex -4.97081 -3.29466 0
    endloop
  endfacet
  facet normal 0 0 -1
    outer loop
      vertex -4.97081 -3.29466 0
      vertex -6.99403 -1.34752 0
      vertex -5.41841 -0.259949 0
    endloop
  endfacet
  facet normal 0 0 -1
    outer loop
      vertex -7.88376 -3.04274 0
      vertex -4.97081 -3.29466 0
      vertex -7.88376 -4.95726 0
    endloop
  endfacet
  facet normal 0 0 -1
    outer loop
      vertex -4.97081 -3.29466 0
      vertex -7.88376 -3.04274 0
      vertex -6.99403 -1.34752 0
    endloop
  endfacet
  facet normal 0 0 -1
    outer loop
      vertex -4 -2.97922 0
      vertex -2.8 -4 0
      vertex -4 -4 0
    endloop
  endfacet
  facet normal 0 0 -1
    outer loop
      vertex -4 -0.0877178 0
      vertex -2.8 -4 0
      vertex -4 -2.97922 0
    endloop
  endfacet
  facet normal 0 0 -1
    outer loop
      vertex -2.8 -4 0
      vertex -4 -0.0877178 0
      vertex -2.8 96 0
    endloop
  endfacet
  facet normal 0 0 -1
    outer loop
      vertex -4 92.0877 0
      vertex -2.8 96 0
      vertex -4 -0.0877178 0
    endloop
  endfacet
  facet normal 0 0 -1
    outer loop
      vertex -4 94.9792 0
      vertex -2.8 96 0
      vertex -4 92.0877 0
    endloop
  endfacet
  facet normal -0 0 -1
    outer loop
      vertex -2.8 96 0
      vertex -4 94.9792 0
      vertex -4 96 0
    endloop
  endfacet
  facet normal 0 0 -1
    outer loop
      vertex 0 96 0
      vertex 76 92.0877 0
      vertex 0 -4 0
    endloop
  endfacet
  facet normal 0 0 -1
    outer loop
      vertex 76 92.0877 0
      vertex 0 96 0
      vertex 72.1162 96 0
    endloop
  endfacet
  facet normal 0 0 -1
    outer loop
      vertex -2.8 -4 0
      vertex 0 -4 0
      vertex -0.458191 -5.85889 0
    endloop
  endfacet
  facet normal 0 0 -1
    outer loop
      vertex 0 -4 0
      vertex -2.8 -4 0
      vertex 0 96 0
    endloop
  endfacet
  facet normal 0 0 -1
    outer loop
      vertex -3.62918 -5.14127 0
      vertex -0.458191 -5.85889 0
      vertex -1.72775 -7.29193 0
    endloop
  endfacet
  facet normal 0 0 -1
    outer loop
      vertex -2.8 96 0
      vertex 0 96 0
      vertex -2.8 -4 0
    endloop
  endfacet
  facet normal 0 0 -1
    outer loop
      vertex 0 96 0
      vertex -2.8 96 0
      vertex -0.458191 97.8589 0
    endloop
  endfacet
  facet normal 0 0 -1
    outer loop
      vertex -3.62918 -5.14127 0
      vertex -1.72775 -7.29193 0
      vertex -3.51787 -7.97083 0
    endloop
  endfacet
  facet normal 0 0 -1
    outer loop
      vertex -0.458191 -5.85889 0
      vertex -3.62918 -5.14127 0
      vertex -2.8 -4 0
    endloop
  endfacet
  facet normal 0 0 -1
    outer loop
      vertex -5.41841 -7.74005 0
      vertex -3.62918 -5.14127 0
      vertex -3.51787 -7.97083 0
    endloop
  endfacet
  facet normal 0 0 -1
    outer loop
      vertex -6.99403 -6.65248 0
      vertex -4.97081 -4.70534 0
      vertex -5.41841 -7.74005 0
    endloop
  endfacet
  facet normal -0 0 -1
    outer loop
      vertex -3.62918 -5.14127 0
      vertex -5.41841 -7.74005 0
      vertex -4.97081 -4.70534 0
    endloop
  endfacet
  facet normal 0 0 -1
    outer loop
      vertex -3.62918 97.1413 0
      vertex -0.458191 97.8589 0
      vertex -2.8 96 0
    endloop
  endfacet
  facet normal -0 0 -1
    outer loop
      vertex -0.458191 97.8589 0
      vertex -3.62918 97.1413 0
      vertex -1.72775 99.2919 0
    endloop
  endfacet
  facet normal -0 0 -1
    outer loop
      vertex -1.72775 99.2919 0
      vertex -3.62918 97.1413 0
      vertex -3.51787 99.9708 0
    endloop
  endfacet
  facet normal 0 0 -1
    outer loop
      vertex -5.41841 99.7401 0
      vertex -3.62918 97.1413 0
      vertex -4.97081 96.7053 0
    endloop
  endfacet
  facet normal 0 0 -1
    outer loop
      vertex -3.62918 97.1413 0
      vertex -5.41841 99.7401 0
      vertex -3.51787 99.9708 0
    endloop
  endfacet
  facet normal 0 0 -1
    outer loop
      vertex -7.88376 95.0427 0
      vertex -4.97081 95.2947 0
      vertex -6.99403 93.3475 0
    endloop
  endfacet
  facet normal -0 0 -1
    outer loop
      vertex -4.97081 95.2947 0
      vertex -7.88376 95.0427 0
      vertex -4.97081 96.7053 0
    endloop
  endfacet
  facet normal 0 0 -1
    outer loop
      vertex -4.97081 96.7053 0
      vertex -6.99403 98.6525 0
      vertex -5.41841 99.7401 0
    endloop
  endfacet
  facet normal 0 0 -1
    outer loop
      vertex -7.88376 96.9573 0
      vertex -4.97081 96.7053 0
      vertex -7.88376 95.0427 0
    endloop
  endfacet
  facet normal 0 0 -1
    outer loop
      vertex -4.97081 96.7053 0
      vertex -7.88376 96.9573 0
      vertex -6.99403 98.6525 0
    endloop
  endfacet
  facet normal 0 0 -1
    outer loop
      vertex 75.0292 -4 0
      vertex 76 -2.97922 0
      vertex 76 -4 0
    endloop
  endfacet
  facet normal 0 0 -1
    outer loop
      vertex 72.1162 -4 0
      vertex 76 -2.97922 0
      vertex 75.0292 -4 0
    endloop
  endfacet
  facet normal -0 0 -1
    outer loop
      vertex 76 -2.97922 0
      vertex 72.1162 -4 0
      vertex 76 -0.0877178 0
    endloop
  endfacet
  facet normal 0 0 -1
    outer loop
      vertex 0 -4 0
      vertex 76 -0.0877178 0
      vertex 72.1162 -4 0
    endloop
  endfacet
  facet normal -0 0 -1
    outer loop
      vertex 76 -0.0877178 0
      vertex 0 -4 0
      vertex 76 92.0877 0
    endloop
  endfacet
  facet normal 0 0 -1
    outer loop
      vertex 76 94.9792 0
      vertex 75.0292 96 0
      vertex 76 96 0
    endloop
  endfacet
  facet normal 0 0 -1
    outer loop
      vertex 77.2 -4 0
      vertex 80 -4 0
      vertex 79.5418 -5.85889 0
    endloop
  endfacet
  facet normal 0 0 -1
    outer loop
      vertex 76.3708 -5.14127 0
      vertex 79.5418 -5.85889 0
      vertex 78.2722 -7.29193 0
    endloop
  endfacet
  facet normal 0 0 -1
    outer loop
      vertex 80 -4 0
      vertex 77.2 -4 0
      vertex 79.5418 -2.14111 0
    endloop
  endfacet
  facet normal 0 0 -1
    outer loop
      vertex 76.3708 -2.85873 0
      vertex 79.5418 -2.14111 0
      vertex 77.2 -4 0
    endloop
  endfacet
  facet normal 0 0 -1
    outer loop
      vertex 76.3708 -5.14127 0
      vertex 78.2722 -7.29193 0
      vertex 76.4821 -7.97083 0
    endloop
  endfacet
  facet normal 0 0 -1
    outer loop
      vertex 79.5418 -5.85889 0
      vertex 76.3708 -5.14127 0
      vertex 77.2 -4 0
    endloop
  endfacet
  facet normal 0 0 -1
    outer loop
      vertex 74.5816 -7.74005 0
      vertex 76.3708 -5.14127 0
      vertex 76.4821 -7.97083 0
    endloop
  endfacet
  facet normal 0 0 -1
    outer loop
      vertex 72.1162 -4 0
      vertex 75.0292 -4 0
      vertex 75.0292 -4.70534 0
    endloop
  endfacet
  facet normal 0 0 -1
    outer loop
      vertex 76 92.0877 0
      vertex 72.1162 96 0
      vertex 76 94.9792 0
    endloop
  endfacet
  facet normal 0 0 -1
    outer loop
      vertex 73.006 -6.65248 0
      vertex 75.0292 -4.70534 0
      vertex 74.5816 -7.74005 0
    endloop
  endfacet
  facet normal -0 0 -1
    outer loop
      vertex 76.3708 -5.14127 0
      vertex 74.5816 -7.74005 0
      vertex 75.0292 -4.70534 0
    endloop
  endfacet
  facet normal -0 0 -1
    outer loop
      vertex 79.5418 -2.14111 0
      vertex 76.3708 -2.85873 0
      vertex 78.2722 -0.708069 0
    endloop
  endfacet
  facet normal -0 0 -1
    outer loop
      vertex 78.2722 -0.708069 0
      vertex 76.3708 -2.85873 0
      vertex 76.4821 -0.0291748 0
    endloop
  endfacet
  facet normal 0 0 -1
    outer loop
      vertex 76 -0.0877178 0
      vertex 76.3708 -2.85873 0
      vertex 76 -2.97922 0
    endloop
  endfacet
  facet normal 0 0 -1
    outer loop
      vertex 76.3708 -2.85873 0
      vertex 76 -0.0877178 0
      vertex 76.4821 -0.0291748 0
    endloop
  endfacet
  facet normal 0 0 -1
    outer loop
      vertex 77.2 96 0
      vertex 80 96 0
      vertex 79.5418 94.1411 0
    endloop
  endfacet
  facet normal 0 0 -1
    outer loop
      vertex 76.3708 94.8587 0
      vertex 79.5418 94.1411 0
      vertex 78.2722 92.7081 0
    endloop
  endfacet
  facet normal 0 0 -1
    outer loop
      vertex 80 96 0
      vertex 77.2 96 0
      vertex 79.5418 97.8589 0
    endloop
  endfacet
  facet normal 0 0 -1
    outer loop
      vertex 76.3708 97.1413 0
      vertex 79.5418 97.8589 0
      vertex 77.2 96 0
    endloop
  endfacet
  facet normal 0 0 -1
    outer loop
      vertex 76.3708 94.8587 0
      vertex 78.2722 92.7081 0
      vertex 76.4821 92.0292 0
    endloop
  endfacet
  facet normal 0 0 -1
    outer loop
      vertex 79.5418 94.1411 0
      vertex 76.3708 94.8587 0
      vertex 77.2 96 0
    endloop
  endfacet
  facet normal 0 0 -1
    outer loop
      vertex 76 92.0877 0
      vertex 76.3708 94.8587 0
      vertex 76.4821 92.0292 0
    endloop
  endfacet
  facet normal -0 0 -1
    outer loop
      vertex 76.3708 94.8587 0
      vertex 76 92.0877 0
      vertex 76 94.9792 0
    endloop
  endfacet
  facet normal -0 0 -1
    outer loop
      vertex 79.5418 97.8589 0
      vertex 76.3708 97.1413 0
      vertex 78.2722 99.2919 0
    endloop
  endfacet
  facet normal -0 0 -1
    outer loop
      vertex 78.2722 99.2919 0
      vertex 76.3708 97.1413 0
      vertex 76.4821 99.9708 0
    endloop
  endfacet
  facet normal 0 0 -1
    outer loop
      vertex 74.5816 99.7401 0
      vertex 76.3708 97.1413 0
      vertex 75.0292 96.7053 0
    endloop
  endfacet
  facet normal 0 0 -1
    outer loop
      vertex 76.3708 97.1413 0
      vertex 74.5816 99.7401 0
      vertex 76.4821 99.9708 0
    endloop
  endfacet
  facet normal 0 0 -1
    outer loop
      vertex 76 94.9792 0
      vertex 72.1162 96 0
      vertex 75.0292 96 0
    endloop
  endfacet
  facet normal 0 0 -1
    outer loop
      vertex 72.1162 -4.95726 0
      vertex 75.0292 -4.70534 0
      vertex 73.006 -6.65248 0
    endloop
  endfacet
  facet normal 0 0 -1
    outer loop
      vertex 75.0292 96 0
      vertex 72.1162 96 0
      vertex 75.0292 96.7053 0
    endloop
  endfacet
  facet normal -0 0 -1
    outer loop
      vertex 75.0292 -4.70534 0
      vertex 72.1162 -4.95726 0
      vertex 72.1162 -4 0
    endloop
  endfacet
  facet normal 0 0 -1
    outer loop
      vertex 72.1162 96.9573 0
      vertex 75.0292 96.7053 0
      vertex 72.1162 96 0
    endloop
  endfacet
  facet normal 0 0 -1
    outer loop
      vertex 75.0292 96.7053 0
      vertex 73.006 98.6525 0
      vertex 74.5816 99.7401 0
    endloop
  endfacet
  facet normal 0 0 -1
    outer loop
      vertex 75.0292 96.7053 0
      vertex 72.1162 96.9573 0
      vertex 73.006 98.6525 0
    endloop
  endfacet
  facet normal 0 0 1
    outer loop
      vertex 5.2 4 7
      vertex 8 4 7
      vertex 7.54181 5.85889 7
    endloop
  endfacet
  facet normal 0 0 1
    outer loop
      vertex 4.37082 5.14127 7
      vertex 7.54181 5.85889 7
      vertex 6.27225 7.29193 7
    endloop
  endfacet
  facet normal 0 0 1
    outer loop
      vertex 8 4 7
      vertex 5.2 4 7
      vertex 7.54181 2.14111 7
    endloop
  endfacet
  facet normal -0 0 1
    outer loop
      vertex 4.37082 2.85873 7
      vertex 7.54181 2.14111 7
      vertex 5.2 4 7
    endloop
  endfacet
  facet normal 0 0 1
    outer loop
      vertex 4.37082 5.14127 7
      vertex 6.27225 7.29193 7
      vertex 4.48213 7.97083 7
    endloop
  endfacet
  facet normal 0 0 1
    outer loop
      vertex 7.54181 5.85889 7
      vertex 4.37082 5.14127 7
      vertex 5.2 4 7
    endloop
  endfacet
  facet normal -0 0 1
    outer loop
      vertex 2.58159 7.74005 7
      vertex 4.37082 5.14127 7
      vertex 4.48213 7.97083 7
    endloop
  endfacet
  facet normal -0 0 1
    outer loop
      vertex 1.00597 6.65248 7
      vertex 3.02919 4.70534 7
      vertex 2.58159 7.74005 7
    endloop
  endfacet
  facet normal 0 0 1
    outer loop
      vertex 4.37082 5.14127 7
      vertex 2.58159 7.74005 7
      vertex 3.02919 4.70534 7
    endloop
  endfacet
  facet normal 0 0 1
    outer loop
      vertex 7.54181 2.14111 7
      vertex 4.37082 2.85873 7
      vertex 6.27225 0.708069 7
    endloop
  endfacet
  facet normal 0 0 1
    outer loop
      vertex 6.27225 0.708069 7
      vertex 4.37082 2.85873 7
      vertex 4.48213 0.0291748 7
    endloop
  endfacet
  facet normal 0 0 1
    outer loop
      vertex 2.58159 0.259949 7
      vertex 4.37082 2.85873 7
      vertex 3.02919 3.29466 7
    endloop
  endfacet
  facet normal 0 0 1
    outer loop
      vertex 4.37082 2.85873 7
      vertex 2.58159 0.259949 7
      vertex 4.48213 0.0291748 7
    endloop
  endfacet
  facet normal -0 0 1
    outer loop
      vertex 0.116241 4.95726 7
      vertex 3.02919 4.70534 7
      vertex 1.00597 6.65248 7
    endloop
  endfacet
  facet normal 0 0 1
    outer loop
      vertex 3.02919 4.70534 7
      vertex 0.116241 4.95726 7
      vertex 3.02919 3.29466 7
    endloop
  endfacet
  facet normal 0 0 1
    outer loop
      vertex 3.02919 3.29466 7
      vertex 1.00597 1.34752 7
      vertex 2.58159 0.259949 7
    endloop
  endfacet
  facet normal 0 0 1
    outer loop
      vertex 0.116241 3.04274 7
      vertex 3.02919 3.29466 7
      vertex 0.116241 4.95726 7
    endloop
  endfacet
  facet normal 0 0 1
    outer loop
      vertex 3.02919 3.29466 7
      vertex 0.116241 3.04274 7
      vertex 1.00597 1.34752 7
    endloop
  endfacet
  facet normal 0.748512 -0.663122 0
    outer loop
      vertex 6.27225 0.708069 7
      vertex 7.54181 2.14111 4
      vertex 7.54181 2.14111 7
    endloop
  endfacet
  facet normal 0.748512 -0.663122 0
    outer loop
      vertex 7.54181 2.14111 4
      vertex 6.27225 0.708069 7
      vertex 6.27225 0.708069 4
    endloop
  endfacet
  facet normal 0.97094 -0.239323 0
    outer loop
      vertex 7.54181 2.14111 7
      vertex 8 4 4
      vertex 8 4 7
    endloop
  endfacet
  facet normal 0.97094 -0.239323 0
    outer loop
      vertex 8 4 4
      vertex 7.54181 2.14111 7
      vertex 7.54181 2.14111 4
    endloop
  endfacet
  facet normal 0.97094 0.239323 0
    outer loop
      vertex 8 4 7
      vertex 7.54181 5.85889 4
      vertex 7.54181 5.85889 7
    endloop
  endfacet
  facet normal 0.97094 0.239323 0
    outer loop
      vertex 7.54181 5.85889 4
      vertex 8 4 7
      vertex 8 4 4
    endloop
  endfacet
  facet normal 0.748511 0.663122 0
    outer loop
      vertex 7.54181 5.85889 7
      vertex 6.27225 7.29193 4
      vertex 6.27225 7.29193 7
    endloop
  endfacet
  facet normal 0.748511 0.663122 0
    outer loop
      vertex 6.27225 7.29193 4
      vertex 7.54181 5.85889 7
      vertex 7.54181 5.85889 4
    endloop
  endfacet
  facet normal 0.354604 0.935017 -0
    outer loop
      vertex 6.27225 7.29193 4
      vertex 4.48213 7.97083 7
      vertex 6.27225 7.29193 7
    endloop
  endfacet
  facet normal 0.354604 0.935017 0
    outer loop
      vertex 4.48213 7.97083 7
      vertex 6.27225 7.29193 4
      vertex 4.48213 7.97083 4
    endloop
  endfacet
  facet normal -0.120543 0.992708 0
    outer loop
      vertex 4.48213 7.97083 4
      vertex 2.58159 7.74005 7
      vertex 4.48213 7.97083 7
    endloop
  endfacet
  facet normal -0.120543 0.992708 0
    outer loop
      vertex 2.58159 7.74005 7
      vertex 4.48213 7.97083 4
      vertex 2.58159 7.74005 4
    endloop
  endfacet
  facet normal -0.568064 0.822984 0
    outer loop
      vertex 2.58159 7.74005 4
      vertex 1.00597 6.65248 7
      vertex 2.58159 7.74005 7
    endloop
  endfacet
  facet normal -0.568064 0.822984 0
    outer loop
      vertex 1.00597 6.65248 7
      vertex 2.58159 7.74005 4
      vertex 1.00597 6.65248 4
    endloop
  endfacet
  facet normal -0.885454 0.464727 0
    outer loop
      vertex 0.116241 4.95726 4
      vertex 1.00597 6.65248 7
      vertex 1.00597 6.65248 4
    endloop
  endfacet
  facet normal -0.885454 0.464727 0
    outer loop
      vertex 1.00597 6.65248 7
      vertex 0.116241 4.95726 4
      vertex 0.116241 4.95726 7
    endloop
  endfacet
  facet normal -1 0 0
    outer loop
      vertex 0.116241 3.04274 4
      vertex 0.116241 4.95726 7
      vertex 0.116241 4.95726 4
    endloop
  endfacet
  facet normal -1 -0 0
    outer loop
      vertex 0.116241 4.95726 7
      vertex 0.116241 3.04274 4
      vertex 0.116241 3.04274 7
    endloop
  endfacet
  facet normal -0.885454 -0.464727 0
    outer loop
      vertex 1.00597 1.34752 4
      vertex 0.116241 3.04274 7
      vertex 0.116241 3.04274 4
    endloop
  endfacet
  facet normal -0.885454 -0.464727 0
    outer loop
      vertex 0.116241 3.04274 7
      vertex 1.00597 1.34752 4
      vertex 1.00597 1.34752 7
    endloop
  endfacet
  facet normal -0.568064 -0.822984 0
    outer loop
      vertex 1.00597 1.34752 4
      vertex 2.58159 0.259949 7
      vertex 1.00597 1.34752 7
    endloop
  endfacet
  facet normal -0.568064 -0.822984 -0
    outer loop
      vertex 2.58159 0.259949 7
      vertex 1.00597 1.34752 4
      vertex 2.58159 0.259949 4
    endloop
  endfacet
  facet normal -0.12054 -0.992708 0
    outer loop
      vertex 2.58159 0.259949 4
      vertex 4.48213 0.0291748 7
      vertex 2.58159 0.259949 7
    endloop
  endfacet
  facet normal -0.12054 -0.992708 -0
    outer loop
      vertex 4.48213 0.0291748 7
      vertex 2.58159 0.259949 4
      vertex 4.48213 0.0291748 4
    endloop
  endfacet
  facet normal 0.354601 -0.935018 0
    outer loop
      vertex 4.48213 0.0291748 4
      vertex 6.27225 0.708069 7
      vertex 4.48213 0.0291748 7
    endloop
  endfacet
  facet normal 0.354601 -0.935018 0
    outer loop
      vertex 6.27225 0.708069 7
      vertex 4.48213 0.0291748 4
      vertex 6.27225 0.708069 4
    endloop
  endfacet
  facet normal 1 -0 0
    outer loop
      vertex 3.02919 3.29466 7
      vertex 3.02919 4.70534 4
      vertex 3.02919 4.70534 7
    endloop
  endfacet
  facet normal 1 0 0
    outer loop
      vertex 3.02919 4.70534 4
      vertex 3.02919 3.29466 7
      vertex 3.02919 3.29466 4
    endloop
  endfacet
  facet normal 0.309022 -0.951055 0
    outer loop
      vertex 3.02919 4.70534 4
      vertex 4.37082 5.14127 7
      vertex 3.02919 4.70534 7
    endloop
  endfacet
  facet normal 0.309022 -0.951055 0
    outer loop
      vertex 4.37082 5.14127 7
      vertex 3.02919 4.70534 4
      vertex 4.37082 5.14127 4
    endloop
  endfacet
  facet normal -0.809017 -0.587785 0
    outer loop
      vertex 5.2 4 4
      vertex 4.37082 5.14127 7
      vertex 4.37082 5.14127 4
    endloop
  endfacet
  facet normal -0.809017 -0.587785 0
    outer loop
      vertex 4.37082 5.14127 7
      vertex 5.2 4 4
      vertex 5.2 4 7
    endloop
  endfacet
  facet normal -0.809017 0.587785 0
    outer loop
      vertex 4.37082 2.85873 4
      vertex 5.2 4 7
      vertex 5.2 4 4
    endloop
  endfacet
  facet normal -0.809017 0.587785 0
    outer loop
      vertex 5.2 4 7
      vertex 4.37082 2.85873 4
      vertex 4.37082 2.85873 7
    endloop
  endfacet
  facet normal 0.309022 0.951055 -0
    outer loop
      vertex 4.37082 2.85873 4
      vertex 3.02919 3.29466 7
      vertex 4.37082 2.85873 7
    endloop
  endfacet
  facet normal 0.309022 0.951055 0
    outer loop
      vertex 3.02919 3.29466 7
      vertex 4.37082 2.85873 4
      vertex 3.02919 3.29466 4
    endloop
  endfacet
  facet normal 0 0 1
    outer loop
      vertex 5.2 88 7
      vertex 8 88 7
      vertex 7.54181 89.8589 7
    endloop
  endfacet
  facet normal 0 0 1
    outer loop
      vertex 4.37082 89.1413 7
      vertex 7.54181 89.8589 7
      vertex 6.27225 91.2919 7
    endloop
  endfacet
  facet normal 0 0 1
    outer loop
      vertex 8 88 7
      vertex 5.2 88 7
      vertex 7.54181 86.1411 7
    endloop
  endfacet
  facet normal -0 0 1
    outer loop
      vertex 4.37082 86.8587 7
      vertex 7.54181 86.1411 7
      vertex 5.2 88 7
    endloop
  endfacet
  facet normal 0 0 1
    outer loop
      vertex 4.37082 89.1413 7
      vertex 6.27225 91.2919 7
      vertex 4.48213 91.9708 7
    endloop
  endfacet
  facet normal 0 0 1
    outer loop
      vertex 7.54181 89.8589 7
      vertex 4.37082 89.1413 7
      vertex 5.2 88 7
    endloop
  endfacet
  facet normal -0 0 1
    outer loop
      vertex 2.58159 91.7401 7
      vertex 4.37082 89.1413 7
      vertex 4.48213 91.9708 7
    endloop
  endfacet
  facet normal -0 0 1
    outer loop
      vertex 1.00597 90.6525 7
      vertex 3.02919 88.7053 7
      vertex 2.58159 91.7401 7
    endloop
  endfacet
  facet normal 0 0 1
    outer loop
      vertex 4.37082 89.1413 7
      vertex 2.58159 91.7401 7
      vertex 3.02919 88.7053 7
    endloop
  endfacet
  facet normal 0 0 1
    outer loop
      vertex 7.54181 86.1411 7
      vertex 4.37082 86.8587 7
      vertex 6.27225 84.7081 7
    endloop
  endfacet
  facet normal 0 0 1
    outer loop
      vertex 6.27225 84.7081 7
      vertex 4.37082 86.8587 7
      vertex 4.48213 84.0292 7
    endloop
  endfacet
  facet normal 0 0 1
    outer loop
      vertex 2.58159 84.2599 7
      vertex 4.37082 86.8587 7
      vertex 3.02919 87.2947 7
    endloop
  endfacet
  facet normal 0 0 1
    outer loop
      vertex 4.37082 86.8587 7
      vertex 2.58159 84.2599 7
      vertex 4.48213 84.0292 7
    endloop
  endfacet
  facet normal -0 0 1
    outer loop
      vertex 0.116241 88.9573 7
      vertex 3.02919 88.7053 7
      vertex 1.00597 90.6525 7
    endloop
  endfacet
  facet normal 0 0 1
    outer loop
      vertex 3.02919 88.7053 7
      vertex 0.116241 88.9573 7
      vertex 3.02919 87.2947 7
    endloop
  endfacet
  facet normal 0 0 1
    outer loop
      vertex 3.02919 87.2947 7
      vertex 1.00597 85.3475 7
      vertex 2.58159 84.2599 7
    endloop
  endfacet
  facet normal 0 0 1
    outer loop
      vertex 0.116241 87.0427 7
      vertex 3.02919 87.2947 7
      vertex 0.116241 88.9573 7
    endloop
  endfacet
  facet normal 0 0 1
    outer loop
      vertex 3.02919 87.2947 7
      vertex 0.116241 87.0427 7
      vertex 1.00597 85.3475 7
    endloop
  endfacet
  facet normal 0.748502 -0.663132 0
    outer loop
      vertex 6.27225 84.7081 7
      vertex 7.54181 86.1411 4
      vertex 7.54181 86.1411 7
    endloop
  endfacet
  facet normal 0.748502 -0.663132 0
    outer loop
      vertex 7.54181 86.1411 4
      vertex 6.27225 84.7081 7
      vertex 6.27225 84.7081 4
    endloop
  endfacet
  facet normal 0.97094 -0.239322 0
    outer loop
      vertex 7.54181 86.1411 7
      vertex 8 88 4
      vertex 8 88 7
    endloop
  endfacet
  facet normal 0.97094 -0.239322 0
    outer loop
      vertex 8 88 4
      vertex 7.54181 86.1411 7
      vertex 7.54181 86.1411 4
    endloop
  endfacet
  facet normal 0.97094 0.239322 0
    outer loop
      vertex 8 88 7
      vertex 7.54181 89.8589 4
      vertex 7.54181 89.8589 7
    endloop
  endfacet
  facet normal 0.97094 0.239322 0
    outer loop
      vertex 7.54181 89.8589 4
      vertex 8 88 7
      vertex 8 88 4
    endloop
  endfacet
  facet normal 0.748502 0.663132 0
    outer loop
      vertex 7.54181 89.8589 7
      vertex 6.27225 91.2919 4
      vertex 6.27225 91.2919 7
    endloop
  endfacet
  facet normal 0.748502 0.663132 0
    outer loop
      vertex 6.27225 91.2919 4
      vertex 7.54181 89.8589 7
      vertex 7.54181 89.8589 4
    endloop
  endfacet
  facet normal 0.354604 0.935017 -0
    outer loop
      vertex 6.27225 91.2919 4
      vertex 4.48213 91.9708 7
      vertex 6.27225 91.2919 7
    endloop
  endfacet
  facet normal 0.354604 0.935017 0
    outer loop
      vertex 4.48213 91.9708 7
      vertex 6.27225 91.2919 4
      vertex 4.48213 91.9708 4
    endloop
  endfacet
  facet normal -0.120502 0.992713 0
    outer loop
      vertex 4.48213 91.9708 4
      vertex 2.58159 91.7401 7
      vertex 4.48213 91.9708 7
    endloop
  endfacet
  facet normal -0.120502 0.992713 0
    outer loop
      vertex 2.58159 91.7401 7
      vertex 4.48213 91.9708 4
      vertex 2.58159 91.7401 4
    endloop
  endfacet
  facet normal -0.568075 0.822977 0
    outer loop
      vertex 2.58159 91.7401 4
      vertex 1.00597 90.6525 7
      vertex 2.58159 91.7401 7
    endloop
  endfacet
  facet normal -0.568075 0.822977 0
    outer loop
      vertex 1.00597 90.6525 7
      vertex 2.58159 91.7401 4
      vertex 1.00597 90.6525 4
    endloop
  endfacet
  facet normal -0.885452 0.464731 0
    outer loop
      vertex 0.116241 88.9573 4
      vertex 1.00597 90.6525 7
      vertex 1.00597 90.6525 4
    endloop
  endfacet
  facet normal -0.885452 0.464731 0
    outer loop
      vertex 1.00597 90.6525 7
      vertex 0.116241 88.9573 4
      vertex 0.116241 88.9573 7
    endloop
  endfacet
  facet normal -1 0 0
    outer loop
      vertex 0.116241 87.0427 4
      vertex 0.116241 88.9573 7
      vertex 0.116241 88.9573 4
    endloop
  endfacet
  facet normal -1 -0 0
    outer loop
      vertex 0.116241 88.9573 7
      vertex 0.116241 87.0427 4
      vertex 0.116241 87.0427 7
    endloop
  endfacet
  facet normal -0.885452 -0.464731 0
    outer loop
      vertex 1.00597 85.3475 4
      vertex 0.116241 87.0427 7
      vertex 0.116241 87.0427 4
    endloop
  endfacet
  facet normal -0.885452 -0.464731 0
    outer loop
      vertex 0.116241 87.0427 7
      vertex 1.00597 85.3475 4
      vertex 1.00597 85.3475 7
    endloop
  endfacet
  facet normal -0.568075 -0.822977 0
    outer loop
      vertex 1.00597 85.3475 4
      vertex 2.58159 84.2599 7
      vertex 1.00597 85.3475 7
    endloop
  endfacet
  facet normal -0.568075 -0.822977 -0
    outer loop
      vertex 2.58159 84.2599 7
      vertex 1.00597 85.3475 4
      vertex 2.58159 84.2599 4
    endloop
  endfacet
  facet normal -0.120502 -0.992713 0
    outer loop
      vertex 2.58159 84.2599 4
      vertex 4.48213 84.0292 7
      vertex 2.58159 84.2599 7
    endloop
  endfacet
  facet normal -0.120502 -0.992713 -0
    outer loop
      vertex 4.48213 84.0292 7
      vertex 2.58159 84.2599 4
      vertex 4.48213 84.0292 4
    endloop
  endfacet
  facet normal 0.354604 -0.935017 0
    outer loop
      vertex 4.48213 84.0292 4
      vertex 6.27225 84.7081 7
      vertex 4.48213 84.0292 7
    endloop
  endfacet
  facet normal 0.354604 -0.935017 0
    outer loop
      vertex 6.27225 84.7081 7
      vertex 4.48213 84.0292 4
      vertex 6.27225 84.7081 4
    endloop
  endfacet
  facet normal 1 -0 0
    outer loop
      vertex 3.02919 87.2947 7
      vertex 3.02919 88.7053 4
      vertex 3.02919 88.7053 7
    endloop
  endfacet
  facet normal 1 0 0
    outer loop
      vertex 3.02919 88.7053 4
      vertex 3.02919 87.2947 7
      vertex 3.02919 87.2947 4
    endloop
  endfacet
  facet normal 0.309067 -0.95104 0
    outer loop
      vertex 3.02919 88.7053 4
      vertex 4.37082 89.1413 7
      vertex 3.02919 88.7053 7
    endloop
  endfacet
  facet normal 0.309067 -0.95104 0
    outer loop
      vertex 4.37082 89.1413 7
      vertex 3.02919 88.7053 4
      vertex 4.37082 89.1413 4
    endloop
  endfacet
  facet normal -0.809025 -0.587775 0
    outer loop
      vertex 5.2 88 4
      vertex 4.37082 89.1413 7
      vertex 4.37082 89.1413 4
    endloop
  endfacet
  facet normal -0.809025 -0.587775 0
    outer loop
      vertex 4.37082 89.1413 7
      vertex 5.2 88 4
      vertex 5.2 88 7
    endloop
  endfacet
  facet normal -0.809025 0.587775 0
    outer loop
      vertex 4.37082 86.8587 4
      vertex 5.2 88 7
      vertex 5.2 88 4
    endloop
  endfacet
  facet normal -0.809025 0.587775 0
    outer loop
      vertex 5.2 88 7
      vertex 4.37082 86.8587 4
      vertex 4.37082 86.8587 7
    endloop
  endfacet
  facet normal 0.309067 0.95104 -0
    outer loop
      vertex 4.37082 86.8587 4
      vertex 3.02919 87.2947 7
      vertex 4.37082 86.8587 7
    endloop
  endfacet
  facet normal 0.309067 0.95104 0
    outer loop
      vertex 3.02919 87.2947 7
      vertex 4.37082 86.8587 4
      vertex 3.02919 87.2947 4
    endloop
  endfacet
  facet normal 0 0 1
    outer loop
      vertex 69.2 4 7
      vertex 72 4 7
      vertex 71.5418 5.85889 7
    endloop
  endfacet
  facet normal 0 0 1
    outer loop
      vertex 68.3708 5.14127 7
      vertex 71.5418 5.85889 7
      vertex 70.2722 7.29193 7
    endloop
  endfacet
  facet normal 0 0 1
    outer loop
      vertex 72 4 7
      vertex 69.2 4 7
      vertex 71.5418 2.14111 7
    endloop
  endfacet
  facet normal -0 0 1
    outer loop
      vertex 68.3708 2.85873 7
      vertex 71.5418 2.14111 7
      vertex 69.2 4 7
    endloop
  endfacet
  facet normal 0 0 1
    outer loop
      vertex 68.3708 5.14127 7
      vertex 70.2722 7.29193 7
      vertex 68.4821 7.97083 7
    endloop
  endfacet
  facet normal 0 0 1
    outer loop
      vertex 71.5418 5.85889 7
      vertex 68.3708 5.14127 7
      vertex 69.2 4 7
    endloop
  endfacet
  facet normal -0 0 1
    outer loop
      vertex 66.5816 7.74005 7
      vertex 68.3708 5.14127 7
      vertex 68.4821 7.97083 7
    endloop
  endfacet
  facet normal -0 0 1
    outer loop
      vertex 65.006 6.65248 7
      vertex 67.0292 4.70534 7
      vertex 66.5816 7.74005 7
    endloop
  endfacet
  facet normal 0 0 1
    outer loop
      vertex 68.3708 5.14127 7
      vertex 66.5816 7.74005 7
      vertex 67.0292 4.70534 7
    endloop
  endfacet
  facet normal 0 0 1
    outer loop
      vertex 71.5418 2.14111 7
      vertex 68.3708 2.85873 7
      vertex 70.2722 0.708069 7
    endloop
  endfacet
  facet normal 0 0 1
    outer loop
      vertex 70.2722 0.708069 7
      vertex 68.3708 2.85873 7
      vertex 68.4821 0.0291748 7
    endloop
  endfacet
  facet normal 0 0 1
    outer loop
      vertex 66.5816 0.259949 7
      vertex 68.3708 2.85873 7
      vertex 67.0292 3.29466 7
    endloop
  endfacet
  facet normal 0 0 1
    outer loop
      vertex 68.3708 2.85873 7
      vertex 66.5816 0.259949 7
      vertex 68.4821 0.0291748 7
    endloop
  endfacet
  facet normal -0 0 1
    outer loop
      vertex 64.1162 4.95726 7
      vertex 67.0292 4.70534 7
      vertex 65.006 6.65248 7
    endloop
  endfacet
  facet normal 0 0 1
    outer loop
      vertex 67.0292 4.70534 7
      vertex 64.1162 4.95726 7
      vertex 67.0292 3.29466 7
    endloop
  endfacet
  facet normal 0 0 1
    outer loop
      vertex 67.0292 3.29466 7
      vertex 65.006 1.34752 7
      vertex 66.5816 0.259949 7
    endloop
  endfacet
  facet normal 0 0 1
    outer loop
      vertex 64.1162 3.04274 7
      vertex 67.0292 3.29466 7
      vertex 64.1162 4.95726 7
    endloop
  endfacet
  facet normal 0 0 1
    outer loop
      vertex 67.0292 3.29466 7
      vertex 64.1162 3.04274 7
      vertex 65.006 1.34752 7
    endloop
  endfacet
  facet normal 0.748501 -0.663133 0
    outer loop
      vertex 70.2722 0.708069 7
      vertex 71.5418 2.14111 4
      vertex 71.5418 2.14111 7
    endloop
  endfacet
  facet normal 0.748501 -0.663133 0
    outer loop
      vertex 71.5418 2.14111 4
      vertex 70.2722 0.708069 7
      vertex 70.2722 0.708069 4
    endloop
  endfacet
  facet normal 0.970939 -0.239328 0
    outer loop
      vertex 71.5418 2.14111 7
      vertex 72 4 4
      vertex 72 4 7
    endloop
  endfacet
  facet normal 0.970939 -0.239328 0
    outer loop
      vertex 72 4 4
      vertex 71.5418 2.14111 7
      vertex 71.5418 2.14111 4
    endloop
  endfacet
  facet normal 0.970939 0.239328 0
    outer loop
      vertex 72 4 7
      vertex 71.5418 5.85889 4
      vertex 71.5418 5.85889 7
    endloop
  endfacet
  facet normal 0.970939 0.239328 0
    outer loop
      vertex 71.5418 5.85889 4
      vertex 72 4 7
      vertex 72 4 4
    endloop
  endfacet
  facet normal 0.748501 0.663134 0
    outer loop
      vertex 71.5418 5.85889 7
      vertex 70.2722 7.29193 4
      vertex 70.2722 7.29193 7
    endloop
  endfacet
  facet normal 0.748501 0.663134 0
    outer loop
      vertex 70.2722 7.29193 4
      vertex 71.5418 5.85889 7
      vertex 71.5418 5.85889 4
    endloop
  endfacet
  facet normal 0.354607 0.935015 -0
    outer loop
      vertex 70.2722 7.29193 4
      vertex 68.4821 7.97083 7
      vertex 70.2722 7.29193 7
    endloop
  endfacet
  facet normal 0.354607 0.935015 0
    outer loop
      vertex 68.4821 7.97083 7
      vertex 70.2722 7.29193 4
      vertex 68.4821 7.97083 4
    endloop
  endfacet
  facet normal -0.120546 0.992708 0
    outer loop
      vertex 68.4821 7.97083 4
      vertex 66.5816 7.74005 7
      vertex 68.4821 7.97083 7
    endloop
  endfacet
  facet normal -0.120546 0.992708 0
    outer loop
      vertex 66.5816 7.74005 7
      vertex 68.4821 7.97083 4
      vertex 66.5816 7.74005 4
    endloop
  endfacet
  facet normal -0.568069 0.822981 0
    outer loop
      vertex 66.5816 7.74005 4
      vertex 65.006 6.65248 7
      vertex 66.5816 7.74005 7
    endloop
  endfacet
  facet normal -0.568069 0.822981 0
    outer loop
      vertex 65.006 6.65248 7
      vertex 66.5816 7.74005 4
      vertex 65.006 6.65248 4
    endloop
  endfacet
  facet normal -0.885439 0.464756 0
    outer loop
      vertex 64.1162 4.95726 4
      vertex 65.006 6.65248 7
      vertex 65.006 6.65248 4
    endloop
  endfacet
  facet normal -0.885439 0.464756 0
    outer loop
      vertex 65.006 6.65248 7
      vertex 64.1162 4.95726 4
      vertex 64.1162 4.95726 7
    endloop
  endfacet
  facet normal -1 0 0
    outer loop
      vertex 64.1162 3.04274 4
      vertex 64.1162 4.95726 7
      vertex 64.1162 4.95726 4
    endloop
  endfacet
  facet normal -1 -0 0
    outer loop
      vertex 64.1162 4.95726 7
      vertex 64.1162 3.04274 4
      vertex 64.1162 3.04274 7
    endloop
  endfacet
  facet normal -0.885439 -0.464756 0
    outer loop
      vertex 65.006 1.34752 4
      vertex 64.1162 3.04274 7
      vertex 64.1162 3.04274 4
    endloop
  endfacet
  facet normal -0.885439 -0.464756 0
    outer loop
      vertex 64.1162 3.04274 7
      vertex 65.006 1.34752 4
      vertex 65.006 1.34752 7
    endloop
  endfacet
  facet normal -0.568069 -0.822981 0
    outer loop
      vertex 65.006 1.34752 4
      vertex 66.5816 0.259949 7
      vertex 65.006 1.34752 7
    endloop
  endfacet
  facet normal -0.568069 -0.822981 -0
    outer loop
      vertex 66.5816 0.259949 7
      vertex 65.006 1.34752 4
      vertex 66.5816 0.259949 4
    endloop
  endfacet
  facet normal -0.120543 -0.992708 0
    outer loop
      vertex 66.5816 0.259949 4
      vertex 68.4821 0.0291748 7
      vertex 66.5816 0.259949 7
    endloop
  endfacet
  facet normal -0.120543 -0.992708 -0
    outer loop
      vertex 68.4821 0.0291748 7
      vertex 66.5816 0.259949 4
      vertex 68.4821 0.0291748 4
    endloop
  endfacet
  facet normal 0.354604 -0.935016 0
    outer loop
      vertex 68.4821 0.0291748 4
      vertex 70.2722 0.708069 7
      vertex 68.4821 0.0291748 7
    endloop
  endfacet
  facet normal 0.354604 -0.935016 0
    outer loop
      vertex 70.2722 0.708069 7
      vertex 68.4821 0.0291748 4
      vertex 70.2722 0.708069 4
    endloop
  endfacet
  facet normal 1 -0 0
    outer loop
      vertex 67.0292 3.29466 7
      vertex 67.0292 4.70534 4
      vertex 67.0292 4.70534 7
    endloop
  endfacet
  facet normal 1 0 0
    outer loop
      vertex 67.0292 4.70534 4
      vertex 67.0292 3.29466 7
      vertex 67.0292 3.29466 4
    endloop
  endfacet
  facet normal 0.309028 -0.951053 0
    outer loop
      vertex 67.0292 4.70534 4
      vertex 68.3708 5.14127 7
      vertex 67.0292 4.70534 7
    endloop
  endfacet
  facet normal 0.309028 -0.951053 0
    outer loop
      vertex 68.3708 5.14127 7
      vertex 67.0292 4.70534 4
      vertex 68.3708 5.14127 4
    endloop
  endfacet
  facet normal -0.809011 -0.587794 0
    outer loop
      vertex 69.2 4 4
      vertex 68.3708 5.14127 7
      vertex 68.3708 5.14127 4
    endloop
  endfacet
  facet normal -0.809011 -0.587794 0
    outer loop
      vertex 68.3708 5.14127 7
      vertex 69.2 4 4
      vertex 69.2 4 7
    endloop
  endfacet
  facet normal -0.809011 0.587794 0
    outer loop
      vertex 68.3708 2.85873 4
      vertex 69.2 4 7
      vertex 69.2 4 4
    endloop
  endfacet
  facet normal -0.809011 0.587794 0
    outer loop
      vertex 69.2 4 7
      vertex 68.3708 2.85873 4
      vertex 68.3708 2.85873 7
    endloop
  endfacet
  facet normal 0.309028 0.951053 -0
    outer loop
      vertex 68.3708 2.85873 4
      vertex 67.0292 3.29466 7
      vertex 68.3708 2.85873 7
    endloop
  endfacet
  facet normal 0.309028 0.951053 0
    outer loop
      vertex 67.0292 3.29466 7
      vertex 68.3708 2.85873 4
      vertex 67.0292 3.29466 4
    endloop
  endfacet
  facet normal 0 0 1
    outer loop
      vertex 69.2 88 7
      vertex 72 88 7
      vertex 71.5418 89.8589 7
    endloop
  endfacet
  facet normal 0 0 1
    outer loop
      vertex 68.3708 89.1413 7
      vertex 71.5418 89.8589 7
      vertex 70.2722 91.2919 7
    endloop
  endfacet
  facet normal 0 0 1
    outer loop
      vertex 72 88 7
      vertex 69.2 88 7
      vertex 71.5418 86.1411 7
    endloop
  endfacet
  facet normal -0 0 1
    outer loop
      vertex 68.3708 86.8587 7
      vertex 71.5418 86.1411 7
      vertex 69.2 88 7
    endloop
  endfacet
  facet normal 0 0 1
    outer loop
      vertex 68.3708 89.1413 7
      vertex 70.2722 91.2919 7
      vertex 68.4821 91.9708 7
    endloop
  endfacet
  facet normal 0 0 1
    outer loop
      vertex 71.5418 89.8589 7
      vertex 68.3708 89.1413 7
      vertex 69.2 88 7
    endloop
  endfacet
  facet normal -0 0 1
    outer loop
      vertex 66.5816 91.7401 7
      vertex 68.3708 89.1413 7
      vertex 68.4821 91.9708 7
    endloop
  endfacet
  facet normal -0 0 1
    outer loop
      vertex 65.006 90.6525 7
      vertex 67.0292 88.7053 7
      vertex 66.5816 91.7401 7
    endloop
  endfacet
  facet normal 0 0 1
    outer loop
      vertex 68.3708 89.1413 7
      vertex 66.5816 91.7401 7
      vertex 67.0292 88.7053 7
    endloop
  endfacet
  facet normal 0 0 1
    outer loop
      vertex 71.5418 86.1411 7
      vertex 68.3708 86.8587 7
      vertex 70.2722 84.7081 7
    endloop
  endfacet
  facet normal 0 0 1
    outer loop
      vertex 70.2722 84.7081 7
      vertex 68.3708 86.8587 7
      vertex 68.4821 84.0292 7
    endloop
  endfacet
  facet normal 0 0 1
    outer loop
      vertex 66.5816 84.2599 7
      vertex 68.3708 86.8587 7
      vertex 67.0292 87.2947 7
    endloop
  endfacet
  facet normal 0 0 1
    outer loop
      vertex 68.3708 86.8587 7
      vertex 66.5816 84.2599 7
      vertex 68.4821 84.0292 7
    endloop
  endfacet
  facet normal -0 0 1
    outer loop
      vertex 64.1162 88.9573 7
      vertex 67.0292 88.7053 7
      vertex 65.006 90.6525 7
    endloop
  endfacet
  facet normal 0 0 1
    outer loop
      vertex 67.0292 88.7053 7
      vertex 64.1162 88.9573 7
      vertex 67.0292 87.2947 7
    endloop
  endfacet
  facet normal 0 0 1
    outer loop
      vertex 67.0292 87.2947 7
      vertex 65.006 85.3475 7
      vertex 66.5816 84.2599 7
    endloop
  endfacet
  facet normal 0 0 1
    outer loop
      vertex 64.1162 87.0427 7
      vertex 67.0292 87.2947 7
      vertex 64.1162 88.9573 7
    endloop
  endfacet
  facet normal 0 0 1
    outer loop
      vertex 67.0292 87.2947 7
      vertex 64.1162 87.0427 7
      vertex 65.006 85.3475 7
    endloop
  endfacet
  facet normal 0.748492 -0.663144 0
    outer loop
      vertex 70.2722 84.7081 7
      vertex 71.5418 86.1411 4
      vertex 71.5418 86.1411 7
    endloop
  endfacet
  facet normal 0.748492 -0.663144 0
    outer loop
      vertex 71.5418 86.1411 4
      vertex 70.2722 84.7081 7
      vertex 70.2722 84.7081 4
    endloop
  endfacet
  facet normal 0.970939 -0.239327 0
    outer loop
      vertex 71.5418 86.1411 7
      vertex 72 88 4
      vertex 72 88 7
    endloop
  endfacet
  facet normal 0.970939 -0.239327 0
    outer loop
      vertex 72 88 4
      vertex 71.5418 86.1411 7
      vertex 71.5418 86.1411 4
    endloop
  endfacet
  facet normal 0.970939 0.239327 0
    outer loop
      vertex 72 88 7
      vertex 71.5418 89.8589 4
      vertex 71.5418 89.8589 7
    endloop
  endfacet
  facet normal 0.970939 0.239327 0
    outer loop
      vertex 71.5418 89.8589 4
      vertex 72 88 7
      vertex 72 88 4
    endloop
  endfacet
  facet normal 0.748492 0.663144 0
    outer loop
      vertex 71.5418 89.8589 7
      vertex 70.2722 91.2919 4
      vertex 70.2722 91.2919 7
    endloop
  endfacet
  facet normal 0.748492 0.663144 0
    outer loop
      vertex 70.2722 91.2919 4
      vertex 71.5418 89.8589 7
      vertex 71.5418 89.8589 4
    endloop
  endfacet
  facet normal 0.354607 0.935015 -0
    outer loop
      vertex 70.2722 91.2919 4
      vertex 68.4821 91.9708 7
      vertex 70.2722 91.2919 7
    endloop
  endfacet
  facet normal 0.354607 0.935015 0
    outer loop
      vertex 68.4821 91.9708 7
      vertex 70.2722 91.2919 4
      vertex 68.4821 91.9708 4
    endloop
  endfacet
  facet normal -0.120505 0.992713 0
    outer loop
      vertex 68.4821 91.9708 4
      vertex 66.5816 91.7401 7
      vertex 68.4821 91.9708 7
    endloop
  endfacet
  facet normal -0.120505 0.992713 0
    outer loop
      vertex 66.5816 91.7401 7
      vertex 68.4821 91.9708 4
      vertex 66.5816 91.7401 4
    endloop
  endfacet
  facet normal -0.56808 0.822974 0
    outer loop
      vertex 66.5816 91.7401 4
      vertex 65.006 90.6525 7
      vertex 66.5816 91.7401 7
    endloop
  endfacet
  facet normal -0.56808 0.822974 0
    outer loop
      vertex 65.006 90.6525 7
      vertex 66.5816 91.7401 4
      vertex 65.006 90.6525 4
    endloop
  endfacet
  facet normal -0.885437 0.46476 0
    outer loop
      vertex 64.1162 88.9573 4
      vertex 65.006 90.6525 7
      vertex 65.006 90.6525 4
    endloop
  endfacet
  facet normal -0.885437 0.46476 0
    outer loop
      vertex 65.006 90.6525 7
      vertex 64.1162 88.9573 4
      vertex 64.1162 88.9573 7
    endloop
  endfacet
  facet normal -1 0 0
    outer loop
      vertex 64.1162 87.0427 4
      vertex 64.1162 88.9573 7
      vertex 64.1162 88.9573 4
    endloop
  endfacet
  facet normal -1 -0 0
    outer loop
      vertex 64.1162 88.9573 7
      vertex 64.1162 87.0427 4
      vertex 64.1162 87.0427 7
    endloop
  endfacet
  facet normal -0.885437 -0.46476 0
    outer loop
      vertex 65.006 85.3475 4
      vertex 64.1162 87.0427 7
      vertex 64.1162 87.0427 4
    endloop
  endfacet
  facet normal -0.885437 -0.46476 0
    outer loop
      vertex 64.1162 87.0427 7
      vertex 65.006 85.3475 4
      vertex 65.006 85.3475 7
    endloop
  endfacet
  facet normal -0.56808 -0.822974 0
    outer loop
      vertex 65.006 85.3475 4
      vertex 66.5816 84.2599 7
      vertex 65.006 85.3475 7
    endloop
  endfacet
  facet normal -0.56808 -0.822974 -0
    outer loop
      vertex 66.5816 84.2599 7
      vertex 65.006 85.3475 4
      vertex 66.5816 84.2599 4
    endloop
  endfacet
  facet normal -0.120505 -0.992713 0
    outer loop
      vertex 66.5816 84.2599 4
      vertex 68.4821 84.0292 7
      vertex 66.5816 84.2599 7
    endloop
  endfacet
  facet normal -0.120505 -0.992713 -0
    outer loop
      vertex 68.4821 84.0292 7
      vertex 66.5816 84.2599 4
      vertex 68.4821 84.0292 4
    endloop
  endfacet
  facet normal 0.354607 -0.935015 0
    outer loop
      vertex 68.4821 84.0292 4
      vertex 70.2722 84.7081 7
      vertex 68.4821 84.0292 7
    endloop
  endfacet
  facet normal 0.354607 -0.935015 0
    outer loop
      vertex 70.2722 84.7081 7
      vertex 68.4821 84.0292 4
      vertex 70.2722 84.7081 4
    endloop
  endfacet
  facet normal 1 -0 0
    outer loop
      vertex 67.0292 87.2947 7
      vertex 67.0292 88.7053 4
      vertex 67.0292 88.7053 7
    endloop
  endfacet
  facet normal 1 0 0
    outer loop
      vertex 67.0292 88.7053 4
      vertex 67.0292 87.2947 7
      vertex 67.0292 87.2947 4
    endloop
  endfacet
  facet normal 0.309073 -0.951038 0
    outer loop
      vertex 67.0292 88.7053 4
      vertex 68.3708 89.1413 7
      vertex 67.0292 88.7053 7
    endloop
  endfacet
  facet normal 0.309073 -0.951038 0
    outer loop
      vertex 68.3708 89.1413 7
      vertex 67.0292 88.7053 4
      vertex 68.3708 89.1413 4
    endloop
  endfacet
  facet normal -0.809018 -0.587784 0
    outer loop
      vertex 69.2 88 4
      vertex 68.3708 89.1413 7
      vertex 68.3708 89.1413 4
    endloop
  endfacet
  facet normal -0.809018 -0.587784 0
    outer loop
      vertex 68.3708 89.1413 7
      vertex 69.2 88 4
      vertex 69.2 88 7
    endloop
  endfacet
  facet normal -0.809018 0.587784 0
    outer loop
      vertex 68.3708 86.8587 4
      vertex 69.2 88 7
      vertex 69.2 88 4
    endloop
  endfacet
  facet normal -0.809018 0.587784 0
    outer loop
      vertex 69.2 88 7
      vertex 68.3708 86.8587 4
      vertex 68.3708 86.8587 7
    endloop
  endfacet
  facet normal 0.309073 0.951038 -0
    outer loop
      vertex 68.3708 86.8587 4
      vertex 67.0292 87.2947 7
      vertex 68.3708 86.8587 7
    endloop
  endfacet
  facet normal 0.309073 0.951038 0
    outer loop
      vertex 67.0292 87.2947 7
      vertex 68.3708 86.8587 4
      vertex 67.0292 87.2947 4
    endloop
  endfacet
  facet normal -0 0 1
    outer loop
      vertex -5.41841 -0.259949 20
      vertex -4 -2.97922 20
      vertex -4 -0.0877178 20
    endloop
  endfacet
  facet normal -0 0 1
    outer loop
      vertex -6.99403 -1.34752 20
      vertex -4.97081 -3.29466 20
      vertex -5.41841 -0.259949 20
    endloop
  endfacet
  facet normal 0 0 1
    outer loop
      vertex -4 -2.97922 20
      vertex -5.41841 -0.259949 20
      vertex -4.97081 -3.29466 20
    endloop
  endfacet
  facet normal 0 0 1
    outer loop
      vertex -5.41841 92.2599 20
      vertex -4 94.9792 20
      vertex -4.97081 95.2947 20
    endloop
  endfacet
  facet normal 0 0 1
    outer loop
      vertex -4 94.9792 20
      vertex -5.41841 92.2599 20
      vertex -4 92.0877 20
    endloop
  endfacet
  facet normal -0 0 1
    outer loop
      vertex -7.88376 96.9573 20
      vertex -4.97081 96.7053 20
      vertex -6.99403 98.6525 20
    endloop
  endfacet
  facet normal 0 0 1
    outer loop
      vertex -4.97081 96.7053 20
      vertex -7.88376 96.9573 20
      vertex -4.97081 95.2947 20
    endloop
  endfacet
  facet normal 0 0 1
    outer loop
      vertex -4.97081 95.2947 20
      vertex -6.99403 93.3475 20
      vertex -5.41841 92.2599 20
    endloop
  endfacet
  facet normal 0 0 1
    outer loop
      vertex -7.88376 95.0427 20
      vertex -4.97081 95.2947 20
      vertex -7.88376 96.9573 20
    endloop
  endfacet
  facet normal 0 0 1
    outer loop
      vertex -4.97081 95.2947 20
      vertex -7.88376 95.0427 20
      vertex -6.99403 93.3475 20
    endloop
  endfacet
  facet normal -0 0 1
    outer loop
      vertex -4 92.0877 20
      vertex 0 92 20
      vertex -4 94.9792 20
    endloop
  endfacet
  facet normal 0 0 1
    outer loop
      vertex 0 92 20
      vertex -4 92.0877 20
      vertex 0 0 20
    endloop
  endfacet
  facet normal 0 0 1
    outer loop
      vertex -4 -0.0877178 20
      vertex 0 0 20
      vertex -4 92.0877 20
    endloop
  endfacet
  facet normal 0 0 1
    outer loop
      vertex -4 -2.97922 20
      vertex 0 0 20
      vertex -4 -0.0877178 20
    endloop
  endfacet
  facet normal 0 0 1
    outer loop
      vertex 0 0 20
      vertex -4 -2.97922 20
      vertex -2.8 -4 20
    endloop
  endfacet
  facet normal 0 0 1
    outer loop
      vertex -2.8 -4 20
      vertex -4 -2.97922 20
      vertex -4 -4 20
    endloop
  endfacet
  facet normal -0 0 1
    outer loop
      vertex 72 0 20
      vertex 76 -0.0877178 20
      vertex 72 92 20
    endloop
  endfacet
  facet normal -0 0 1
    outer loop
      vertex 0 96 20
      vertex 72 92 20
      vertex 72.1162 96 20
    endloop
  endfacet
  facet normal 0 0 1
    outer loop
      vertex 0 96 20
      vertex 0 92 20
      vertex 72 92 20
    endloop
  endfacet
  facet normal -0 0 1
    outer loop
      vertex -2.8 96 20
      vertex 0 92 20
      vertex 0 96 20
    endloop
  endfacet
  facet normal 0 0 1
    outer loop
      vertex -4 94.9792 20
      vertex -2.8 96 20
      vertex -4 96 20
    endloop
  endfacet
  facet normal 0 0 1
    outer loop
      vertex -2.8 96 20
      vertex 0 96 20
      vertex -0.458191 97.8589 20
    endloop
  endfacet
  facet normal 0 0 1
    outer loop
      vertex -2.8 96 20
      vertex -4 94.9792 20
      vertex 0 92 20
    endloop
  endfacet
  facet normal 0 0 1
    outer loop
      vertex -3.62918 97.1413 20
      vertex -0.458191 97.8589 20
      vertex -1.72775 99.2919 20
    endloop
  endfacet
  facet normal 0 0 1
    outer loop
      vertex 0 0 20
      vertex -2.8 -4 20
      vertex 0 -4 20
    endloop
  endfacet
  facet normal 0 0 1
    outer loop
      vertex 0 -4 20
      vertex -2.8 -4 20
      vertex -0.458191 -5.85889 20
    endloop
  endfacet
  facet normal 0 0 1
    outer loop
      vertex -3.62918 97.1413 20
      vertex -1.72775 99.2919 20
      vertex -3.51787 99.9708 20
    endloop
  endfacet
  facet normal 0 0 1
    outer loop
      vertex -0.458191 97.8589 20
      vertex -3.62918 97.1413 20
      vertex -2.8 96 20
    endloop
  endfacet
  facet normal -0 0 1
    outer loop
      vertex -5.41841 99.7401 20
      vertex -3.62918 97.1413 20
      vertex -3.51787 99.9708 20
    endloop
  endfacet
  facet normal -0 0 1
    outer loop
      vertex -6.99403 98.6525 20
      vertex -4.97081 96.7053 20
      vertex -5.41841 99.7401 20
    endloop
  endfacet
  facet normal 0 0 1
    outer loop
      vertex -3.62918 97.1413 20
      vertex -5.41841 99.7401 20
      vertex -4.97081 96.7053 20
    endloop
  endfacet
  facet normal 0 0 1
    outer loop
      vertex 76 -0.0877178 20
      vertex 72 0 20
      vertex 72.1162 -4 20
    endloop
  endfacet
  facet normal 0 0 1
    outer loop
      vertex 0 -4 20
      vertex 72 0 20
      vertex 0 0 20
    endloop
  endfacet
  facet normal 0 0 1
    outer loop
      vertex 72 0 20
      vertex 0 -4 20
      vertex 72.1162 -4 20
    endloop
  endfacet
  facet normal -0 0 1
    outer loop
      vertex -3.62918 -5.14127 20
      vertex -0.458191 -5.85889 20
      vertex -2.8 -4 20
    endloop
  endfacet
  facet normal 0 0 1
    outer loop
      vertex -0.458191 -5.85889 20
      vertex -3.62918 -5.14127 20
      vertex -1.72775 -7.29193 20
    endloop
  endfacet
  facet normal 0 0 1
    outer loop
      vertex -1.72775 -7.29193 20
      vertex -3.62918 -5.14127 20
      vertex -3.51787 -7.97083 20
    endloop
  endfacet
  facet normal 0 0 1
    outer loop
      vertex -5.41841 -7.74005 20
      vertex -3.62918 -5.14127 20
      vertex -4.97081 -4.70534 20
    endloop
  endfacet
  facet normal 0 0 1
    outer loop
      vertex -3.62918 -5.14127 20
      vertex -5.41841 -7.74005 20
      vertex -3.51787 -7.97083 20
    endloop
  endfacet
  facet normal -0 0 1
    outer loop
      vertex -7.88376 -3.04274 20
      vertex -4.97081 -3.29466 20
      vertex -6.99403 -1.34752 20
    endloop
  endfacet
  facet normal 0 0 1
    outer loop
      vertex -4.97081 -3.29466 20
      vertex -7.88376 -3.04274 20
      vertex -4.97081 -4.70534 20
    endloop
  endfacet
  facet normal 0 0 1
    outer loop
      vertex -4.97081 -4.70534 20
      vertex -6.99403 -6.65248 20
      vertex -5.41841 -7.74005 20
    endloop
  endfacet
  facet normal 0 0 1
    outer loop
      vertex -7.88376 -4.95726 20
      vertex -4.97081 -4.70534 20
      vertex -7.88376 -3.04274 20
    endloop
  endfacet
  facet normal 0 0 1
    outer loop
      vertex -4.97081 -4.70534 20
      vertex -7.88376 -4.95726 20
      vertex -6.99403 -6.65248 20
    endloop
  endfacet
  facet normal -0 0 1
    outer loop
      vertex 75.0292 96 20
      vertex 76 94.9792 20
      vertex 76 96 20
    endloop
  endfacet
  facet normal 0 0 1
    outer loop
      vertex 72 92 20
      vertex 75.0292 96 20
      vertex 72.1162 96 20
    endloop
  endfacet
  facet normal 0 0 1
    outer loop
      vertex 75.0292 96 20
      vertex 72 92 20
      vertex 76 94.9792 20
    endloop
  endfacet
  facet normal 0 0 1
    outer loop
      vertex 76 94.9792 20
      vertex 72 92 20
      vertex 76 92.0877 20
    endloop
  endfacet
  facet normal 0 0 1
    outer loop
      vertex 76 92.0877 20
      vertex 72 92 20
      vertex 76 -0.0877178 20
    endloop
  endfacet
  facet normal 0 0 1
    outer loop
      vertex 76 -2.97922 20
      vertex 75.0292 -4 20
      vertex 76 -4 20
    endloop
  endfacet
  facet normal 0 0 1
    outer loop
      vertex 77.2 96 20
      vertex 80 96 20
      vertex 79.5418 97.8589 20
    endloop
  endfacet
  facet normal 0 0 1
    outer loop
      vertex 76.3708 97.1413 20
      vertex 79.5418 97.8589 20
      vertex 78.2722 99.2919 20
    endloop
  endfacet
  facet normal 0 0 1
    outer loop
      vertex 80 96 20
      vertex 77.2 96 20
      vertex 79.5418 94.1411 20
    endloop
  endfacet
  facet normal -0 0 1
    outer loop
      vertex 76.3708 94.8587 20
      vertex 79.5418 94.1411 20
      vertex 77.2 96 20
    endloop
  endfacet
  facet normal 0 0 1
    outer loop
      vertex 76.3708 97.1413 20
      vertex 78.2722 99.2919 20
      vertex 76.4821 99.9708 20
    endloop
  endfacet
  facet normal 0 0 1
    outer loop
      vertex 79.5418 97.8589 20
      vertex 76.3708 97.1413 20
      vertex 77.2 96 20
    endloop
  endfacet
  facet normal -0 0 1
    outer loop
      vertex 74.5816 99.7401 20
      vertex 76.3708 97.1413 20
      vertex 76.4821 99.9708 20
    endloop
  endfacet
  facet normal 0 0 1
    outer loop
      vertex 72.1162 96 20
      vertex 75.0292 96 20
      vertex 75.0292 96.7053 20
    endloop
  endfacet
  facet normal 0 0 1
    outer loop
      vertex 76 -0.0877178 20
      vertex 72.1162 -4 20
      vertex 76 -2.97922 20
    endloop
  endfacet
  facet normal -0 0 1
    outer loop
      vertex 73.006 98.6525 20
      vertex 75.0292 96.7053 20
      vertex 74.5816 99.7401 20
    endloop
  endfacet
  facet normal 0 0 1
    outer loop
      vertex 76.3708 97.1413 20
      vertex 74.5816 99.7401 20
      vertex 75.0292 96.7053 20
    endloop
  endfacet
  facet normal 0 0 1
    outer loop
      vertex 79.5418 94.1411 20
      vertex 76.3708 94.8587 20
      vertex 78.2722 92.7081 20
    endloop
  endfacet
  facet normal 0 0 1
    outer loop
      vertex 78.2722 92.7081 20
      vertex 76.3708 94.8587 20
      vertex 76.4821 92.0292 20
    endloop
  endfacet
  facet normal 0 0 1
    outer loop
      vertex 76 92.0877 20
      vertex 76.3708 94.8587 20
      vertex 76 94.9792 20
    endloop
  endfacet
  facet normal 0 0 1
    outer loop
      vertex 76.3708 94.8587 20
      vertex 76 92.0877 20
      vertex 76.4821 92.0292 20
    endloop
  endfacet
  facet normal 0 0 1
    outer loop
      vertex 77.2 -4 20
      vertex 80 -4 20
      vertex 79.5418 -2.14111 20
    endloop
  endfacet
  facet normal 0 0 1
    outer loop
      vertex 76.3708 -2.85873 20
      vertex 79.5418 -2.14111 20
      vertex 78.2722 -0.708069 20
    endloop
  endfacet
  facet normal 0 0 1
    outer loop
      vertex 80 -4 20
      vertex 77.2 -4 20
      vertex 79.5418 -5.85889 20
    endloop
  endfacet
  facet normal -0 0 1
    outer loop
      vertex 76.3708 -5.14127 20
      vertex 79.5418 -5.85889 20
      vertex 77.2 -4 20
    endloop
  endfacet
  facet normal 0 0 1
    outer loop
      vertex 76.3708 -2.85873 20
      vertex 78.2722 -0.708069 20
      vertex 76.4821 -0.0291748 20
    endloop
  endfacet
  facet normal 0 0 1
    outer loop
      vertex 79.5418 -2.14111 20
      vertex 76.3708 -2.85873 20
      vertex 77.2 -4 20
    endloop
  endfacet
  facet normal -0 0 1
    outer loop
      vertex 76 -0.0877178 20
      vertex 76.3708 -2.85873 20
      vertex 76.4821 -0.0291748 20
    endloop
  endfacet
  facet normal 0 0 1
    outer loop
      vertex 76.3708 -2.85873 20
      vertex 76 -0.0877178 20
      vertex 76 -2.97922 20
    endloop
  endfacet
  facet normal 0 0 1
    outer loop
      vertex 79.5418 -5.85889 20
      vertex 76.3708 -5.14127 20
      vertex 78.2722 -7.29193 20
    endloop
  endfacet
  facet normal 0 0 1
    outer loop
      vertex 78.2722 -7.29193 20
      vertex 76.3708 -5.14127 20
      vertex 76.4821 -7.97083 20
    endloop
  endfacet
  facet normal 0 0 1
    outer loop
      vertex 74.5816 -7.74005 20
      vertex 76.3708 -5.14127 20
      vertex 75.0292 -4.70534 20
    endloop
  endfacet
  facet normal 0 0 1
    outer loop
      vertex 76.3708 -5.14127 20
      vertex 74.5816 -7.74005 20
      vertex 76.4821 -7.97083 20
    endloop
  endfacet
  facet normal 0 0 1
    outer loop
      vertex 76 -2.97922 20
      vertex 72.1162 -4 20
      vertex 75.0292 -4 20
    endloop
  endfacet
  facet normal -0 0 1
    outer loop
      vertex 72.1162 96.9573 20
      vertex 75.0292 96.7053 20
      vertex 73.006 98.6525 20
    endloop
  endfacet
  facet normal 0 0 1
    outer loop
      vertex 75.0292 -4 20
      vertex 72.1162 -4 20
      vertex 75.0292 -4.70534 20
    endloop
  endfacet
  facet normal 0 0 1
    outer loop
      vertex 75.0292 96.7053 20
      vertex 72.1162 96.9573 20
      vertex 72.1162 96 20
    endloop
  endfacet
  facet normal 0 0 1
    outer loop
      vertex 72.1162 -4.95726 20
      vertex 75.0292 -4.70534 20
      vertex 72.1162 -4 20
    endloop
  endfacet
  facet normal 0 0 1
    outer loop
      vertex 75.0292 -4.70534 20
      vertex 73.006 -6.65248 20
      vertex 74.5816 -7.74005 20
    endloop
  endfacet
  facet normal 0 0 1
    outer loop
      vertex 75.0292 -4.70534 20
      vertex 72.1162 -4.95726 20
      vertex 73.006 -6.65248 20
    endloop
  endfacet
  facet normal 0.748512 -0.663122 0
    outer loop
      vertex -1.72775 -7.29193 20
      vertex -0.458191 -5.85889 0
      vertex -0.458191 -5.85889 20
    endloop
  endfacet
  facet normal 0.748512 -0.663122 0
    outer loop
      vertex -0.458191 -5.85889 0
      vertex -1.72775 -7.29193 20
      vertex -1.72775 -7.29193 0
    endloop
  endfacet
  facet normal 0.97094 -0.239323 0
    outer loop
      vertex -0.458191 -5.85889 20
      vertex 0 -4 0
      vertex 0 -4 20
    endloop
  endfacet
  facet normal 0.97094 -0.239323 0
    outer loop
      vertex 0 -4 0
      vertex -0.458191 -5.85889 20
      vertex -0.458191 -5.85889 0
    endloop
  endfacet
  facet normal -0.12054 0.992708 0
    outer loop
      vertex -4 -0.0877178 0
      vertex -5.41841 -0.259949 20
      vertex -4 -0.0877178 20
    endloop
  endfacet
  facet normal -0.12054 0.992708 0
    outer loop
      vertex -5.41841 -0.259949 20
      vertex -4 -0.0877178 0
      vertex -5.41841 -0.259949 0
    endloop
  endfacet
  facet normal -0.568064 0.822984 0
    outer loop
      vertex -5.41841 -0.259949 0
      vertex -6.99403 -1.34752 20
      vertex -5.41841 -0.259949 20
    endloop
  endfacet
  facet normal -0.568064 0.822984 0
    outer loop
      vertex -6.99403 -1.34752 20
      vertex -5.41841 -0.259949 0
      vertex -6.99403 -1.34752 0
    endloop
  endfacet
  facet normal -0.885454 0.464727 0
    outer loop
      vertex -7.88376 -3.04274 0
      vertex -6.99403 -1.34752 20
      vertex -6.99403 -1.34752 0
    endloop
  endfacet
  facet normal -0.885454 0.464727 0
    outer loop
      vertex -6.99403 -1.34752 20
      vertex -7.88376 -3.04274 0
      vertex -7.88376 -3.04274 20
    endloop
  endfacet
  facet normal -1 0 0
    outer loop
      vertex -7.88376 -4.95726 0
      vertex -7.88376 -3.04274 20
      vertex -7.88376 -3.04274 0
    endloop
  endfacet
  facet normal -1 -0 0
    outer loop
      vertex -7.88376 -3.04274 20
      vertex -7.88376 -4.95726 0
      vertex -7.88376 -4.95726 20
    endloop
  endfacet
  facet normal -0.885454 -0.464727 0
    outer loop
      vertex -6.99403 -6.65248 0
      vertex -7.88376 -4.95726 20
      vertex -7.88376 -4.95726 0
    endloop
  endfacet
  facet normal -0.885454 -0.464727 0
    outer loop
      vertex -7.88376 -4.95726 20
      vertex -6.99403 -6.65248 0
      vertex -6.99403 -6.65248 20
    endloop
  endfacet
  facet normal -0.568064 -0.822984 0
    outer loop
      vertex -6.99403 -6.65248 0
      vertex -5.41841 -7.74005 20
      vertex -6.99403 -6.65248 20
    endloop
  endfacet
  facet normal -0.568064 -0.822984 -0
    outer loop
      vertex -5.41841 -7.74005 20
      vertex -6.99403 -6.65248 0
      vertex -5.41841 -7.74005 0
    endloop
  endfacet
  facet normal -0.120543 -0.992708 0
    outer loop
      vertex -5.41841 -7.74005 0
      vertex -3.51787 -7.97083 20
      vertex -5.41841 -7.74005 20
    endloop
  endfacet
  facet normal -0.120543 -0.992708 -0
    outer loop
      vertex -3.51787 -7.97083 20
      vertex -5.41841 -7.74005 0
      vertex -3.51787 -7.97083 0
    endloop
  endfacet
  facet normal 0.354604 -0.935017 0
    outer loop
      vertex -3.51787 -7.97083 0
      vertex -1.72775 -7.29193 20
      vertex -3.51787 -7.97083 20
    endloop
  endfacet
  facet normal 0.354604 -0.935017 0
    outer loop
      vertex -1.72775 -7.29193 20
      vertex -3.51787 -7.97083 0
      vertex -1.72775 -7.29193 0
    endloop
  endfacet
  facet normal 1 -0 0
    outer loop
      vertex -4.97081 -4.70534 20
      vertex -4.97081 -3.29466 0
      vertex -4.97081 -3.29466 20
    endloop
  endfacet
  facet normal 1 0 0
    outer loop
      vertex -4.97081 -3.29466 0
      vertex -4.97081 -4.70534 20
      vertex -4.97081 -4.70534 0
    endloop
  endfacet
  facet normal 0.309021 -0.951055 0
    outer loop
      vertex -4.97081 -3.29466 0
      vertex -4 -2.97922 20
      vertex -4.97081 -3.29466 20
    endloop
  endfacet
  facet normal 0.309021 -0.951055 0
    outer loop
      vertex -4 -2.97922 20
      vertex -4.97081 -3.29466 0
      vertex -4 -2.97922 0
    endloop
  endfacet
  facet normal -0.809017 0.587785 0
    outer loop
      vertex -3.62918 -5.14127 0
      vertex -2.8 -4 20
      vertex -2.8 -4 0
    endloop
  endfacet
  facet normal -0.809017 0.587785 0
    outer loop
      vertex -2.8 -4 20
      vertex -3.62918 -5.14127 0
      vertex -3.62918 -5.14127 20
    endloop
  endfacet
  facet normal 0.309022 0.951055 -0
    outer loop
      vertex -3.62918 -5.14127 0
      vertex -4.97081 -4.70534 20
      vertex -3.62918 -5.14127 20
    endloop
  endfacet
  facet normal 0.309022 0.951055 0
    outer loop
      vertex -4.97081 -4.70534 20
      vertex -3.62918 -5.14127 0
      vertex -4.97081 -4.70534 0
    endloop
  endfacet
  facet normal 0.97094 0.239322 0
    outer loop
      vertex 0 96 20
      vertex -0.458191 97.8589 0
      vertex -0.458191 97.8589 20
    endloop
  endfacet
  facet normal 0.97094 0.239322 0
    outer loop
      vertex -0.458191 97.8589 0
      vertex 0 96 20
      vertex 0 96 0
    endloop
  endfacet
  facet normal 0.748503 0.663132 0
    outer loop
      vertex -0.458191 97.8589 20
      vertex -1.72775 99.2919 0
      vertex -1.72775 99.2919 20
    endloop
  endfacet
  facet normal 0.748503 0.663132 0
    outer loop
      vertex -1.72775 99.2919 0
      vertex -0.458191 97.8589 20
      vertex -0.458191 97.8589 0
    endloop
  endfacet
  facet normal 0.354604 0.935017 -0
    outer loop
      vertex -1.72775 99.2919 0
      vertex -3.51787 99.9708 20
      vertex -1.72775 99.2919 20
    endloop
  endfacet
  facet normal 0.354604 0.935017 0
    outer loop
      vertex -3.51787 99.9708 20
      vertex -1.72775 99.2919 0
      vertex -3.51787 99.9708 0
    endloop
  endfacet
  facet normal -0.120502 0.992713 0
    outer loop
      vertex -3.51787 99.9708 0
      vertex -5.41841 99.7401 20
      vertex -3.51787 99.9708 20
    endloop
  endfacet
  facet normal -0.120502 0.992713 0
    outer loop
      vertex -5.41841 99.7401 20
      vertex -3.51787 99.9708 0
      vertex -5.41841 99.7401 0
    endloop
  endfacet
  facet normal -0.568075 0.822977 0
    outer loop
      vertex -5.41841 99.7401 0
      vertex -6.99403 98.6525 20
      vertex -5.41841 99.7401 20
    endloop
  endfacet
  facet normal -0.568075 0.822977 0
    outer loop
      vertex -6.99403 98.6525 20
      vertex -5.41841 99.7401 0
      vertex -6.99403 98.6525 0
    endloop
  endfacet
  facet normal -0.885452 0.464732 0
    outer loop
      vertex -7.88376 96.9573 0
      vertex -6.99403 98.6525 20
      vertex -6.99403 98.6525 0
    endloop
  endfacet
  facet normal -0.885452 0.464732 0
    outer loop
      vertex -6.99403 98.6525 20
      vertex -7.88376 96.9573 0
      vertex -7.88376 96.9573 20
    endloop
  endfacet
  facet normal -1 0 0
    outer loop
      vertex -7.88376 95.0427 0
      vertex -7.88376 96.9573 20
      vertex -7.88376 96.9573 0
    endloop
  endfacet
  facet normal -1 -0 0
    outer loop
      vertex -7.88376 96.9573 20
      vertex -7.88376 95.0427 0
      vertex -7.88376 95.0427 20
    endloop
  endfacet
  facet normal -0.885452 -0.464732 0
    outer loop
      vertex -6.99403 93.3475 0
      vertex -7.88376 95.0427 20
      vertex -7.88376 95.0427 0
    endloop
  endfacet
  facet normal -0.885452 -0.464732 0
    outer loop
      vertex -7.88376 95.0427 20
      vertex -6.99403 93.3475 0
      vertex -6.99403 93.3475 20
    endloop
  endfacet
  facet normal -0.568075 -0.822977 0
    outer loop
      vertex -6.99403 93.3475 0
      vertex -5.41841 92.2599 20
      vertex -6.99403 93.3475 20
    endloop
  endfacet
  facet normal -0.568075 -0.822977 -0
    outer loop
      vertex -5.41841 92.2599 20
      vertex -6.99403 93.3475 0
      vertex -5.41841 92.2599 0
    endloop
  endfacet
  facet normal -0.120519 -0.992711 0
    outer loop
      vertex -5.41841 92.2599 0
      vertex -4 92.0877 20
      vertex -5.41841 92.2599 20
    endloop
  endfacet
  facet normal -0.120519 -0.992711 -0
    outer loop
      vertex -4 92.0877 20
      vertex -5.41841 92.2599 0
      vertex -4 92.0877 0
    endloop
  endfacet
  facet normal 1 -0 0
    outer loop
      vertex -4.97081 95.2947 20
      vertex -4.97081 96.7053 0
      vertex -4.97081 96.7053 20
    endloop
  endfacet
  facet normal 1 0 0
    outer loop
      vertex -4.97081 96.7053 0
      vertex -4.97081 95.2947 20
      vertex -4.97081 95.2947 0
    endloop
  endfacet
  facet normal 0.309067 -0.95104 0
    outer loop
      vertex -4.97081 96.7053 0
      vertex -3.62918 97.1413 20
      vertex -4.97081 96.7053 20
    endloop
  endfacet
  facet normal 0.309067 -0.95104 0
    outer loop
      vertex -3.62918 97.1413 20
      vertex -4.97081 96.7053 0
      vertex -3.62918 97.1413 0
    endloop
  endfacet
  facet normal -0.809025 -0.587775 0
    outer loop
      vertex -2.8 96 0
      vertex -3.62918 97.1413 20
      vertex -3.62918 97.1413 0
    endloop
  endfacet
  facet normal -0.809025 -0.587775 0
    outer loop
      vertex -3.62918 97.1413 20
      vertex -2.8 96 0
      vertex -2.8 96 20
    endloop
  endfacet
  facet normal 0.309074 0.951038 -0
    outer loop
      vertex -4 94.9792 0
      vertex -4.97081 95.2947 20
      vertex -4 94.9792 20
    endloop
  endfacet
  facet normal 0.309074 0.951038 0
    outer loop
      vertex -4.97081 95.2947 20
      vertex -4 94.9792 0
      vertex -4.97081 95.2947 0
    endloop
  endfacet
  facet normal 0.748492 -0.663144 0
    outer loop
      vertex 78.2722 92.7081 20
      vertex 79.5418 94.1411 0
      vertex 79.5418 94.1411 20
    endloop
  endfacet
  facet normal 0.748492 -0.663144 0
    outer loop
      vertex 79.5418 94.1411 0
      vertex 78.2722 92.7081 20
      vertex 78.2722 92.7081 0
    endloop
  endfacet
  facet normal 0.970939 -0.239327 0
    outer loop
      vertex 79.5418 94.1411 20
      vertex 80 96 0
      vertex 80 96 20
    endloop
  endfacet
  facet normal 0.970939 -0.239327 0
    outer loop
      vertex 80 96 0
      vertex 79.5418 94.1411 20
      vertex 79.5418 94.1411 0
    endloop
  endfacet
  facet normal 0.970939 0.239327 0
    outer loop
      vertex 80 96 20
      vertex 79.5418 97.8589 0
      vertex 79.5418 97.8589 20
    endloop
  endfacet
  facet normal 0.970939 0.239327 0
    outer loop
      vertex 79.5418 97.8589 0
      vertex 80 96 20
      vertex 80 96 0
    endloop
  endfacet
  facet normal 0.748492 0.663144 0
    outer loop
      vertex 79.5418 97.8589 20
      vertex 78.2722 99.2919 0
      vertex 78.2722 99.2919 20
    endloop
  endfacet
  facet normal 0.748492 0.663144 0
    outer loop
      vertex 78.2722 99.2919 0
      vertex 79.5418 97.8589 20
      vertex 79.5418 97.8589 0
    endloop
  endfacet
  facet normal 0.354607 0.935015 -0
    outer loop
      vertex 78.2722 99.2919 0
      vertex 76.4821 99.9708 20
      vertex 78.2722 99.2919 20
    endloop
  endfacet
  facet normal 0.354607 0.935015 0
    outer loop
      vertex 76.4821 99.9708 20
      vertex 78.2722 99.2919 0
      vertex 76.4821 99.9708 0
    endloop
  endfacet
  facet normal -0.120505 0.992713 0
    outer loop
      vertex 76.4821 99.9708 0
      vertex 74.5816 99.7401 20
      vertex 76.4821 99.9708 20
    endloop
  endfacet
  facet normal -0.120505 0.992713 0
    outer loop
      vertex 74.5816 99.7401 20
      vertex 76.4821 99.9708 0
      vertex 74.5816 99.7401 0
    endloop
  endfacet
  facet normal -0.56808 0.822974 0
    outer loop
      vertex 74.5816 99.7401 0
      vertex 73.006 98.6525 20
      vertex 74.5816 99.7401 20
    endloop
  endfacet
  facet normal -0.56808 0.822974 0
    outer loop
      vertex 73.006 98.6525 20
      vertex 74.5816 99.7401 0
      vertex 73.006 98.6525 0
    endloop
  endfacet
  facet normal -0.885437 0.46476 0
    outer loop
      vertex 72.1162 96.9573 0
      vertex 73.006 98.6525 20
      vertex 73.006 98.6525 0
    endloop
  endfacet
  facet normal -0.885437 0.46476 0
    outer loop
      vertex 73.006 98.6525 20
      vertex 72.1162 96.9573 0
      vertex 72.1162 96.9573 20
    endloop
  endfacet
  facet normal -1 0 0
    outer loop
      vertex 72.1162 96 0
      vertex 72.1162 96.9573 20
      vertex 72.1162 96.9573 0
    endloop
  endfacet
  facet normal -1 -0 0
    outer loop
      vertex 72.1162 96.9573 20
      vertex 72.1162 96 0
      vertex 72.1162 96 20
    endloop
  endfacet
  facet normal -0.120461 -0.992718 0
    outer loop
      vertex 76 92.0877 0
      vertex 76.4821 92.0292 20
      vertex 76 92.0877 20
    endloop
  endfacet
  facet normal -0.120461 -0.992718 -0
    outer loop
      vertex 76.4821 92.0292 20
      vertex 76 92.0877 0
      vertex 76.4821 92.0292 0
    endloop
  endfacet
  facet normal 0.354607 -0.935015 0
    outer loop
      vertex 76.4821 92.0292 0
      vertex 78.2722 92.7081 20
      vertex 76.4821 92.0292 20
    endloop
  endfacet
  facet normal 0.354607 -0.935015 0
    outer loop
      vertex 78.2722 92.7081 20
      vertex 76.4821 92.0292 0
      vertex 78.2722 92.7081 0
    endloop
  endfacet
  facet normal 1 -0 0
    outer loop
      vertex 75.0292 96 20
      vertex 75.0292 96.7053 0
      vertex 75.0292 96.7053 20
    endloop
  endfacet
  facet normal 1 0 0
    outer loop
      vertex 75.0292 96.7053 0
      vertex 75.0292 96 20
      vertex 75.0292 96 0
    endloop
  endfacet
  facet normal 0.309073 -0.951038 0
    outer loop
      vertex 75.0292 96.7053 0
      vertex 76.3708 97.1413 20
      vertex 75.0292 96.7053 20
    endloop
  endfacet
  facet normal 0.309073 -0.951038 0
    outer loop
      vertex 76.3708 97.1413 20
      vertex 75.0292 96.7053 0
      vertex 76.3708 97.1413 0
    endloop
  endfacet
  facet normal -0.809018 -0.587784 0
    outer loop
      vertex 77.2 96 0
      vertex 76.3708 97.1413 20
      vertex 76.3708 97.1413 0
    endloop
  endfacet
  facet normal -0.809018 -0.587784 0
    outer loop
      vertex 76.3708 97.1413 20
      vertex 77.2 96 0
      vertex 77.2 96 20
    endloop
  endfacet
  facet normal -0.809018 0.587784 0
    outer loop
      vertex 76.3708 94.8587 0
      vertex 77.2 96 20
      vertex 77.2 96 0
    endloop
  endfacet
  facet normal -0.809018 0.587784 0
    outer loop
      vertex 77.2 96 20
      vertex 76.3708 94.8587 0
      vertex 76.3708 94.8587 20
    endloop
  endfacet
  facet normal 0.309063 0.951042 -0
    outer loop
      vertex 76.3708 94.8587 0
      vertex 76 94.9792 20
      vertex 76.3708 94.8587 20
    endloop
  endfacet
  facet normal 0.309063 0.951042 0
    outer loop
      vertex 76 94.9792 20
      vertex 76.3708 94.8587 0
      vertex 76 94.9792 0
    endloop
  endfacet
  facet normal 0.748501 -0.663134 0
    outer loop
      vertex 78.2722 -7.29193 20
      vertex 79.5418 -5.85889 0
      vertex 79.5418 -5.85889 20
    endloop
  endfacet
  facet normal 0.748501 -0.663134 0
    outer loop
      vertex 79.5418 -5.85889 0
      vertex 78.2722 -7.29193 20
      vertex 78.2722 -7.29193 0
    endloop
  endfacet
  facet normal 0.970939 -0.239328 0
    outer loop
      vertex 79.5418 -5.85889 20
      vertex 80 -4 0
      vertex 80 -4 20
    endloop
  endfacet
  facet normal 0.970939 -0.239328 0
    outer loop
      vertex 80 -4 0
      vertex 79.5418 -5.85889 20
      vertex 79.5418 -5.85889 0
    endloop
  endfacet
  facet normal 0.970939 0.239328 0
    outer loop
      vertex 80 -4 20
      vertex 79.5418 -2.14111 0
      vertex 79.5418 -2.14111 20
    endloop
  endfacet
  facet normal 0.970939 0.239328 0
    outer loop
      vertex 79.5418 -2.14111 0
      vertex 80 -4 20
      vertex 80 -4 0
    endloop
  endfacet
  facet normal 0.748501 0.663133 0
    outer loop
      vertex 79.5418 -2.14111 20
      vertex 78.2722 -0.708069 0
      vertex 78.2722 -0.708069 20
    endloop
  endfacet
  facet normal 0.748501 0.663133 0
    outer loop
      vertex 78.2722 -0.708069 0
      vertex 79.5418 -2.14111 20
      vertex 79.5418 -2.14111 0
    endloop
  endfacet
  facet normal 0.354604 0.935016 -0
    outer loop
      vertex 78.2722 -0.708069 0
      vertex 76.4821 -0.0291748 20
      vertex 78.2722 -0.708069 20
    endloop
  endfacet
  facet normal 0.354604 0.935016 0
    outer loop
      vertex 76.4821 -0.0291748 20
      vertex 78.2722 -0.708069 0
      vertex 76.4821 -0.0291748 0
    endloop
  endfacet
  facet normal -0.120548 0.992708 0
    outer loop
      vertex 76.4821 -0.0291748 0
      vertex 76 -0.0877178 20
      vertex 76.4821 -0.0291748 20
    endloop
  endfacet
  facet normal -0.120548 0.992708 0
    outer loop
      vertex 76 -0.0877178 20
      vertex 76.4821 -0.0291748 0
      vertex 76 -0.0877178 0
    endloop
  endfacet
  facet normal -1 0 0
    outer loop
      vertex 72.1162 -4.95726 0
      vertex 72.1162 -4 20
      vertex 72.1162 -4 0
    endloop
  endfacet
  facet normal -1 -0 0
    outer loop
      vertex 72.1162 -4 20
      vertex 72.1162 -4.95726 0
      vertex 72.1162 -4.95726 20
    endloop
  endfacet
  facet normal -0.885439 -0.464756 0
    outer loop
      vertex 73.006 -6.65248 0
      vertex 72.1162 -4.95726 20
      vertex 72.1162 -4.95726 0
    endloop
  endfacet
  facet normal -0.885439 -0.464756 0
    outer loop
      vertex 72.1162 -4.95726 20
      vertex 73.006 -6.65248 0
      vertex 73.006 -6.65248 20
    endloop
  endfacet
  facet normal -0.568069 -0.822981 0
    outer loop
      vertex 73.006 -6.65248 0
      vertex 74.5816 -7.74005 20
      vertex 73.006 -6.65248 20
    endloop
  endfacet
  facet normal -0.568069 -0.822981 -0
    outer loop
      vertex 74.5816 -7.74005 20
      vertex 73.006 -6.65248 0
      vertex 74.5816 -7.74005 0
    endloop
  endfacet
  facet normal -0.120546 -0.992708 0
    outer loop
      vertex 74.5816 -7.74005 0
      vertex 76.4821 -7.97083 20
      vertex 74.5816 -7.74005 20
    endloop
  endfacet
  facet normal -0.120546 -0.992708 -0
    outer loop
      vertex 76.4821 -7.97083 20
      vertex 74.5816 -7.74005 0
      vertex 76.4821 -7.97083 0
    endloop
  endfacet
  facet normal 0.354607 -0.935015 0
    outer loop
      vertex 76.4821 -7.97083 0
      vertex 78.2722 -7.29193 20
      vertex 76.4821 -7.97083 20
    endloop
  endfacet
  facet normal 0.354607 -0.935015 0
    outer loop
      vertex 78.2722 -7.29193 20
      vertex 76.4821 -7.97083 0
      vertex 78.2722 -7.29193 0
    endloop
  endfacet
  facet normal 1 -0 0
    outer loop
      vertex 75.0292 -4.70534 20
      vertex 75.0292 -4 0
      vertex 75.0292 -4 20
    endloop
  endfacet
  facet normal 1 0 0
    outer loop
      vertex 75.0292 -4 0
      vertex 75.0292 -4.70534 20
      vertex 75.0292 -4.70534 0
    endloop
  endfacet
  facet normal 0.30904 -0.951049 0
    outer loop
      vertex 76 -2.97922 0
      vertex 76.3708 -2.85873 20
      vertex 76 -2.97922 20
    endloop
  endfacet
  facet normal 0.30904 -0.951049 0
    outer loop
      vertex 76.3708 -2.85873 20
      vertex 76 -2.97922 0
      vertex 76.3708 -2.85873 0
    endloop
  endfacet
  facet normal -0.809011 -0.587794 0
    outer loop
      vertex 77.2 -4 0
      vertex 76.3708 -2.85873 20
      vertex 76.3708 -2.85873 0
    endloop
  endfacet
  facet normal -0.809011 -0.587794 0
    outer loop
      vertex 76.3708 -2.85873 20
      vertex 77.2 -4 0
      vertex 77.2 -4 20
    endloop
  endfacet
  facet normal -0.809011 0.587794 0
    outer loop
      vertex 76.3708 -5.14127 0
      vertex 77.2 -4 20
      vertex 77.2 -4 0
    endloop
  endfacet
  facet normal -0.809011 0.587794 0
    outer loop
      vertex 77.2 -4 20
      vertex 76.3708 -5.14127 0
      vertex 76.3708 -5.14127 20
    endloop
  endfacet
  facet normal 0.309028 0.951053 -0
    outer loop
      vertex 76.3708 -5.14127 0
      vertex 75.0292 -4.70534 20
      vertex 76.3708 -5.14127 20
    endloop
  endfacet
  facet normal 0.309028 0.951053 0
    outer loop
      vertex 75.0292 -4.70534 20
      vertex 76.3708 -5.14127 0
      vertex 75.0292 -4.70534 0
    endloop
  endfacet
  facet normal 0 0 1
    outer loop
      vertex 65.006 6.65248 4
      vertex 8 4 4
      vertex 64.1162 4.95726 4
    endloop
  endfacet
  facet normal 0 0 1
    outer loop
      vertex 65.006 6.65248 4
      vertex 7.54181 5.85889 4
      vertex 8 4 4
    endloop
  endfacet
  facet normal -0 0 1
    outer loop
      vertex 6.27225 7.29193 4
      vertex 65.006 6.65248 4
      vertex 6.27225 84.7081 4
    endloop
  endfacet
  facet normal 0 0 1
    outer loop
      vertex 65.006 6.65248 4
      vertex 6.27225 7.29193 4
      vertex 7.54181 5.85889 4
    endloop
  endfacet
  facet normal -0 0 1
    outer loop
      vertex 4.48213 84.0292 4
      vertex 6.27225 7.29193 4
      vertex 6.27225 84.7081 4
    endloop
  endfacet
  facet normal 0 0 1
    outer loop
      vertex 4.48213 84.0292 4
      vertex 4.48213 7.97083 4
      vertex 6.27225 7.29193 4
    endloop
  endfacet
  facet normal 0 0 1
    outer loop
      vertex 2.58159 84.2599 4
      vertex 4.48213 7.97083 4
      vertex 4.48213 84.0292 4
    endloop
  endfacet
  facet normal 0 0 1
    outer loop
      vertex 2.58159 84.2599 4
      vertex 2.58159 7.74005 4
      vertex 4.48213 7.97083 4
    endloop
  endfacet
  facet normal 0 0 1
    outer loop
      vertex 1.00597 85.3475 4
      vertex 2.58159 7.74005 4
      vertex 2.58159 84.2599 4
    endloop
  endfacet
  facet normal 0 0 1
    outer loop
      vertex 1.00597 85.3475 4
      vertex 1.00597 6.65248 4
      vertex 2.58159 7.74005 4
    endloop
  endfacet
  facet normal 0 0 1
    outer loop
      vertex 0.116241 87.0427 4
      vertex 1.00597 6.65248 4
      vertex 1.00597 85.3475 4
    endloop
  endfacet
  facet normal 0 0 1
    outer loop
      vertex 1.00597 6.65248 4
      vertex 0.116241 87.0427 4
      vertex 0.116241 4.95726 4
    endloop
  endfacet
  facet normal 0 0 1
    outer loop
      vertex 72 92 4
      vertex 71.5418 89.8589 4
      vertex 72 88 4
    endloop
  endfacet
  facet normal 0 0 1
    outer loop
      vertex 72 92 4
      vertex 70.2722 91.2919 4
      vertex 71.5418 89.8589 4
    endloop
  endfacet
  facet normal 0 0 1
    outer loop
      vertex 72 92 4
      vertex 68.4821 91.9708 4
      vertex 70.2722 91.2919 4
    endloop
  endfacet
  facet normal -0 0 1
    outer loop
      vertex 8 88 4
      vertex 64.1162 87.0427 4
      vertex 64.1162 88.9573 4
    endloop
  endfacet
  facet normal 0 0 1
    outer loop
      vertex 7.54181 86.1411 4
      vertex 64.1162 87.0427 4
      vertex 8 88 4
    endloop
  endfacet
  facet normal 0 0 1
    outer loop
      vertex 65.006 85.3475 4
      vertex 6.27225 84.7081 4
      vertex 65.006 6.65248 4
    endloop
  endfacet
  facet normal -0 0 1
    outer loop
      vertex 7.54181 89.8589 4
      vertex 64.1162 88.9573 4
      vertex 65.006 90.6525 4
    endloop
  endfacet
  facet normal -0 0 1
    outer loop
      vertex 6.27225 91.2919 4
      vertex 65.006 90.6525 4
      vertex 66.5816 91.7401 4
    endloop
  endfacet
  facet normal -0 0 1
    outer loop
      vertex 4.48213 91.9708 4
      vertex 66.5816 91.7401 4
      vertex 68.4821 91.9708 4
    endloop
  endfacet
  facet normal 0 0 1
    outer loop
      vertex 64.1162 88.9573 4
      vertex 7.54181 89.8589 4
      vertex 8 88 4
    endloop
  endfacet
  facet normal 0 0 1
    outer loop
      vertex 65.006 90.6525 4
      vertex 6.27225 91.2919 4
      vertex 7.54181 89.8589 4
    endloop
  endfacet
  facet normal 0 0 1
    outer loop
      vertex 66.5816 91.7401 4
      vertex 4.48213 91.9708 4
      vertex 6.27225 91.2919 4
    endloop
  endfacet
  facet normal 0 0 1
    outer loop
      vertex 72 92 4
      vertex 4.48213 91.9708 4
      vertex 68.4821 91.9708 4
    endloop
  endfacet
  facet normal 0 0 1
    outer loop
      vertex 0 92 4
      vertex 0.116241 87.0427 4
      vertex 0.116241 88.9573 4
    endloop
  endfacet
  facet normal 0 0 1
    outer loop
      vertex 0.116241 87.0427 4
      vertex 0 92 4
      vertex 0.116241 4.95726 4
    endloop
  endfacet
  facet normal 0 0 1
    outer loop
      vertex 0 0 4
      vertex 0.116241 4.95726 4
      vertex 0 92 4
    endloop
  endfacet
  facet normal 0 0 1
    outer loop
      vertex 1.00597 90.6525 4
      vertex 0 92 4
      vertex 0.116241 88.9573 4
    endloop
  endfacet
  facet normal 0 0 1
    outer loop
      vertex 2.58159 91.7401 4
      vertex 0 92 4
      vertex 1.00597 90.6525 4
    endloop
  endfacet
  facet normal 0 0 1
    outer loop
      vertex 4.48213 91.9708 4
      vertex 0 92 4
      vertex 2.58159 91.7401 4
    endloop
  endfacet
  facet normal -0 0 1
    outer loop
      vertex 0 92 4
      vertex 4.48213 91.9708 4
      vertex 72 92 4
    endloop
  endfacet
  facet normal -0 0 1
    outer loop
      vertex 71.5418 86.1411 4
      vertex 72 4 4
      vertex 72 88 4
    endloop
  endfacet
  facet normal 0 0 1
    outer loop
      vertex 71.5418 86.1411 4
      vertex 71.5418 5.85889 4
      vertex 72 4 4
    endloop
  endfacet
  facet normal -0 0 1
    outer loop
      vertex 70.2722 84.7081 4
      vertex 71.5418 5.85889 4
      vertex 71.5418 86.1411 4
    endloop
  endfacet
  facet normal 0 0 1
    outer loop
      vertex 70.2722 84.7081 4
      vertex 70.2722 7.29193 4
      vertex 71.5418 5.85889 4
    endloop
  endfacet
  facet normal -0 0 1
    outer loop
      vertex 68.4821 84.0292 4
      vertex 70.2722 7.29193 4
      vertex 70.2722 84.7081 4
    endloop
  endfacet
  facet normal 0 0 1
    outer loop
      vertex 68.4821 84.0292 4
      vertex 68.4821 7.97083 4
      vertex 70.2722 7.29193 4
    endloop
  endfacet
  facet normal 0 0 1
    outer loop
      vertex 66.5816 84.2599 4
      vertex 68.4821 7.97083 4
      vertex 68.4821 84.0292 4
    endloop
  endfacet
  facet normal 0 0 1
    outer loop
      vertex 66.5816 84.2599 4
      vertex 66.5816 7.74005 4
      vertex 68.4821 7.97083 4
    endloop
  endfacet
  facet normal 0 0 1
    outer loop
      vertex 65.006 85.3475 4
      vertex 66.5816 7.74005 4
      vertex 66.5816 84.2599 4
    endloop
  endfacet
  facet normal 0 0 1
    outer loop
      vertex 65.006 85.3475 4
      vertex 65.006 6.65248 4
      vertex 66.5816 7.74005 4
    endloop
  endfacet
  facet normal -0 0 1
    outer loop
      vertex 7.54181 86.1411 4
      vertex 65.006 85.3475 4
      vertex 64.1162 87.0427 4
    endloop
  endfacet
  facet normal 0 0 1
    outer loop
      vertex 6.27225 84.7081 4
      vertex 65.006 85.3475 4
      vertex 7.54181 86.1411 4
    endloop
  endfacet
  facet normal -0 0 1
    outer loop
      vertex 71.5418 2.14111 4
      vertex 72 0 4
      vertex 72 4 4
    endloop
  endfacet
  facet normal -0 0 1
    outer loop
      vertex 70.2722 0.708069 4
      vertex 72 0 4
      vertex 71.5418 2.14111 4
    endloop
  endfacet
  facet normal -0 0 1
    outer loop
      vertex 68.4821 0.0291748 4
      vertex 72 0 4
      vertex 70.2722 0.708069 4
    endloop
  endfacet
  facet normal 0 0 1
    outer loop
      vertex 64.1162 4.95726 4
      vertex 8 4 4
      vertex 64.1162 3.04274 4
    endloop
  endfacet
  facet normal 0 0 1
    outer loop
      vertex 7.54181 2.14111 4
      vertex 64.1162 3.04274 4
      vertex 8 4 4
    endloop
  endfacet
  facet normal 0 0 1
    outer loop
      vertex 64.1162 3.04274 4
      vertex 7.54181 2.14111 4
      vertex 65.006 1.34752 4
    endloop
  endfacet
  facet normal 0 0 1
    outer loop
      vertex 6.27225 0.708069 4
      vertex 65.006 1.34752 4
      vertex 7.54181 2.14111 4
    endloop
  endfacet
  facet normal 0 0 1
    outer loop
      vertex 65.006 1.34752 4
      vertex 6.27225 0.708069 4
      vertex 66.5816 0.259949 4
    endloop
  endfacet
  facet normal 0 0 1
    outer loop
      vertex 4.48213 0.0291748 4
      vertex 66.5816 0.259949 4
      vertex 6.27225 0.708069 4
    endloop
  endfacet
  facet normal 0 0 1
    outer loop
      vertex 66.5816 0.259949 4
      vertex 4.48213 0.0291748 4
      vertex 68.4821 0.0291748 4
    endloop
  endfacet
  facet normal -0 0 1
    outer loop
      vertex 4.48213 0.0291748 4
      vertex 72 0 4
      vertex 68.4821 0.0291748 4
    endloop
  endfacet
  facet normal 0 0 1
    outer loop
      vertex 4.48213 0.0291748 4
      vertex 0 0 4
      vertex 72 0 4
    endloop
  endfacet
  facet normal 0 0 1
    outer loop
      vertex 2.58159 0.259949 4
      vertex 0 0 4
      vertex 4.48213 0.0291748 4
    endloop
  endfacet
  facet normal 0 0 1
    outer loop
      vertex 1.00597 1.34752 4
      vertex 0 0 4
      vertex 2.58159 0.259949 4
    endloop
  endfacet
  facet normal 0 0 1
    outer loop
      vertex 0.116241 3.04274 4
      vertex 0 0 4
      vertex 1.00597 1.34752 4
    endloop
  endfacet
  facet normal 0 0 1
    outer loop
      vertex 0.116241 4.95726 4
      vertex 0 0 4
      vertex 0.116241 3.04274 4
    endloop
  endfacet
  facet normal 0 0 1
    outer loop
      vertex 4.37082 89.1413 4
      vertex 4.37082 86.8587 4
      vertex 5.2 88 4
    endloop
  endfacet
  facet normal -0 0 1
    outer loop
      vertex 3.02919 88.7053 4
      vertex 4.37082 86.8587 4
      vertex 4.37082 89.1413 4
    endloop
  endfacet
  facet normal 0 0 1
    outer loop
      vertex 4.37082 86.8587 4
      vertex 3.02919 88.7053 4
      vertex 3.02919 87.2947 4
    endloop
  endfacet
  facet normal 0 0 1
    outer loop
      vertex 4.37082 5.14127 4
      vertex 4.37082 2.85873 4
      vertex 5.2 4 4
    endloop
  endfacet
  facet normal -0 0 1
    outer loop
      vertex 3.02919 4.70534 4
      vertex 4.37082 2.85873 4
      vertex 4.37082 5.14127 4
    endloop
  endfacet
  facet normal 0 0 1
    outer loop
      vertex 4.37082 2.85873 4
      vertex 3.02919 4.70534 4
      vertex 3.02919 3.29466 4
    endloop
  endfacet
  facet normal 0 0 1
    outer loop
      vertex 68.3708 89.1413 4
      vertex 68.3708 86.8587 4
      vertex 69.2 88 4
    endloop
  endfacet
  facet normal -0 0 1
    outer loop
      vertex 67.0292 88.7053 4
      vertex 68.3708 86.8587 4
      vertex 68.3708 89.1413 4
    endloop
  endfacet
  facet normal 0 0 1
    outer loop
      vertex 68.3708 86.8587 4
      vertex 67.0292 88.7053 4
      vertex 67.0292 87.2947 4
    endloop
  endfacet
  facet normal 0 0 1
    outer loop
      vertex 68.3708 5.14127 4
      vertex 68.3708 2.85873 4
      vertex 69.2 4 4
    endloop
  endfacet
  facet normal -0 0 1
    outer loop
      vertex 67.0292 4.70534 4
      vertex 68.3708 2.85873 4
      vertex 68.3708 5.14127 4
    endloop
  endfacet
  facet normal 0 0 1
    outer loop
      vertex 68.3708 2.85873 4
      vertex 67.0292 4.70534 4
      vertex 67.0292 3.29466 4
    endloop
  endfacet
  facet normal 0 1 -0
    outer loop
      vertex -2.8 96 0
      vertex -4 96 20
      vertex -2.8 96 20
    endloop
  endfacet
  facet normal 0 1 0
    outer loop
      vertex -4 96 20
      vertex -2.8 96 0
      vertex -4 96 0
    endloop
  endfacet
  facet normal 0 1 -0
    outer loop
      vertex 72.1162 96 0
      vertex 0 96 20
      vertex 72.1162 96 20
    endloop
  endfacet
  facet normal 0 1 0
    outer loop
      vertex 0 96 20
      vertex 72.1162 96 0
      vertex 0 96 0
    endloop
  endfacet
  facet normal 0 1 -0
    outer loop
      vertex 76 96 0
      vertex 75.0292 96 20
      vertex 76 96 20
    endloop
  endfacet
  facet normal 0 1 0
    outer loop
      vertex 75.0292 96 20
      vertex 76 96 0
      vertex 75.0292 96 0
    endloop
  endfacet
  facet normal -1 0 0
    outer loop
      vertex -4 94.9792 0
      vertex -4 96 20
      vertex -4 96 0
    endloop
  endfacet
  facet normal -1 -0 0
    outer loop
      vertex -4 96 20
      vertex -4 94.9792 0
      vertex -4 94.9792 20
    endloop
  endfacet
  facet normal -1 0 0
    outer loop
      vertex -4 -4 0
      vertex -4 -2.97922 20
      vertex -4 -2.97922 0
    endloop
  endfacet
  facet normal -1 -0 0
    outer loop
      vertex -4 -2.97922 20
      vertex -4 -4 0
      vertex -4 -4 20
    endloop
  endfacet
  facet normal -1 0 0
    outer loop
      vertex -4 -0.0877178 0
      vertex -4 92.0877 20
      vertex -4 92.0877 0
    endloop
  endfacet
  facet normal -1 -0 0
    outer loop
      vertex -4 92.0877 20
      vertex -4 -0.0877178 0
      vertex -4 -0.0877178 20
    endloop
  endfacet
  facet normal 0 -1 0
    outer loop
      vertex -4 -4 0
      vertex -2.8 -4 20
      vertex -4 -4 20
    endloop
  endfacet
  facet normal 0 -1 -0
    outer loop
      vertex -2.8 -4 20
      vertex -4 -4 0
      vertex -2.8 -4 0
    endloop
  endfacet
  facet normal 0 -1 0
    outer loop
      vertex 0 -4 0
      vertex 72.1162 -4 20
      vertex 0 -4 20
    endloop
  endfacet
  facet normal 0 -1 -0
    outer loop
      vertex 72.1162 -4 20
      vertex 0 -4 0
      vertex 72.1162 -4 0
    endloop
  endfacet
  facet normal 0 -1 0
    outer loop
      vertex 75.0292 -4 0
      vertex 76 -4 20
      vertex 75.0292 -4 20
    endloop
  endfacet
  facet normal 0 -1 -0
    outer loop
      vertex 76 -4 20
      vertex 75.0292 -4 0
      vertex 76 -4 0
    endloop
  endfacet
  facet normal 1 -0 0
    outer loop
      vertex 76 -4 20
      vertex 76 -2.97922 0
      vertex 76 -2.97922 20
    endloop
  endfacet
  facet normal 1 0 0
    outer loop
      vertex 76 -2.97922 0
      vertex 76 -4 20
      vertex 76 -4 0
    endloop
  endfacet
  facet normal 1 -0 0
    outer loop
      vertex 76 94.9792 20
      vertex 76 96 0
      vertex 76 96 20
    endloop
  endfacet
  facet normal 1 0 0
    outer loop
      vertex 76 96 0
      vertex 76 94.9792 20
      vertex 76 94.9792 0
    endloop
  endfacet
  facet normal 1 -0 0
    outer loop
      vertex 76 -0.0877178 20
      vertex 76 92.0877 0
      vertex 76 92.0877 20
    endloop
  endfacet
  facet normal 1 0 0
    outer loop
      vertex 76 92.0877 0
      vertex 76 -0.0877178 20
      vertex 76 -0.0877178 0
    endloop
  endfacet
  facet normal 1 -0 0
    outer loop
      vertex 0 0 20
      vertex 0 92 4
      vertex 0 92 20
    endloop
  endfacet
  facet normal 1 0 0
    outer loop
      vertex 0 92 4
      vertex 0 0 20
      vertex 0 0 4
    endloop
  endfacet
  facet normal 0 -1 0
    outer loop
      vertex 0 92 4
      vertex 72 92 20
      vertex 0 92 20
    endloop
  endfacet
  facet normal 0 -1 -0
    outer loop
      vertex 72 92 20
      vertex 0 92 4
      vertex 72 92 4
    endloop
  endfacet
  facet normal -1 0 0
    outer loop
      vertex 72 88 4
      vertex 72 92 20
      vertex 72 92 4
    endloop
  endfacet
  facet normal -1 0 0
    outer loop
      vertex 72 4 4
      vertex 72 92 20
      vertex 72 88 4
    endloop
  endfacet
  facet normal -1 0 0
    outer loop
      vertex 72 0 20
      vertex 72 4 4
      vertex 72 0 4
    endloop
  endfacet
  facet normal -1 0 0
    outer loop
      vertex 72 4 4
      vertex 72 0 20
      vertex 72 92 20
    endloop
  endfacet
  facet normal 0 1 -0
    outer loop
      vertex 72 0 4
      vertex 0 0 20
      vertex 72 0 20
    endloop
  endfacet
  facet normal 0 1 0
    outer loop
      vertex 0 0 20
      vertex 72 0 4
      vertex 0 0 4
    endloop
  endfacet
endsolid OpenSCAD_Model
